<?xml version="1.0" encoding="UTF-8"?>
<!DOCTYPE svg PUBLIC "-//W3C//DTD SVG 1.1//EN" "http://www.w3.org/Graphics/SVG/1.1/DTD/svg11.dtd">
<svg xmlns="http://www.w3.org/2000/svg" version="1.1" width="512px" height="512px" style="shape-rendering:geometricPrecision; text-rendering:geometricPrecision; image-rendering:optimizeQuality; fill-rule:evenodd; clip-rule:evenodd" xmlns:xlink="http://www.w3.org/1999/xlink">
<g><path style="opacity:0.994" fill="#fdb037" d="M 232.5,-0.5 C 234.833,-0.5 237.167,-0.5 239.5,-0.5C 246.179,7.42911 254.679,12.4291 265,14.5C 269.127,11.7237 273.293,8.89041 277.5,6C 290.439,1.27803 302.272,3.11136 313,11.5C 327.239,4.34016 341.072,5.00683 354.5,13.5C 370.438,7.47523 384.771,9.97523 397.5,21C 416.313,21.4942 428.48,30.6608 434,48.5C 435.441,57.7147 434.274,66.548 430.5,75C 439.217,85.3661 442.217,97.1994 439.5,110.5C 437.214,115.73 434.381,120.73 431,125.5C 427.872,128.474 424.372,130.807 420.5,132.5C 418.869,119.2 411.536,110.867 398.5,107.5C 396.971,107.529 395.804,108.196 395,109.5C 394.667,119.167 394.333,128.833 394,138.5C 390.591,139.622 387.091,139.789 383.5,139C 374.673,121.175 366.506,103.009 359,84.5C 355.713,79.9391 351.213,77.6058 345.5,77.5C 342.553,73.162 340.887,68.3286 340.5,63C 341.441,57.7664 342.274,52.5997 343,47.5C 339.333,43.5 335.667,43.5 332,47.5C 327.554,57.4516 327.387,67.4516 331.5,77.5C 324.159,77.3337 316.826,77.5003 309.5,78C 296.728,83.0381 292.894,91.8715 298,104.5C 305.672,112.82 312.672,112.486 319,103.5C 319.667,101.5 319.667,99.5 319,97.5C 316.374,94.7692 313.207,92.9358 309.5,92C 306.499,87.9971 307.165,84.6638 311.5,82C 325.971,83.1427 332.471,90.9761 331,105.5C 326.467,118.523 317.3,124.023 303.5,122C 288.171,116.513 281.671,105.68 284,89.5C 285.027,85.5741 286.527,81.9074 288.5,78.5C 289.167,78.5 289.5,78.1667 289.5,77.5C 290.812,76.8549 291.812,75.8549 292.5,74.5C 274.98,71.8126 264.48,61.8126 261,44.5C 255.439,41.1971 251.939,42.6971 250.5,49C 252.363,61.249 258.363,70.749 268.5,77.5C 264.564,78.9032 261.73,81.5699 260,85.5C 260.154,100.867 259.321,115.867 257.5,130.5C 250.761,127.59 246.261,122.59 244,115.5C 242.556,108.801 242.056,102.134 242.5,95.5C 225.162,83.6866 216.328,67.3533 216,46.5C 217.263,44.2031 219.097,43.3698 221.5,44C 225.327,45.746 228.993,47.746 232.5,50C 235.089,51.3141 237.756,51.9808 240.5,52C 233.337,43.321 229.004,33.4877 227.5,22.5C 226.387,14.1249 228.054,6.45821 232.5,-0.5 Z"/></g>
<g><path style="opacity:0.989" fill="#a1ade5" d="M 176.5,32.5 C 177.254,35.091 178.921,36.9243 181.5,38C 186.534,40.7893 191.868,42.7893 197.5,44C 198.833,45.6667 198.833,47.3333 197.5,49C 186.819,50.6597 178.486,55.8263 172.5,64.5C 169.21,53.3758 162.21,45.5424 151.5,41C 149.187,40.338 146.854,39.838 144.5,39.5C 154.069,33.56 159.735,24.8933 161.5,13.5C 163.5,12.1667 165.5,12.1667 167.5,13.5C 169.183,20.5948 172.183,26.9281 176.5,32.5 Z"/></g>
<g><path style="opacity:0.996" fill="#2740b0" d="M 227.5,22.5 C 229.004,33.4877 233.337,43.321 240.5,52C 237.756,51.9808 235.089,51.3141 232.5,50C 228.993,47.746 225.327,45.746 221.5,44C 219.097,43.3698 217.263,44.2031 216,46.5C 216.328,67.3533 225.162,83.6866 242.5,95.5C 242.056,102.134 242.556,108.801 244,115.5C 246.261,122.59 250.761,127.59 257.5,130.5C 259.452,143.252 260.118,156.252 259.5,169.5C 251.383,169.114 243.383,169.781 235.5,171.5C 237.614,168.161 238.947,164.495 239.5,160.5C 241.67,144.718 235.003,134.218 219.5,129C 185.017,127.165 156.85,139.665 135,166.5C 126.913,177.175 121.08,189.008 117.5,202C 117.709,203.871 118.709,205.038 120.5,205.5C 126.875,200.777 133.209,196.11 139.5,191.5C 161.462,180.744 184.462,177.744 208.5,182.5C 203.946,187.557 199.113,192.557 194,197.5C 183.664,210.338 178.164,225.005 177.5,241.5C 176.399,240.2 175.066,239.7 173.5,240C 169.333,244.167 165.167,248.333 161,252.5C 160.613,255.304 161.779,257.304 164.5,258.5C 152.847,259.245 141.513,261.911 130.5,266.5C 129.893,266.376 129.56,266.043 129.5,265.5C 135.555,259.628 142.222,254.461 149.5,250C 157.169,241.976 158.335,233.143 153,223.5C 150.894,220.882 148.394,218.882 145.5,217.5C 137.589,212.138 129.589,212.304 121.5,218C 102.504,235.492 98.1711,255.992 108.5,279.5C 101.436,285.562 95.1027,292.228 89.5,299.5C 84.3375,289.848 80.8375,279.514 79,268.5C 78.4782,252.456 78.8115,236.456 80,220.5C 77.0709,212.74 71.9043,207.073 64.5,203.5C 44.9599,197.363 32.1265,204.363 26,224.5C 26.269,254.156 36.769,279.489 57.5,300.5C 40.4528,300.428 24.4528,304.428 9.5,312.5C -5.53112,216.408 23.8022,136.908 97.5,74C 108.798,65.5199 120.465,57.6866 132.5,50.5C 143.133,51.5624 151.3,56.5624 157,65.5C 158.841,70.3612 160.675,75.1945 162.5,80C 164.112,80.7203 165.612,80.5536 167,79.5C 168.547,74.3563 170.38,69.3563 172.5,64.5C 178.486,55.8263 186.819,50.6597 197.5,49C 198.833,47.3333 198.833,45.6667 197.5,44C 191.868,42.7893 186.534,40.7893 181.5,38C 178.921,36.9243 177.254,35.091 176.5,32.5C 193.024,26.9117 210.024,23.5784 227.5,22.5 Z"/></g>
<g><path style="opacity:1" fill="#fec243" d="M 293.5,29.5 C 296.862,29.0695 299.695,30.0695 302,32.5C 300.842,39.4167 300.508,46.4167 301,53.5C 301.677,58.2051 303.51,62.3718 306.5,66C 302.637,67.1811 299.137,69.0144 296,71.5C 288.554,60.4917 286.554,48.4917 290,35.5C 290.926,33.3083 292.093,31.3083 293.5,29.5 Z"/></g>
<g><path style="opacity:1" fill="#8694dd" d="M 144.5,39.5 C 146.854,39.838 149.187,40.338 151.5,41C 162.21,45.5424 169.21,53.3758 172.5,64.5C 170.38,69.3563 168.547,74.3563 167,79.5C 165.612,80.5536 164.112,80.7203 162.5,80C 160.675,75.1945 158.841,70.3612 157,65.5C 151.3,56.5624 143.133,51.5624 132.5,50.5C 130.5,48.4714 130.167,46.1381 131.5,43.5C 135.857,42.1581 140.191,40.8248 144.5,39.5 Z"/></g>
<g><path style="opacity:1" fill="#ffc243" d="M 289.5,77.5 C 282.5,77.5 275.5,77.5 268.5,77.5C 258.363,70.749 252.363,61.249 250.5,49C 251.939,42.6971 255.439,41.1971 261,44.5C 264.48,61.8126 274.98,71.8126 292.5,74.5C 291.812,75.8549 290.812,76.8549 289.5,77.5 Z"/></g>
<g><path style="opacity:1" fill="#fec243" d="M 345.5,77.5 C 340.833,77.5 336.167,77.5 331.5,77.5C 327.387,67.4516 327.554,57.4516 332,47.5C 335.667,43.5 339.333,43.5 343,47.5C 342.274,52.5997 341.441,57.7664 340.5,63C 340.887,68.3286 342.553,73.162 345.5,77.5 Z"/></g>
<g><path style="opacity:1" fill="#fecdbd" d="M 331.5,77.5 C 336.167,77.5 340.833,77.5 345.5,77.5C 351.213,77.6058 355.713,79.9391 359,84.5C 366.506,103.009 374.673,121.175 383.5,139C 387.091,139.789 390.591,139.622 394,138.5C 394.333,128.833 394.667,119.167 395,109.5C 395.804,108.196 396.971,107.529 398.5,107.5C 411.536,110.867 418.869,119.2 420.5,132.5C 419.785,149.215 411.118,158.548 394.5,160.5C 393.959,179.251 386.292,194.251 371.5,205.5C 354.153,214.434 335.82,216.934 316.5,213C 295.846,206.23 283.68,192.064 280,170.5C 279.5,162.841 279.334,155.174 279.5,147.5C 282.119,147.768 284.619,147.435 287,146.5C 287.667,139.167 287.667,131.833 287,124.5C 286.617,123.944 286.117,123.611 285.5,123.5C 283.735,122.539 281.735,122.205 279.5,122.5C 279.333,110.495 279.5,98.4954 280,86.5C 281.413,82.2518 284.246,79.5852 288.5,78.5C 286.527,81.9074 285.027,85.5741 284,89.5C 281.671,105.68 288.171,116.513 303.5,122C 317.3,124.023 326.467,118.523 331,105.5C 332.471,90.9761 325.971,83.1427 311.5,82C 307.165,84.6638 306.499,87.9971 309.5,92C 313.207,92.9358 316.374,94.7692 319,97.5C 319.667,99.5 319.667,101.5 319,103.5C 312.672,112.486 305.672,112.82 298,104.5C 292.894,91.8715 296.728,83.0381 309.5,78C 316.826,77.5003 324.159,77.3337 331.5,77.5 Z"/></g>
<g><path style="opacity:1" fill="#06e9a3" d="M 107.5,104.5 C 109.288,104.215 110.955,104.548 112.5,105.5C 115.167,115.5 121.5,121.833 131.5,124.5C 132.833,126.167 132.833,127.833 131.5,129.5C 121.435,132.065 115.268,138.398 113,148.5C 111,151.167 109,151.167 107,148.5C 104.833,138.333 98.6667,132.167 88.5,130C 85.8333,128 85.8333,126 88.5,124C 99.0584,121.608 105.392,115.108 107.5,104.5 Z"/></g>
<g><path style="opacity:0.993" fill="#8795dd" d="M 439.5,110.5 C 481.748,162.096 500.248,221.43 495,288.5C 494.193,297.99 492.693,307.323 490.5,316.5C 484.655,293.454 479.488,270.121 475,246.5C 468.553,232.855 457.72,226.855 442.5,228.5C 436.833,228.5 431.167,228.5 425.5,228.5C 413.167,228.5 400.833,228.5 388.5,228.5C 382.833,228.5 377.167,228.5 371.5,228.5C 371.5,220.833 371.5,213.167 371.5,205.5C 386.292,194.251 393.959,179.251 394.5,160.5C 411.118,158.548 419.785,149.215 420.5,132.5C 424.372,130.807 427.872,128.474 431,125.5C 434.381,120.73 437.214,115.73 439.5,110.5 Z"/></g>
<g><path style="opacity:1" fill="#ec816c" d="M 285.5,123.5 C 286.117,123.611 286.617,123.944 287,124.5C 287.667,131.833 287.667,139.167 287,146.5C 284.619,147.435 282.119,147.768 279.5,147.5C 278.178,147.67 277.011,147.337 276,146.5C 275.333,139.167 275.333,131.833 276,124.5C 279.057,123.549 282.223,123.216 285.5,123.5 Z"/></g>
<g><path style="opacity:1" fill="#ec826d" d="M 337.5,122.5 C 341.007,121.994 344.174,122.66 347,124.5C 347.813,132.08 347.647,139.58 346.5,147C 342.909,147.789 339.409,147.622 336,146.5C 335.333,139.167 335.333,131.833 336,124.5C 336.717,123.956 337.217,123.289 337.5,122.5 Z"/></g>
<g><path style="opacity:1" fill="#06cefa" d="M 239.5,160.5 C 239.813,157.753 239.48,155.086 238.5,152.5C 231.711,147.459 224.044,144.792 215.5,144.5C 182.581,148.302 156.914,163.802 138.5,191C 138.728,191.399 139.062,191.565 139.5,191.5C 133.209,196.11 126.875,200.777 120.5,205.5C 118.709,205.038 117.709,203.871 117.5,202C 121.08,189.008 126.913,177.175 135,166.5C 156.85,139.665 185.017,127.165 219.5,129C 235.003,134.218 241.67,144.718 239.5,160.5 Z"/></g>
<g><path style="opacity:1" fill="#ec816c" d="M 309.5,131.5 C 317.589,130.748 320.089,134.081 317,141.5C 313.767,145.063 310.933,148.896 308.5,153C 311.306,156.134 314.472,158.967 318,161.5C 319.211,166.417 317.378,169.417 312.5,170.5C 307.039,167.601 301.706,164.434 296.5,161C 293.136,157.974 292.636,154.474 295,150.5C 299.842,144.137 304.676,137.803 309.5,131.5 Z"/></g>
<g><path style="opacity:1" fill="#61dafa" d="M 239.5,160.5 C 238.947,164.495 237.614,168.161 235.5,171.5C 228.454,179.853 219.454,183.52 208.5,182.5C 184.462,177.744 161.462,180.744 139.5,191.5C 139.062,191.565 138.728,191.399 138.5,191C 156.914,163.802 182.581,148.302 215.5,144.5C 224.044,144.792 231.711,147.459 238.5,152.5C 239.48,155.086 239.813,157.753 239.5,160.5 Z"/></g>
<g><path style="opacity:1" fill="#0aefa7" d="M 430.5,166.5 C 436.088,170.417 441.088,175.084 445.5,180.5C 441.137,185.697 436.303,190.364 431,194.5C 425.833,190.667 421.333,186.167 417.5,181C 421.657,176.009 425.991,171.176 430.5,166.5 Z"/></g>
<g><path style="opacity:1" fill="#09cdf9" d="M 100.5,171.5 C 91.2063,176.119 89.0397,183.119 94,192.5C 95.5579,195.021 97.7245,196.688 100.5,197.5C 87.8133,201.983 80.48,197.483 78.5,184C 79.3333,175.167 84.1667,170.333 93,169.5C 95.8211,169.408 98.3211,170.074 100.5,171.5 Z"/></g>
<g><path style="opacity:1" fill="#8694dd" d="M 259.5,169.5 C 262.456,189.951 273.456,204.118 292.5,212C 298.529,213.731 304.529,214.898 310.5,215.5C 310.5,219.833 310.5,224.167 310.5,228.5C 303.833,228.5 297.167,228.5 290.5,228.5C 281.531,210.339 266.864,200.673 246.5,199.5C 220.178,201.656 204.345,215.656 199,241.5C 198.5,252.161 198.333,262.828 198.5,273.5C 194.845,278.486 190.845,283.153 186.5,287.5C 176.15,283.103 165.816,278.603 155.5,274C 148.874,272.231 144.04,274.397 141,280.5C 140.5,294.163 140.333,307.829 140.5,321.5C 132.399,321.173 124.399,321.839 116.5,323.5C 110.487,318.16 103.82,313.827 96.5,310.5C 95.8333,310.167 95.1667,309.833 94.5,309.5C 92.8333,306.167 91.1667,302.833 89.5,299.5C 95.1027,292.228 101.436,285.562 108.5,279.5C 112.971,287.125 118.804,293.458 126,298.5C 127.5,298.333 128.333,297.5 128.5,296C 125.007,289.613 123.674,282.78 124.5,275.5C 125.32,271.698 126.986,268.364 129.5,265.5C 129.56,266.043 129.893,266.376 130.5,266.5C 141.513,261.911 152.847,259.245 164.5,258.5C 167.152,261.984 170.318,264.984 174,267.5C 178.956,263.547 183.622,259.214 188,254.5C 188.667,253.833 188.667,253.167 188,252.5C 184.296,248.964 180.796,245.298 177.5,241.5C 178.164,225.005 183.664,210.338 194,197.5C 199.113,192.557 203.946,187.557 208.5,182.5C 219.454,183.52 228.454,179.853 235.5,171.5C 243.383,169.781 251.383,169.114 259.5,169.5 Z"/></g>
<g><path style="opacity:1" fill="#60d8fa" d="M 100.5,171.5 C 109.25,177.521 110.75,185.187 105,194.5C 103.729,195.883 102.229,196.883 100.5,197.5C 97.7245,196.688 95.5579,195.021 94,192.5C 89.0397,183.119 91.2063,176.119 100.5,171.5 Z"/></g>
<g><path style="opacity:1" fill="#ec806b" d="M 294.5,178.5 C 309.17,178.333 323.837,178.5 338.5,179C 343.833,182.667 343.833,186.333 338.5,190C 323.833,190.667 309.167,190.667 294.5,190C 290.542,186.092 290.542,182.259 294.5,178.5 Z"/></g>
<g><path style="opacity:1" fill="#0f90cf" d="M 290.5,228.5 C 294.022,237.121 295.356,246.121 294.5,255.5C 287.1,251.47 279.767,247.47 272.5,243.5C 273.1,237.666 271.1,232.666 266.5,228.5C 258.671,221.066 249.338,218.566 238.5,221C 234.073,222.535 230.406,225.035 227.5,228.5C 220.5,234.467 218.167,241.8 220.5,250.5C 212.945,257.933 205.612,265.6 198.5,273.5C 198.333,262.828 198.5,252.161 199,241.5C 204.345,215.656 220.178,201.656 246.5,199.5C 266.864,200.673 281.531,210.339 290.5,228.5 Z"/></g>
<g><path style="opacity:1" fill="#06cffa" d="M 64.5,203.5 C 59.9359,203.55 56.4359,205.55 54,209.5C 49.3163,215.883 46.8163,223.05 46.5,231C 49.5065,259.348 61.5065,283.014 82.5,302C 86.0518,305.273 90.0518,307.773 94.5,309.5C 95.1667,309.833 95.8333,310.167 96.5,310.5C 98.8081,313.815 101.141,317.149 103.5,320.5C 102.259,323.144 100.259,323.977 97.5,323C 82.7778,317.81 69.4445,310.31 57.5,300.5C 36.769,279.489 26.269,254.156 26,224.5C 32.1265,204.363 44.9599,197.363 64.5,203.5 Z"/></g>
<g><path style="opacity:1" fill="#61dafa" d="M 64.5,203.5 C 71.9043,207.073 77.0709,212.74 80,220.5C 78.8115,236.456 78.4782,252.456 79,268.5C 80.8375,279.514 84.3375,289.848 89.5,299.5C 91.1667,302.833 92.8333,306.167 94.5,309.5C 90.0518,307.773 86.0518,305.273 82.5,302C 61.5065,283.014 49.5065,259.348 46.5,231C 46.8163,223.05 49.3163,215.883 54,209.5C 56.4359,205.55 59.9359,203.55 64.5,203.5 Z"/></g>
<g><path style="opacity:1" fill="#feb09e" d="M 268.5,77.5 C 275.5,77.5 282.5,77.5 289.5,77.5C 289.5,78.1667 289.167,78.5 288.5,78.5C 284.246,79.5852 281.413,82.2518 280,86.5C 279.5,98.4954 279.333,110.495 279.5,122.5C 281.735,122.205 283.735,122.539 285.5,123.5C 282.223,123.216 279.057,123.549 276,124.5C 275.333,131.833 275.333,139.167 276,146.5C 277.011,147.337 278.178,147.67 279.5,147.5C 279.334,155.174 279.5,162.841 280,170.5C 283.68,192.064 295.846,206.23 316.5,213C 335.82,216.934 354.153,214.434 371.5,205.5C 371.5,213.167 371.5,220.833 371.5,228.5C 377.167,228.5 382.833,228.5 388.5,228.5C 376.5,242.167 364.5,255.833 352.5,269.5C 351.833,269.5 351.167,269.5 350.5,269.5C 337.915,270.256 325.581,268.922 313.5,265.5C 306.724,262.946 300.391,259.613 294.5,255.5C 295.356,246.121 294.022,237.121 290.5,228.5C 297.167,228.5 303.833,228.5 310.5,228.5C 318.833,228.5 327.167,228.5 335.5,228.5C 335.5,224.167 335.5,219.833 335.5,215.5C 327.167,215.5 318.833,215.5 310.5,215.5C 304.529,214.898 298.529,213.731 292.5,212C 273.456,204.118 262.456,189.951 259.5,169.5C 260.118,156.252 259.452,143.252 257.5,130.5C 259.321,115.867 260.154,100.867 260,85.5C 261.73,81.5699 264.564,78.9032 268.5,77.5 Z"/></g>
<g><path style="opacity:1" fill="#0ccef9" d="M 145.5,217.5 C 138.57,218.915 133.07,222.582 129,228.5C 117.519,244.396 115.519,261.396 123,279.5C 123.21,277.942 123.71,276.609 124.5,275.5C 123.674,282.78 125.007,289.613 128.5,296C 128.333,297.5 127.5,298.333 126,298.5C 118.804,293.458 112.971,287.125 108.5,279.5C 98.1711,255.992 102.504,235.492 121.5,218C 129.589,212.304 137.589,212.138 145.5,217.5 Z"/></g>
<g><path style="opacity:1" fill="#f79580" d="M 310.5,215.5 C 318.833,215.5 327.167,215.5 335.5,215.5C 335.5,219.833 335.5,224.167 335.5,228.5C 327.167,228.5 318.833,228.5 310.5,228.5C 310.5,224.167 310.5,219.833 310.5,215.5 Z"/></g>
<g><path style="opacity:1" fill="#61d9fa" d="M 145.5,217.5 C 148.394,218.882 150.894,220.882 153,223.5C 158.335,233.143 157.169,241.976 149.5,250C 142.222,254.461 135.555,259.628 129.5,265.5C 126.986,268.364 125.32,271.698 124.5,275.5C 123.71,276.609 123.21,277.942 123,279.5C 115.519,261.396 117.519,244.396 129,228.5C 133.07,222.582 138.57,218.915 145.5,217.5 Z"/></g>
<g><path style="opacity:1" fill="#8594dd" d="M 266.5,228.5 C 253.5,228.5 240.5,228.5 227.5,228.5C 230.406,225.035 234.073,222.535 238.5,221C 249.338,218.566 258.671,221.066 266.5,228.5 Z"/></g>
<g><path style="opacity:1" fill="#e0d2ce" d="M 388.5,228.5 C 400.833,228.5 413.167,228.5 425.5,228.5C 425.5,229.167 425.5,229.833 425.5,230.5C 424.262,229.588 422.928,229.421 421.5,230C 410.301,242.695 398.968,255.195 387.5,267.5C 385.447,264.635 382.613,263.302 379,263.5C 370.284,266.016 361.451,268.016 352.5,269.5C 364.5,255.833 376.5,242.167 388.5,228.5 Z"/></g>
<g><path style="opacity:1" fill="#fcaf9f" d="M 227.5,228.5 C 240.5,228.5 253.5,228.5 266.5,228.5C 271.1,232.666 273.1,237.666 272.5,243.5C 253.973,237.609 236.64,239.942 220.5,250.5C 218.167,241.8 220.5,234.467 227.5,228.5 Z"/></g>
<g><path style="opacity:1" fill="#efe1dc" d="M 425.5,230.5 C 436.088,279.106 446.421,327.773 456.5,376.5C 433.833,376.5 411.167,376.5 388.5,376.5C 388.5,371.833 388.5,367.167 388.5,362.5C 388.825,330.76 388.492,299.093 387.5,267.5C 398.968,255.195 410.301,242.695 421.5,230C 422.928,229.421 424.262,229.588 425.5,230.5 Z"/></g>
<g><path style="opacity:1" fill="#f89580" d="M 425.5,228.5 C 431.167,228.5 436.833,228.5 442.5,228.5C 452.151,274.466 461.818,320.466 471.5,366.5C 469.778,374.533 464.778,377.866 456.5,376.5C 446.421,327.773 436.088,279.106 425.5,230.5C 425.5,229.833 425.5,229.167 425.5,228.5 Z"/></g>
<g><path style="opacity:0.996" fill="#feaf9e" d="M 442.5,228.5 C 457.72,226.855 468.553,232.855 475,246.5C 479.488,270.121 484.655,293.454 490.5,316.5C 495.962,342.475 501.295,368.475 506.5,394.5C 505.27,409.227 497.603,418.727 483.5,423C 468.504,423.5 453.504,423.667 438.5,423.5C 416.497,423.333 394.497,423.5 372.5,424C 368.065,427.368 363.065,429.368 357.5,430C 340.503,430.5 323.503,430.667 306.5,430.5C 294.954,424.694 292.12,416.027 298,404.5C 300.478,402.361 302.978,400.361 305.5,398.5C 308.939,398.747 312.272,398.414 315.5,397.5C 321.737,398.886 328.071,398.719 334.5,397C 336,395.5 337.5,394 339,392.5C 342.218,380.79 349.385,372.79 360.5,368.5C 365.876,369.688 370.543,372.188 374.5,376C 379.155,376.499 383.821,376.666 388.5,376.5C 411.167,376.5 433.833,376.5 456.5,376.5C 464.778,377.866 469.778,374.533 471.5,366.5C 461.818,320.466 452.151,274.466 442.5,228.5 Z"/></g>
<g><path style="opacity:1" fill="#fbfbfd" d="M 177.5,241.5 C 180.796,245.298 184.296,248.964 188,252.5C 188.667,253.167 188.667,253.833 188,254.5C 183.622,259.214 178.956,263.547 174,267.5C 170.318,264.984 167.152,261.984 164.5,258.5C 161.779,257.304 160.613,255.304 161,252.5C 165.167,248.333 169.333,244.167 173.5,240C 175.066,239.7 176.399,240.2 177.5,241.5 Z"/></g>
<g><path style="opacity:1" fill="#0aa9f0" d="M 272.5,243.5 C 279.767,247.47 287.1,251.47 294.5,255.5C 300.391,259.613 306.724,262.946 313.5,265.5C 314.458,266.962 315.624,268.295 317,269.5C 317.667,270.5 317.667,271.5 317,272.5C 310.575,278.921 304.909,285.921 300,293.5C 298.685,299.204 300.018,304.204 304,308.5C 309.259,313.087 313.759,318.253 317.5,324C 312.723,330.448 307.556,336.615 302,342.5C 298.754,347.863 298.754,353.197 302,358.5C 304.387,362.388 307.553,365.388 311.5,367.5C 318.977,364.881 326.643,363.048 334.5,362C 330.607,358.61 327.273,354.777 324.5,350.5C 329.48,344.353 334.646,338.353 340,332.5C 342.22,328.405 342.887,324.072 342,319.5C 336.737,311.735 330.904,304.401 324.5,297.5C 329.48,291.353 334.646,285.353 340,279.5C 341.908,276.794 342.741,273.794 342.5,270.5C 345.385,270.806 348.052,270.473 350.5,269.5C 351.167,269.5 351.833,269.5 352.5,269.5C 361.451,268.016 370.284,266.016 379,263.5C 382.613,263.302 385.447,264.635 387.5,267.5C 388.492,299.093 388.825,330.76 388.5,362.5C 386.89,367.087 383.557,369.42 378.5,369.5C 364.696,364.021 350.363,361.854 335.5,363C 336.999,365.328 338.666,367.495 340.5,369.5C 331.028,374.41 324.862,382.076 322,392.5C 320.223,394.79 318.056,396.457 315.5,397.5C 312.272,398.414 308.939,398.747 305.5,398.5C 303.833,398.5 302.167,398.5 300.5,398.5C 301.32,396.86 302.153,395.193 303,393.5C 307.846,387.988 312.68,382.488 317.5,377C 315.333,373.803 312.833,370.97 310,368.5C 306.773,369.864 303.606,371.364 300.5,373C 298.966,375.966 297.8,379.133 297,382.5C 292.488,387.39 287.655,387.724 282.5,383.5C 265.426,392.594 247.76,393.928 229.5,387.5C 222.5,380.833 215.5,374.167 208.5,367.5C 206.632,366.737 204.965,365.737 203.5,364.5C 198.214,357.375 192.714,350.375 187,343.5C 186.5,324.836 186.333,306.17 186.5,287.5C 190.845,283.153 194.845,278.486 198.5,273.5C 205.612,265.6 212.945,257.933 220.5,250.5C 236.64,239.942 253.973,237.609 272.5,243.5 Z"/></g>
<g><path style="opacity:1" fill="#01bff9" d="M 286.5,262.5 C 294.986,262.151 298.82,266.151 298,274.5C 295.647,279.426 291.814,281.26 286.5,280C 278.555,274.17 278.555,268.336 286.5,262.5 Z"/></g>
<g><path style="opacity:1" fill="#07bff9" d="M 313.5,265.5 C 325.581,268.922 337.915,270.256 350.5,269.5C 348.052,270.473 345.385,270.806 342.5,270.5C 342.741,273.794 341.908,276.794 340,279.5C 334.646,285.353 329.48,291.353 324.5,297.5C 330.904,304.401 336.737,311.735 342,319.5C 342.887,324.072 342.22,328.405 340,332.5C 334.646,338.353 329.48,344.353 324.5,350.5C 327.273,354.777 330.607,358.61 334.5,362C 326.643,363.048 318.977,364.881 311.5,367.5C 307.553,365.388 304.387,362.388 302,358.5C 298.754,353.197 298.754,347.863 302,342.5C 307.556,336.615 312.723,330.448 317.5,324C 313.759,318.253 309.259,313.087 304,308.5C 300.018,304.204 298.685,299.204 300,293.5C 304.909,285.921 310.575,278.921 317,272.5C 317.667,271.5 317.667,270.5 317,269.5C 315.624,268.295 314.458,266.962 313.5,265.5 Z"/></g>
<g><path style="opacity:1" fill="#0490cf" d="M 186.5,287.5 C 186.333,306.17 186.5,324.836 187,343.5C 192.714,350.375 198.214,357.375 203.5,364.5C 197.788,364.313 192.121,364.646 186.5,365.5C 186.83,358.468 186.497,351.468 185.5,344.5C 174.254,349.876 162.754,354.542 151,358.5C 145.896,357.892 142.396,355.225 140.5,350.5C 140.5,346.5 140.5,342.5 140.5,338.5C 140.5,332.833 140.5,327.167 140.5,321.5C 140.333,307.829 140.5,294.163 141,280.5C 144.04,274.397 148.874,272.231 155.5,274C 165.816,278.603 176.15,283.103 186.5,287.5 Z"/></g>
<g><path style="opacity:1" fill="#01bff9" d="M 350.5,290.5 C 360.859,290.014 364.692,294.681 362,304.5C 355.775,310.372 350.442,309.705 346,302.5C 344.976,297.548 346.476,293.548 350.5,290.5 Z"/></g>
<g><path style="opacity:0.993" fill="#4e66d0" d="M 57.5,300.5 C 69.4445,310.31 82.7778,317.81 97.5,323C 100.259,323.977 102.259,323.144 103.5,320.5C 101.141,317.149 98.8081,313.815 96.5,310.5C 103.82,313.827 110.487,318.16 116.5,323.5C 93.735,331.771 79.5683,347.771 74,371.5C 73.5002,381.828 73.3335,392.161 73.5,402.5C 63.8373,396.26 53.504,394.26 42.5,396.5C 25.9864,370.785 14.9864,342.785 9.5,312.5C 24.4528,304.428 40.4528,300.428 57.5,300.5 Z"/></g>
<g><path style="opacity:1" fill="#01bff9" d="M 286.5,313.5 C 294.986,313.151 298.82,317.151 298,325.5C 295.647,330.426 291.814,332.26 286.5,331C 278.555,325.17 278.555,319.336 286.5,313.5 Z"/></g>
<g><path style="opacity:1" fill="#0bcefa" d="M 53.5,319.5 C 44.4838,324.233 42.3171,331.233 47,340.5C 48.5579,343.021 50.7245,344.688 53.5,345.5C 41.4843,349.648 34.4843,345.314 32.5,332.5C 34.4843,319.686 41.4843,315.352 53.5,319.5 Z"/></g>
<g><path style="opacity:1" fill="#61d9fa" d="M 53.5,319.5 C 62.4912,324.193 64.6579,331.193 60,340.5C 58.8415,343.493 56.6748,345.16 53.5,345.5C 50.7245,344.688 48.5579,343.021 47,340.5C 42.3171,331.233 44.4838,324.233 53.5,319.5 Z"/></g>
<g><path style="opacity:1" fill="#03cffa" d="M 140.5,321.5 C 140.5,327.167 140.5,332.833 140.5,338.5C 115.256,339.244 99.756,351.911 94,376.5C 93.8322,402.67 93.3322,428.67 92.5,454.5C 85.2018,448.869 78.5352,442.536 72.5,435.5C 73.4946,424.679 73.8279,413.679 73.5,402.5C 73.3335,392.161 73.5002,381.828 74,371.5C 79.5683,347.771 93.735,331.771 116.5,323.5C 124.399,321.839 132.399,321.173 140.5,321.5 Z"/></g>
<g><path style="opacity:0.998" fill="#61dafa" d="M 140.5,338.5 C 140.5,342.5 140.5,346.5 140.5,350.5C 141.097,360.097 140.431,369.43 138.5,378.5C 133.736,380.766 130.569,384.433 129,389.5C 128.5,403.829 128.333,418.163 128.5,432.5C 128.5,448.167 128.5,463.833 128.5,479.5C 115.416,472.633 103.416,464.3 92.5,454.5C 93.3322,428.67 93.8322,402.67 94,376.5C 99.756,351.911 115.256,339.244 140.5,338.5 Z"/></g>
<g><path style="opacity:1" fill="#01bff9" d="M 351.5,341.5 C 361.353,341.51 364.853,346.177 362,355.5C 355.863,361.255 350.53,360.588 346,353.5C 344.873,348.089 346.707,344.089 351.5,341.5 Z"/></g>
<g><path style="opacity:1" fill="#027bae" d="M 186.5,365.5 C 178.41,370.923 172.077,377.923 167.5,386.5C 161.373,390.489 154.706,392.323 147.5,392C 145.376,390.878 143.543,389.378 142,387.5C 141.343,384.092 140.177,381.092 138.5,378.5C 140.431,369.43 141.097,360.097 140.5,350.5C 142.396,355.225 145.896,357.892 151,358.5C 162.754,354.542 174.254,349.876 185.5,344.5C 186.497,351.468 186.83,358.468 186.5,365.5 Z"/></g>
<g><path style="opacity:1" fill="#1991ce" d="M 388.5,362.5 C 388.5,367.167 388.5,371.833 388.5,376.5C 383.821,376.666 379.155,376.499 374.5,376C 370.543,372.188 365.876,369.688 360.5,368.5C 353.783,367.093 347.117,367.426 340.5,369.5C 338.666,367.495 336.999,365.328 335.5,363C 350.363,361.854 364.696,364.021 378.5,369.5C 383.557,369.42 386.89,367.087 388.5,362.5 Z"/></g>
<g><path style="opacity:1" fill="#f69580" d="M 203.5,364.5 C 204.965,365.737 206.632,366.737 208.5,367.5C 202.87,373.631 197.036,379.631 191,385.5C 190.333,387.5 190.333,389.5 191,391.5C 202.339,403.672 213.839,415.672 225.5,427.5C 224.473,429.194 223.139,430.527 221.5,431.5C 217.933,434.132 213.933,434.965 209.5,434C 205.724,432.053 202.39,429.553 199.5,426.5C 189.869,416.368 180.036,406.368 170,396.5C 167.994,393.464 167.16,390.131 167.5,386.5C 172.077,377.923 178.41,370.923 186.5,365.5C 192.121,364.646 197.788,364.313 203.5,364.5 Z"/></g>
<g><path style="opacity:1" fill="#f69581" d="M 360.5,368.5 C 349.385,372.79 342.218,380.79 339,392.5C 337.5,394 336,395.5 334.5,397C 328.071,398.719 321.737,398.886 315.5,397.5C 318.056,396.457 320.223,394.79 322,392.5C 324.862,382.076 331.028,374.41 340.5,369.5C 347.117,367.426 353.783,367.093 360.5,368.5 Z"/></g>
<g><path style="opacity:1" fill="#feaf9d" d="M 208.5,367.5 C 215.5,374.167 222.5,380.833 229.5,387.5C 239.312,398.293 239.979,409.626 231.5,421.5C 229.139,423.194 227.139,425.194 225.5,427.5C 213.839,415.672 202.339,403.672 191,391.5C 190.333,389.5 190.333,387.5 191,385.5C 197.036,379.631 202.87,373.631 208.5,367.5 Z"/></g>
<g><path style="opacity:1" fill="#0890cf" d="M 300.5,398.5 C 285.848,396.633 278.182,402.966 277.5,417.5C 277.719,418.675 277.386,419.675 276.5,420.5C 275.261,420.942 274.261,421.609 273.5,422.5C 259.336,426.793 245.336,426.459 231.5,421.5C 239.979,409.626 239.312,398.293 229.5,387.5C 247.76,393.928 265.426,392.594 282.5,383.5C 287.655,387.724 292.488,387.39 297,382.5C 297.8,379.133 298.966,375.966 300.5,373C 303.606,371.364 306.773,369.864 310,368.5C 312.833,370.97 315.333,373.803 317.5,377C 312.68,382.488 307.846,387.988 303,393.5C 302.153,395.193 301.32,396.86 300.5,398.5 Z"/></g>
<g><path style="opacity:1" fill="#01bff9" d="M 286.5,368.5 C 291.311,367.74 294.978,369.407 297.5,373.5C 297.023,374.478 296.357,375.311 295.5,376C 291.323,378.184 287.157,380.35 283,382.5C 279.135,376.732 280.302,372.066 286.5,368.5 Z"/></g>
<g><path style="opacity:1" fill="#4e66d0" d="M 138.5,378.5 C 140.177,381.092 141.343,384.092 142,387.5C 143.543,389.378 145.376,390.878 147.5,392C 154.706,392.323 161.373,390.489 167.5,386.5C 167.16,390.131 167.994,393.464 170,396.5C 180.036,406.368 189.869,416.368 199.5,426.5C 201.953,438.758 207.953,448.758 217.5,456.5C 215.5,464.5 213.5,472.5 211.5,480.5C 201.944,473.776 191.277,470.776 179.5,471.5C 179.664,468.813 179.497,466.146 179,463.5C 176.739,457.323 174.239,451.323 171.5,445.5C 173.897,436.3 170.897,429.634 162.5,425.5C 154.961,422.938 148.961,424.938 144.5,431.5C 139.12,431.324 133.787,431.658 128.5,432.5C 128.333,418.163 128.5,403.829 129,389.5C 130.569,384.433 133.736,380.766 138.5,378.5 Z"/></g>
<g><path style="opacity:0.975" fill="#02bff9" d="M 73.5,402.5 C 73.8279,413.679 73.4946,424.679 72.5,435.5C 60.9753,423.646 50.9753,410.646 42.5,396.5C 53.504,394.26 63.8373,396.26 73.5,402.5 Z"/></g>
<g><path style="opacity:1" fill="#f69580" d="M 300.5,398.5 C 302.167,398.5 303.833,398.5 305.5,398.5C 302.978,400.361 300.478,402.361 298,404.5C 292.12,416.027 294.954,424.694 306.5,430.5C 301.833,430.5 297.167,430.5 292.5,430.5C 284.688,429.351 279.688,425.018 277.5,417.5C 278.182,402.966 285.848,396.633 300.5,398.5 Z"/></g>
<g><path style="opacity:1" fill="#0c7cae" d="M 277.5,417.5 C 279.688,425.018 284.688,429.351 292.5,430.5C 285.987,452.337 271.32,464.337 248.5,466.5C 236.945,466.759 226.612,463.426 217.5,456.5C 207.953,448.758 201.953,438.758 199.5,426.5C 202.39,429.553 205.724,432.053 209.5,434C 213.933,434.965 217.933,434.132 221.5,431.5C 235.25,449.425 250.75,451.092 268,436.5C 271.23,432.375 273.063,427.708 273.5,422.5C 274.261,421.609 275.261,420.942 276.5,420.5C 277.386,419.675 277.719,418.675 277.5,417.5 Z"/></g>
<g><path style="opacity:1" fill="#e0d4d0" d="M 231.5,421.5 C 245.336,426.459 259.336,426.793 273.5,422.5C 273.063,427.708 271.23,432.375 268,436.5C 250.75,451.092 235.25,449.425 221.5,431.5C 223.139,430.527 224.473,429.194 225.5,427.5C 227.139,425.194 229.139,423.194 231.5,421.5 Z"/></g>
<g><path style="opacity:0.994" fill="#eee1dc" d="M 438.5,423.5 C 402.571,467.327 356.571,495.16 300.5,507C 291.031,508.564 281.698,510.064 272.5,511.5C 261.5,511.5 250.5,511.5 239.5,511.5C 242.63,496.516 245.63,481.516 248.5,466.5C 271.32,464.337 285.987,452.337 292.5,430.5C 297.167,430.5 301.833,430.5 306.5,430.5C 323.503,430.667 340.503,430.5 357.5,430C 363.065,429.368 368.065,427.368 372.5,424C 394.497,423.5 416.497,423.333 438.5,423.5 Z"/></g>
<g><path style="opacity:1" fill="#09cffa" d="M 162.5,425.5 C 150.587,434.798 150.587,444.131 162.5,453.5C 150.775,456.291 144.109,451.624 142.5,439.5C 142.385,436.591 143.051,433.925 144.5,431.5C 148.961,424.938 154.961,422.938 162.5,425.5 Z"/></g>
<g><path style="opacity:1" fill="#60d9fa" d="M 162.5,425.5 C 170.897,429.634 173.897,436.3 171.5,445.5C 169.794,449.535 166.794,452.202 162.5,453.5C 150.587,444.131 150.587,434.798 162.5,425.5 Z"/></g>
<g><path style="opacity:0.993" fill="#02bff9" d="M 144.5,431.5 C 143.051,433.925 142.385,436.591 142.5,439.5C 144.109,451.624 150.775,456.291 162.5,453.5C 166.794,452.202 169.794,449.535 171.5,445.5C 174.239,451.323 176.739,457.323 179,463.5C 179.497,466.146 179.664,468.813 179.5,471.5C 191.277,470.776 201.944,473.776 211.5,480.5C 209.751,489.581 207.751,498.581 205.5,507.5C 178.026,502.9 152.36,493.567 128.5,479.5C 128.5,463.833 128.5,448.167 128.5,432.5C 133.787,431.658 139.12,431.324 144.5,431.5 Z"/></g>
<g><path style="opacity:1" fill="#e0d2ce" d="M 217.5,456.5 C 226.612,463.426 236.945,466.759 248.5,466.5C 245.63,481.516 242.63,496.516 239.5,511.5C 235.833,511.5 232.167,511.5 228.5,511.5C 220.795,510.412 213.129,509.078 205.5,507.5C 207.751,498.581 209.751,489.581 211.5,480.5C 213.5,472.5 215.5,464.5 217.5,456.5 Z"/></g>
</svg>
