<?xml version="1.0" encoding="UTF-8"?>
<!DOCTYPE svg PUBLIC "-//W3C//DTD SVG 1.1//EN" "http://www.w3.org/Graphics/SVG/1.1/DTD/svg11.dtd">
<svg xmlns="http://www.w3.org/2000/svg" version="1.1" width="512px" height="512px" style="shape-rendering:geometricPrecision; text-rendering:geometricPrecision; image-rendering:optimizeQuality; fill-rule:evenodd; clip-rule:evenodd" xmlns:xlink="http://www.w3.org/1999/xlink">
<g><path style="opacity:0.994" fill="#fddf77" d="M 264.5,15.5 C 266.283,20.232 268.949,24.3986 272.5,28C 278.325,30.7453 283.992,33.7453 289.5,37C 292.113,39.7953 292.113,42.6286 289.5,45.5C 283.167,49 276.833,52.5 270.5,56C 268.919,59.0111 267.253,61.8444 265.5,64.5C 262.114,57.396 258.447,50.396 254.5,43.5C 247.433,38.9672 240.099,34.9672 232.5,31.5C 239.599,28.3949 244.266,23.0615 246.5,15.5C 247.739,12.4111 249.239,9.41113 251,6.5C 254,3.83333 257,3.83333 260,6.5C 261.761,9.41113 263.261,12.4111 264.5,15.5 Z"/></g>
<g><path style="opacity:0.99" fill="#2840af" d="M 246.5,15.5 C 244.266,23.0615 239.599,28.3949 232.5,31.5C 227.822,32.9222 223.655,35.2556 220,38.5C 219.333,40.5 219.333,42.5 220,44.5C 226.419,48.2933 232.919,51.96 239.5,55.5C 242.696,59.8959 245.363,64.5625 247.5,69.5C 247.5,79.8333 247.5,90.1667 247.5,100.5C 246.5,100.5 245.5,100.5 244.5,100.5C 220.911,94.0761 207.411,78.7428 204,54.5C 203.535,53.0692 202.701,51.9025 201.5,51C 196.167,50.3333 190.833,50.3333 185.5,51C 185,51.5 184.5,52 184,52.5C 183.731,57.8907 184.231,63.224 185.5,68.5C 158.005,69.4979 130.338,69.8313 102.5,69.5C 144.384,35.9194 192.384,17.9194 246.5,15.5 Z"/></g>
<g><path style="opacity:0.99" fill="#2840af" d="M 264.5,15.5 C 318.616,17.9194 366.616,35.9194 408.5,69.5C 380.48,70.1582 352.813,69.4915 325.5,67.5C 326.876,62.5818 327.376,57.5818 327,52.5C 326.5,52 326,51.5 325.5,51C 320.167,50.3333 314.833,50.3333 309.5,51C 308.299,51.9025 307.465,53.0692 307,54.5C 304.71,74.9036 294.21,89.4036 275.5,98C 272.232,99.1503 268.899,99.9836 265.5,100.5C 263.525,90.5541 262.858,80.2208 263.5,69.5C 264.167,67.8333 264.833,66.1667 265.5,64.5C 267.253,61.8444 268.919,59.0111 270.5,56C 276.833,52.5 283.167,49 289.5,45.5C 292.113,42.6286 292.113,39.7953 289.5,37C 283.992,33.7453 278.325,30.7453 272.5,28C 268.949,24.3986 266.283,20.232 264.5,15.5 Z"/></g>
<g><path style="opacity:1" fill="#fdd05c" d="M 232.5,31.5 C 240.099,34.9672 247.433,38.9672 254.5,43.5C 258.447,50.396 262.114,57.396 265.5,64.5C 264.833,66.1667 264.167,67.8333 263.5,69.5C 262.662,69.8417 262.328,70.5084 262.5,71.5C 257.833,79.5 253.167,79.5 248.5,71.5C 248.672,70.5084 248.338,69.8417 247.5,69.5C 245.363,64.5625 242.696,59.8959 239.5,55.5C 232.919,51.96 226.419,48.2933 220,44.5C 219.333,42.5 219.333,40.5 220,38.5C 223.655,35.2556 227.822,32.9222 232.5,31.5 Z"/></g>
<g><path style="opacity:1" fill="#fbdd77" d="M 244.5,100.5 C 245.568,101.434 246.901,101.768 248.5,101.5C 253.167,101.5 257.833,101.5 262.5,101.5C 263.791,101.737 264.791,101.404 265.5,100.5C 268.899,99.9836 272.232,99.1503 275.5,98C 294.21,89.4036 304.71,74.9036 307,54.5C 307.465,53.0692 308.299,51.9025 309.5,51C 314.833,50.3333 320.167,50.3333 325.5,51C 326,51.5 326.5,52 327,52.5C 327.376,57.5818 326.876,62.5818 325.5,67.5C 324.596,68.209 324.263,69.209 324.5,70.5C 323.224,74.6622 321.557,78.6622 319.5,82.5C 318.554,84.8895 317.221,87.0562 315.5,89C 347.003,89.1676 378.336,89.6676 409.5,90.5C 377.832,90.3334 346.165,90.5 314.5,91C 304.529,105.158 291.196,114.658 274.5,119.5C 267.297,121.243 259.964,121.909 252.5,121.5C 247.025,121.633 241.692,120.966 236.5,119.5C 219.444,114.485 205.777,104.818 195.5,90.5C 195.5,90.1667 195.5,89.8333 195.5,89.5C 193.914,87.3295 192.58,84.9962 191.5,82.5C 189.443,78.6622 187.776,74.6622 186.5,70.5C 186.672,69.5084 186.338,68.8417 185.5,68.5C 184.231,63.224 183.731,57.8907 184,52.5C 184.5,52 185,51.5 185.5,51C 190.833,50.3333 196.167,50.3333 201.5,51C 202.701,51.9025 203.535,53.0692 204,54.5C 207.411,78.7428 220.911,94.0761 244.5,100.5 Z"/></g>
<g><path style="opacity:0.985" fill="#ffd05a" d="M 61.5,69.5 C 74.8333,69.5 88.1667,69.5 101.5,69.5C 129.662,70.498 157.995,70.8313 186.5,70.5C 187.776,74.6622 189.443,78.6622 191.5,82.5C 149.499,82.6667 107.499,82.5 65.5,82C 64.0692,81.5348 62.9025,80.7014 62,79.5C 61.5017,76.1832 61.335,72.8499 61.5,69.5 Z"/></g>
<g><path style="opacity:1" fill="#8c8487" d="M 185.5,68.5 C 186.338,68.8417 186.672,69.5084 186.5,70.5C 157.995,70.8313 129.662,70.498 101.5,69.5C 101.833,69.5 102.167,69.5 102.5,69.5C 130.338,69.8313 158.005,69.4979 185.5,68.5 Z"/></g>
<g><path style="opacity:1" fill="#8d8488" d="M 325.5,67.5 C 352.813,69.4915 380.48,70.1582 408.5,69.5C 408.833,69.5 409.167,69.5 409.5,69.5C 381.338,70.498 353.005,70.8313 324.5,70.5C 324.263,69.209 324.596,68.209 325.5,67.5 Z"/></g>
<g><path style="opacity:0.979" fill="#ffd05a" d="M 409.5,69.5 C 433.502,69.3334 457.502,69.5 481.5,70C 483.34,72.8263 484.006,75.9929 483.5,79.5C 482.317,80.5045 480.984,81.3378 479.5,82C 426.168,82.5 372.834,82.6667 319.5,82.5C 321.557,78.6622 323.224,74.6622 324.5,70.5C 353.005,70.8313 381.338,70.498 409.5,69.5 Z"/></g>
<g><path style="opacity:1" fill="#fec344" d="M 61.5,69.5 C 61.335,72.8499 61.5017,76.1832 62,79.5C 62.9025,80.7014 64.0692,81.5348 65.5,82C 107.499,82.5 149.499,82.6667 191.5,82.5C 192.58,84.9962 193.914,87.3295 195.5,89.5C 156.996,89.1681 118.663,89.5015 80.5,90.5C 79.8333,90.5 79.1667,90.5 78.5,90.5C 62.1633,90.6666 45.8299,90.4999 29.5,90C 29,89.5 28.5,89 28,88.5C 27.3333,82.8333 27.3333,77.1667 28,71.5C 28.5,71 29,70.5 29.5,70C 40.1615,69.5002 50.8281,69.3335 61.5,69.5 Z"/></g>
<g><path style="opacity:1" fill="#92827c" d="M 247.5,69.5 C 248.338,69.8417 248.672,70.5084 248.5,71.5C 248.5,81.5 248.5,91.5 248.5,101.5C 246.901,101.768 245.568,101.434 244.5,100.5C 245.5,100.5 246.5,100.5 247.5,100.5C 247.5,90.1667 247.5,79.8333 247.5,69.5 Z"/></g>
<g><path style="opacity:1" fill="#92827b" d="M 263.5,69.5 C 262.858,80.2208 263.525,90.5541 265.5,100.5C 264.791,101.404 263.791,101.737 262.5,101.5C 262.5,91.5 262.5,81.5 262.5,71.5C 262.328,70.5084 262.662,69.8417 263.5,69.5 Z"/></g>
<g><path style="opacity:1" fill="#ffc344" d="M 248.5,71.5 C 253.167,79.5 257.833,79.5 262.5,71.5C 262.5,81.5 262.5,91.5 262.5,101.5C 257.833,101.5 253.167,101.5 248.5,101.5C 248.5,91.5 248.5,81.5 248.5,71.5 Z"/></g>
<g><path style="opacity:1" fill="#fec344" d="M 483.5,79.5 C 483.665,82.5184 483.498,85.5184 483,88.5C 482.5,89 482,89.5 481.5,90C 465.17,90.4999 448.837,90.6666 432.5,90.5C 428.167,90.5 423.833,90.5 419.5,90.5C 416.167,90.5 412.833,90.5 409.5,90.5C 378.336,89.6676 347.003,89.1676 315.5,89C 317.221,87.0562 318.554,84.8895 319.5,82.5C 372.834,82.6667 426.168,82.5 479.5,82C 480.984,81.3378 482.317,80.5045 483.5,79.5 Z"/></g>
<g><path style="opacity:0.986" fill="#2840af" d="M 78.5,90.5 C 79.1667,90.5 79.8333,90.5 80.5,90.5C 84.1667,90.5 87.8333,90.5 91.5,90.5C 92.038,96.4018 91.2047,102.068 89,107.5C 64.2145,160.735 39.7145,214.069 15.5,267.5C 13.9582,268.301 12.2915,268.634 10.5,268.5C 8.99458,199.649 31.6612,140.316 78.5,90.5 Z"/></g>
<g><path style="opacity:1" fill="#f3c860" d="M 80.5,90.5 C 118.663,89.5015 156.996,89.1681 195.5,89.5C 195.5,89.8333 195.5,90.1667 195.5,90.5C 164.167,90.5 132.833,90.5 101.5,90.5C 100.962,96.4018 101.795,102.068 104,107.5C 128.786,160.735 153.286,214.069 177.5,267.5C 176.081,268.451 174.415,268.784 172.5,268.5C 149.678,218.855 126.845,169.188 104,119.5C 113.295,169.143 122.795,218.81 132.5,268.5C 130.833,268.5 129.167,268.5 127.5,268.5C 117.63,216.075 107.296,163.741 96.5,111.5C 85.7036,163.741 75.3703,216.075 65.5,268.5C 63.8333,268.5 62.1667,268.5 60.5,268.5C 70.2071,218.801 79.7071,169.134 89,119.5C 66.1549,169.188 43.3216,218.855 20.5,268.5C 18.5853,268.784 16.9187,268.451 15.5,267.5C 39.7145,214.069 64.2145,160.735 89,107.5C 91.2047,102.068 92.038,96.4018 91.5,90.5C 87.8333,90.5 84.1667,90.5 80.5,90.5 Z"/></g>
<g><path style="opacity:1" fill="#2840af" d="M 195.5,90.5 C 205.777,104.818 219.444,114.485 236.5,119.5C 236.5,139.5 236.5,159.5 236.5,179.5C 231.036,185.465 225.37,191.298 219.5,197C 211.5,197.333 203.5,197.667 195.5,198C 192.33,203.324 192.997,207.99 197.5,212C 205.167,212.333 212.833,212.667 220.5,213C 226.036,218.369 231.37,223.869 236.5,229.5C 236.5,271.833 236.5,314.167 236.5,356.5C 208.452,350.198 180.785,351.531 153.5,360.5C 151.388,357.25 149.055,354.25 146.5,351.5C 168.54,335.769 181.54,314.436 185.5,287.5C 186.434,286.432 186.768,285.099 186.5,283.5C 189.368,283.915 191.535,282.915 193,280.5C 193.752,277.106 193.585,273.773 192.5,270.5C 191.975,269.808 191.308,269.308 190.5,269C 186.083,268.772 181.75,268.272 177.5,267.5C 153.286,214.069 128.786,160.735 104,107.5C 101.795,102.068 100.962,96.4018 101.5,90.5C 132.833,90.5 164.167,90.5 195.5,90.5 Z"/></g>
<g><path style="opacity:1" fill="#2840af" d="M 409.5,90.5 C 410.038,96.4018 409.205,102.068 407,107.5C 382.214,160.735 357.714,214.069 333.5,267.5C 328.916,268.277 324.25,268.777 319.5,269C 319,269.5 318.5,270 318,270.5C 317.333,274.167 317.333,277.833 318,281.5C 319.789,283.229 321.956,283.896 324.5,283.5C 324.232,285.099 324.566,286.432 325.5,287.5C 327.374,304.234 333.374,319.234 343.5,332.5C 328.847,341.11 315.68,351.777 304,364.5C 303.338,365.984 302.504,367.317 301.5,368.5C 292.793,363.975 283.793,360.309 274.5,357.5C 274.5,314.833 274.5,272.167 274.5,229.5C 279.63,223.869 284.964,218.369 290.5,213C 298.167,212.667 305.833,212.333 313.5,212C 318.389,207.58 318.722,202.913 314.5,198C 306.812,197.831 299.145,197.331 291.5,196.5C 285.479,191.146 279.812,185.479 274.5,179.5C 274.5,159.5 274.5,139.5 274.5,119.5C 291.196,114.658 304.529,105.158 314.5,91C 346.165,90.5 377.832,90.3334 409.5,90.5 Z"/></g>
<g><path style="opacity:1" fill="#f4c960" d="M 409.5,90.5 C 412.833,90.5 416.167,90.5 419.5,90.5C 418.962,96.4018 419.795,102.068 422,107.5C 446.786,160.735 471.286,214.069 495.5,267.5C 494.081,268.451 492.415,268.784 490.5,268.5C 467.678,218.855 444.845,169.188 422,119.5C 431.295,169.143 440.795,218.81 450.5,268.5C 448.833,268.5 447.167,268.5 445.5,268.5C 435.63,216.075 425.296,163.741 414.5,111.5C 403.704,163.741 393.37,216.075 383.5,268.5C 381.833,268.5 380.167,268.5 378.5,268.5C 388.207,218.801 397.707,169.134 407,119.5C 384.155,169.188 361.322,218.855 338.5,268.5C 336.585,268.784 334.919,268.451 333.5,267.5C 357.714,214.069 382.214,160.735 407,107.5C 409.205,102.068 410.038,96.4018 409.5,90.5 Z"/></g>
<g><path style="opacity:0.986" fill="#2840af" d="M 419.5,90.5 C 423.833,90.5 428.167,90.5 432.5,90.5C 479.339,140.316 502.005,199.649 500.5,268.5C 498.708,268.634 497.042,268.301 495.5,267.5C 471.286,214.069 446.786,160.735 422,107.5C 419.795,102.068 418.962,96.4018 419.5,90.5 Z"/></g>
<g><path style="opacity:1" fill="#a0ace5" d="M 344.5,153.5 C 340.723,139.389 331.723,130.722 317.5,127.5C 321.086,125.42 324.253,122.754 327,119.5C 329.724,113.995 332.057,108.328 334,102.5C 335.388,101.446 336.888,101.28 338.5,102C 340.352,111.713 345.019,119.713 352.5,126C 357.844,129.115 363.511,131.448 369.5,133C 370.86,134.938 370.527,136.604 368.5,138C 357.949,139.429 349.949,144.596 344.5,153.5 Z"/></g>
<g><path style="opacity:1" fill="#2a41af" d="M 127.5,268.5 C 106.833,268.5 86.1667,268.5 65.5,268.5C 75.3703,216.075 85.7036,163.741 96.5,111.5C 107.296,163.741 117.63,216.075 127.5,268.5 Z"/></g>
<g><path style="opacity:1" fill="#2a41af" d="M 445.5,268.5 C 425.167,268.5 404.833,268.5 384.5,268.5C 384.167,268.5 383.833,268.5 383.5,268.5C 393.37,216.075 403.704,163.741 414.5,111.5C 425.296,163.741 435.63,216.075 445.5,268.5 Z"/></g>
<g><path style="opacity:1" fill="#ffd15b" d="M 274.5,119.5 C 274.5,139.5 274.5,159.5 274.5,179.5C 270.536,176.037 266.702,172.37 263,168.5C 262.667,160.833 262.333,153.167 262,145.5C 261.5,145 261,144.5 260.5,144C 257.518,143.502 254.518,143.335 251.5,143.5C 252.464,136.254 252.797,128.92 252.5,121.5C 259.964,121.909 267.297,121.243 274.5,119.5 Z"/></g>
<g><path style="opacity:1" fill="#ffc344" d="M 236.5,119.5 C 241.692,120.966 247.025,121.633 252.5,121.5C 252.797,128.92 252.464,136.254 251.5,143.5C 250.206,144.29 249.039,145.29 248,146.5C 247.667,154.167 247.333,161.833 247,169.5C 243.631,173.037 240.131,176.371 236.5,179.5C 236.5,159.5 236.5,139.5 236.5,119.5 Z"/></g>
<g><path style="opacity:1" fill="#2a41af" d="M 60.5,268.5 C 59.8333,268.5 59.1667,268.5 58.5,268.5C 45.8333,268.5 33.1667,268.5 20.5,268.5C 43.3216,218.855 66.1549,169.188 89,119.5C 79.7071,169.134 70.2071,218.801 60.5,268.5 Z"/></g>
<g><path style="opacity:1" fill="#2a41af" d="M 172.5,268.5 C 159.167,268.5 145.833,268.5 132.5,268.5C 122.795,218.81 113.295,169.143 104,119.5C 126.845,169.188 149.678,218.855 172.5,268.5 Z"/></g>
<g><path style="opacity:1" fill="#2a41af" d="M 378.5,268.5 C 365.167,268.5 351.833,268.5 338.5,268.5C 361.322,218.855 384.155,169.188 407,119.5C 397.707,169.134 388.207,218.801 378.5,268.5 Z"/></g>
<g><path style="opacity:1" fill="#2a41af" d="M 490.5,268.5 C 477.167,268.5 463.833,268.5 450.5,268.5C 440.795,218.81 431.295,169.143 422,119.5C 444.845,169.188 467.678,218.855 490.5,268.5 Z"/></g>
<g><path style="opacity:1" fill="#8694dd" d="M 317.5,127.5 C 331.723,130.722 340.723,139.389 344.5,153.5C 341.983,158.214 340.15,163.214 339,168.5C 337.612,169.554 336.112,169.72 334.5,169C 332.271,161.711 329.105,154.877 325,148.5C 318.617,142.975 311.284,139.308 303,137.5C 302.202,135.741 302.369,134.074 303.5,132.5C 308.308,131.135 312.974,129.468 317.5,127.5 Z"/></g>
<g><path style="opacity:1" fill="#f9f8f9" d="M 169.5,138.5 C 171.144,138.286 172.644,138.62 174,139.5C 176.203,149.703 182.369,155.869 192.5,158C 194.527,159.396 194.86,161.062 193.5,163C 188.468,164.598 183.968,167.098 180,170.5C 177.473,174.221 175.473,178.221 174,182.5C 172.333,185.167 170.667,185.167 169,182.5C 167.341,175.994 163.841,170.827 158.5,167C 145.167,163 145.167,159 158.5,155C 164.022,150.803 167.689,145.303 169.5,138.5 Z"/></g>
<g><path style="opacity:1" fill="#fddf76" d="M 251.5,143.5 C 254.518,143.335 257.518,143.502 260.5,144C 261,144.5 261.5,145 262,145.5C 262.333,153.167 262.667,160.833 263,168.5C 266.702,172.37 270.536,176.037 274.5,179.5C 279.812,185.479 285.479,191.146 291.5,196.5C 299.145,197.331 306.812,197.831 314.5,198C 318.722,202.913 318.389,207.58 313.5,212C 305.833,212.333 298.167,212.667 290.5,213C 284.964,218.369 279.63,223.869 274.5,229.5C 270.869,232.629 267.369,235.963 264,239.5C 263.667,247.167 263.333,254.833 263,262.5C 262.167,263.333 261.333,264.167 260.5,265C 257.518,265.498 254.518,265.665 251.5,265.5C 250.206,264.71 249.039,263.71 248,262.5C 247.667,254.833 247.333,247.167 247,239.5C 243.631,235.963 240.131,232.629 236.5,229.5C 231.37,223.869 226.036,218.369 220.5,213C 212.833,212.667 205.167,212.333 197.5,212C 192.997,207.99 192.33,203.324 195.5,198C 203.5,197.667 211.5,197.333 219.5,197C 225.37,191.298 231.036,185.465 236.5,179.5C 240.131,176.371 243.631,173.037 247,169.5C 247.333,161.833 247.667,154.167 248,146.5C 249.039,145.29 250.206,144.29 251.5,143.5 Z"/></g>
<g><path style="opacity:1" fill="#faaf35" d="M 253.5,183.5 C 254.873,183.343 256.207,183.51 257.5,184C 264.415,190.41 270.748,197.243 276.5,204.5C 270.5,212.5 263.5,219.5 255.5,225.5C 247.5,219.5 240.5,212.5 234.5,204.5C 240.456,197.208 246.789,190.208 253.5,183.5 Z"/></g>
<g><path style="opacity:1" fill="#03eda6" d="M 412.5,227.5 C 413.873,227.343 415.207,227.51 416.5,228C 420.682,232.015 424.682,236.182 428.5,240.5C 424.137,245.697 419.303,250.364 414,254.5C 408.833,250.667 404.333,246.167 400.5,241C 404.324,236.343 408.324,231.843 412.5,227.5 Z"/></g>
<g><path style="opacity:1" fill="#04eda6" d="M 96.5,229.5 C 102.676,232.996 108.009,237.663 112.5,243.5C 108.433,248.57 103.767,252.903 98.5,256.5C 93.0373,252.871 88.3706,248.371 84.5,243C 88.3236,238.343 92.3236,233.843 96.5,229.5 Z"/></g>
<g><path style="opacity:1" fill="#ffc344" d="M 236.5,229.5 C 240.131,232.629 243.631,235.963 247,239.5C 247.333,247.167 247.667,254.833 248,262.5C 249.039,263.71 250.206,264.71 251.5,265.5C 252.492,295.426 252.825,325.426 252.5,355.5C 247.167,356.167 241.833,356.833 236.5,357.5C 236.5,357.167 236.5,356.833 236.5,356.5C 236.5,314.167 236.5,271.833 236.5,229.5 Z"/></g>
<g><path style="opacity:1" fill="#ffd15b" d="M 274.5,229.5 C 274.5,272.167 274.5,314.833 274.5,357.5C 273.5,357.5 272.5,357.5 271.5,357.5C 265.3,355.996 258.967,355.33 252.5,355.5C 252.825,325.426 252.492,295.426 251.5,265.5C 254.518,265.665 257.518,265.498 260.5,265C 261.333,264.167 262.167,263.333 263,262.5C 263.333,254.833 263.667,247.167 264,239.5C 267.369,235.963 270.869,232.629 274.5,229.5 Z"/></g>
<g><path style="opacity:1" fill="#fee077" d="M 15.5,267.5 C 16.9187,268.451 18.5853,268.784 20.5,268.5C 33.1667,268.5 45.8333,268.5 58.5,268.5C 56.1058,270.332 55.1058,272.832 55.5,276C 55.1058,279.168 56.1058,281.668 58.5,283.5C 41.1667,283.5 23.8333,283.5 6.5,283.5C 3.81198,283.834 1.47865,283.168 -0.5,281.5C -0.5,277.833 -0.5,274.167 -0.5,270.5C 2.84616,268.676 6.51282,268.01 10.5,268.5C 12.2915,268.634 13.9582,268.301 15.5,267.5 Z"/></g>
<g><path style="opacity:1" fill="#feefac" d="M 177.5,267.5 C 181.75,268.272 186.083,268.772 190.5,269C 191.308,269.308 191.975,269.808 192.5,270.5C 193.585,273.773 193.752,277.106 193,280.5C 191.535,282.915 189.368,283.915 186.5,283.5C 186.768,285.099 186.434,286.432 185.5,287.5C 185.5,286.167 185.5,284.833 185.5,283.5C 144.5,283.5 103.5,283.5 62.5,283.5C 61.1667,283.5 59.8333,283.5 58.5,283.5C 56.1058,281.668 55.1058,279.168 55.5,276C 55.1058,272.832 56.1058,270.332 58.5,268.5C 59.1667,268.5 59.8333,268.5 60.5,268.5C 62.1667,268.5 63.8333,268.5 65.5,268.5C 86.1667,268.5 106.833,268.5 127.5,268.5C 129.167,268.5 130.833,268.5 132.5,268.5C 145.833,268.5 159.167,268.5 172.5,268.5C 174.415,268.784 176.081,268.451 177.5,267.5 Z"/></g>
<g><path style="opacity:1" fill="#fee077" d="M 333.5,267.5 C 334.919,268.451 336.585,268.784 338.5,268.5C 351.833,268.5 365.167,268.5 378.5,268.5C 380.167,268.5 381.833,268.5 383.5,268.5C 383.833,268.5 384.167,268.5 384.5,268.5C 382.106,270.332 381.106,272.832 381.5,276C 381.106,279.168 382.106,281.668 384.5,283.5C 364.833,283.5 345.167,283.5 325.5,283.5C 325.5,284.833 325.5,286.167 325.5,287.5C 324.566,286.432 324.232,285.099 324.5,283.5C 321.956,283.896 319.789,283.229 318,281.5C 317.333,277.833 317.333,274.167 318,270.5C 318.5,270 319,269.5 319.5,269C 324.25,268.777 328.916,268.277 333.5,267.5 Z"/></g>
<g><path style="opacity:0.997" fill="#feefac" d="M 495.5,267.5 C 497.042,268.301 498.708,268.634 500.5,268.5C 504.487,268.01 508.154,268.676 511.5,270.5C 511.5,274.167 511.5,277.833 511.5,281.5C 509.521,283.168 507.188,283.834 504.5,283.5C 464.5,283.5 424.5,283.5 384.5,283.5C 382.106,281.668 381.106,279.168 381.5,276C 381.106,272.832 382.106,270.332 384.5,268.5C 404.833,268.5 425.167,268.5 445.5,268.5C 447.167,268.5 448.833,268.5 450.5,268.5C 463.833,268.5 477.167,268.5 490.5,268.5C 492.415,268.784 494.081,268.451 495.5,267.5 Z"/></g>
<g><path style="opacity:1" fill="#fed05b" d="M 6.5,283.5 C 23.8333,283.5 41.1667,283.5 58.5,283.5C 59.8333,283.5 61.1667,283.5 62.5,283.5C 62.8333,287.5 63.1667,291.5 63.5,295.5C 53.8276,295.334 44.1609,295.5 34.5,296C 31.0393,298.987 30.5393,302.487 33,306.5C 46.5599,331.694 67.7266,345.194 96.5,347C 104.839,352.991 113.506,358.158 122.5,362.5C 117.536,363.657 112.536,364.657 107.5,365.5C 105.833,365.5 104.167,365.5 102.5,365.5C 96.8333,365.5 91.1667,365.5 85.5,365.5C 55.7587,360.977 33.092,345.977 17.5,320.5C 11.2104,308.963 7.54378,296.63 6.5,283.5 Z"/></g>
<g><path style="opacity:1" fill="#fee077" d="M 62.5,283.5 C 103.5,283.5 144.5,283.5 185.5,283.5C 185.5,284.833 185.5,286.167 185.5,287.5C 181.54,314.436 168.54,335.769 146.5,351.5C 138.765,355.7 130.765,359.367 122.5,362.5C 113.506,358.158 104.839,352.991 96.5,347C 67.7266,345.194 46.5599,331.694 33,306.5C 30.5393,302.487 31.0393,298.987 34.5,296C 44.1609,295.5 53.8276,295.334 63.5,295.5C 63.1667,291.5 62.8333,287.5 62.5,283.5 Z"/></g>
<g><path style="opacity:1" fill="#fed05b" d="M 384.5,283.5 C 384.833,287.5 385.167,291.5 385.5,295.5C 374.495,295.333 363.495,295.5 352.5,296C 349.793,297.864 348.959,300.364 350,303.5C 363.652,332.103 386.485,346.603 418.5,347C 426.274,352.884 434.607,357.717 443.5,361.5C 437.593,363.215 431.593,364.548 425.5,365.5C 423.833,365.5 422.167,365.5 420.5,365.5C 414.833,365.5 409.167,365.5 403.5,365.5C 379.185,362.15 359.185,351.15 343.5,332.5C 333.374,319.234 327.374,304.234 325.5,287.5C 325.5,286.167 325.5,284.833 325.5,283.5C 345.167,283.5 364.833,283.5 384.5,283.5 Z"/></g>
<g><path style="opacity:0.998" fill="#fee077" d="M 384.5,283.5 C 424.5,283.5 464.5,283.5 504.5,283.5C 503.456,296.63 499.79,308.963 493.5,320.5C 485.071,333.43 474.404,344.263 461.5,353C 455.595,356.12 449.595,358.954 443.5,361.5C 434.607,357.717 426.274,352.884 418.5,347C 386.485,346.603 363.652,332.103 350,303.5C 348.959,300.364 349.793,297.864 352.5,296C 363.495,295.5 374.495,295.333 385.5,295.5C 385.167,291.5 384.833,287.5 384.5,283.5 Z"/></g>
<g><path style="opacity:1" fill="#ffefac" d="M 64.5,296.5 C 96.1684,296.333 127.835,296.5 159.5,297C 160.804,297.804 161.471,298.971 161.5,300.5C 150.636,327.848 130.469,342.848 101,345.5C 98.0403,345.557 95.207,345.057 92.5,344C 77.9046,331.315 68.5713,315.482 64.5,296.5 Z"/></g>
<g><path style="opacity:1" fill="#ffefac" d="M 386.5,296.5 C 416.835,296.333 447.168,296.5 477.5,297C 478.804,297.804 479.471,298.971 479.5,300.5C 468.905,326.913 449.405,341.913 421,345.5C 418.7,345.506 416.534,345.006 414.5,344C 399.905,331.315 390.571,315.482 386.5,296.5 Z"/></g>
<g><path style="opacity:1" fill="#324dc8" d="M 17.5,320.5 C 33.092,345.977 55.7587,360.977 85.5,365.5C 81.5368,369.964 77.3702,374.298 73,378.5C 72.3333,380.167 72.3333,381.833 73,383.5C 80.1667,390.667 87.3333,397.833 94.5,405C 98.9124,404.797 102.246,402.631 104.5,398.5C 110.754,393.417 116.088,387.583 120.5,381C 120.333,380.167 120.167,379.333 120,378.5C 115.63,374.298 111.463,369.964 107.5,365.5C 112.536,364.657 117.536,363.657 122.5,362.5C 130.765,359.367 138.765,355.7 146.5,351.5C 149.055,354.25 151.388,357.25 153.5,360.5C 180.785,351.531 208.452,350.198 236.5,356.5C 236.5,356.833 236.5,357.167 236.5,357.5C 198.25,368.41 175.916,393.41 169.5,432.5C 155.99,432.171 142.656,432.504 129.5,433.5C 126.012,434.143 123.512,436.143 122,439.5C 121.501,445.491 121.334,451.491 121.5,457.5C 117.629,457.185 113.962,457.518 110.5,458.5C 62.9305,423.885 31.9305,377.885 17.5,320.5 Z"/></g>
<g><path style="opacity:1" fill="#324dc8" d="M 493.5,320.5 C 479.07,377.885 448.07,423.885 400.5,458.5C 396.833,458.5 393.167,458.5 389.5,458.5C 389.666,452.158 389.5,445.825 389,439.5C 387.52,436.183 385.02,434.183 381.5,433.5C 368.098,433.129 354.764,432.129 341.5,430.5C 337.204,403.886 323.871,383.219 301.5,368.5C 302.504,367.317 303.338,365.984 304,364.5C 315.68,351.777 328.847,341.11 343.5,332.5C 359.185,351.15 379.185,362.15 403.5,365.5C 399.537,369.964 395.37,374.298 391,378.5C 390.333,380.167 390.333,381.833 391,383.5C 398.167,390.667 405.333,397.833 412.5,405C 416.912,404.797 420.246,402.631 422.5,398.5C 428.754,393.417 434.088,387.583 438.5,381C 438.333,380.167 438.167,379.333 438,378.5C 433.63,374.298 429.463,369.964 425.5,365.5C 431.593,364.548 437.593,363.215 443.5,361.5C 449.595,358.954 455.595,356.12 461.5,353C 474.404,344.263 485.071,333.43 493.5,320.5 Z"/></g>
<g><path style="opacity:1" fill="#fee079" d="M 252.5,355.5 C 258.967,355.33 265.3,355.996 271.5,357.5C 254.689,361.072 240.356,369.072 228.5,381.5C 213.909,388.924 202.742,399.924 195,414.5C 194.056,417.347 194.556,419.847 196.5,422C 235.499,422.5 274.499,422.667 313.5,422.5C 277.004,423.498 240.337,423.832 203.5,423.5C 203.5,426.5 203.5,429.5 203.5,432.5C 249.5,432.5 295.5,432.5 341.5,432.5C 341.5,432.833 341.5,433.167 341.5,433.5C 284.154,433.801 226.821,433.467 169.5,432.5C 175.916,393.41 198.25,368.41 236.5,357.5C 241.833,356.833 247.167,356.167 252.5,355.5 Z"/></g>
<g><path style="opacity:1" fill="#feefac" d="M 271.5,357.5 C 272.5,357.5 273.5,357.5 274.5,357.5C 283.793,360.309 292.793,363.975 301.5,368.5C 323.871,383.219 337.204,403.886 341.5,430.5C 341.5,431.167 341.5,431.833 341.5,432.5C 295.5,432.5 249.5,432.5 203.5,432.5C 203.5,429.5 203.5,426.5 203.5,423.5C 240.337,423.832 277.004,423.498 313.5,422.5C 315.844,422.021 317.178,420.521 317.5,418C 302.6,386.375 277.6,372.708 242.5,377C 237.712,378.207 233.045,379.707 228.5,381.5C 240.356,369.072 254.689,361.072 271.5,357.5 Z"/></g>
<g><path style="opacity:1" fill="#fee078" d="M 85.5,365.5 C 91.1667,365.5 96.8333,365.5 102.5,365.5C 98.5368,369.964 94.3702,374.298 90,378.5C 89.3333,380.167 89.3333,381.833 90,383.5C 95.0365,388.369 99.8698,393.369 104.5,398.5C 102.246,402.631 98.9124,404.797 94.5,405C 87.3333,397.833 80.1667,390.667 73,383.5C 72.3333,381.833 72.3333,380.167 73,378.5C 77.3702,374.298 81.5368,369.964 85.5,365.5 Z"/></g>
<g><path style="opacity:1" fill="#feefac" d="M 102.5,365.5 C 104.167,365.5 105.833,365.5 107.5,365.5C 111.463,369.964 115.63,374.298 120,378.5C 120.167,379.333 120.333,380.167 120.5,381C 116.088,387.583 110.754,393.417 104.5,398.5C 99.8698,393.369 95.0365,388.369 90,383.5C 89.3333,381.833 89.3333,380.167 90,378.5C 94.3702,374.298 98.5368,369.964 102.5,365.5 Z"/></g>
<g><path style="opacity:1" fill="#fee078" d="M 403.5,365.5 C 409.167,365.5 414.833,365.5 420.5,365.5C 416.537,369.964 412.37,374.298 408,378.5C 407.333,380.167 407.333,381.833 408,383.5C 413.037,388.369 417.87,393.369 422.5,398.5C 420.246,402.631 416.912,404.797 412.5,405C 405.333,397.833 398.167,390.667 391,383.5C 390.333,381.833 390.333,380.167 391,378.5C 395.37,374.298 399.537,369.964 403.5,365.5 Z"/></g>
<g><path style="opacity:1" fill="#feefac" d="M 420.5,365.5 C 422.167,365.5 423.833,365.5 425.5,365.5C 429.463,369.964 433.63,374.298 438,378.5C 438.167,379.333 438.333,380.167 438.5,381C 434.088,387.583 428.754,393.417 422.5,398.5C 417.87,393.369 413.037,388.369 408,383.5C 407.333,381.833 407.333,380.167 408,378.5C 412.37,374.298 416.537,369.964 420.5,365.5 Z"/></g>
<g><path style="opacity:1" fill="#ffd15c" d="M 313.5,422.5 C 274.499,422.667 235.499,422.5 196.5,422C 194.556,419.847 194.056,417.347 195,414.5C 202.742,399.924 213.909,388.924 228.5,381.5C 233.045,379.707 237.712,378.207 242.5,377C 277.6,372.708 302.6,386.375 317.5,418C 317.178,420.521 315.844,422.021 313.5,422.5 Z"/></g>
<g><path style="opacity:1" fill="#ffefaa" d="M 243.5,386.5 C 268.927,383.225 288.927,391.892 303.5,412.5C 271.5,413.833 239.5,413.833 207.5,412.5C 216.311,399.427 228.311,390.76 243.5,386.5 Z"/></g>
<g><path style="opacity:1" fill="#82819e" d="M 341.5,430.5 C 354.764,432.129 368.098,433.129 381.5,433.5C 368.167,433.5 354.833,433.5 341.5,433.5C 341.5,433.167 341.5,432.833 341.5,432.5C 341.5,431.833 341.5,431.167 341.5,430.5 Z"/></g>
<g><path style="opacity:1" fill="#fec244" d="M 129.5,433.5 C 144.837,433.333 160.17,433.5 175.5,434C 173,435.167 171.167,437 170,439.5C 169.501,445.491 169.334,451.491 169.5,457.5C 153.5,457.5 137.5,457.5 121.5,457.5C 121.334,451.491 121.501,445.491 122,439.5C 123.512,436.143 126.012,434.143 129.5,433.5 Z"/></g>
<g><path style="opacity:1" fill="#fecf5a" d="M 129.5,433.5 C 142.656,432.504 155.99,432.171 169.5,432.5C 226.821,433.467 284.154,433.801 341.5,433.5C 354.833,433.5 368.167,433.5 381.5,433.5C 385.02,434.183 387.52,436.183 389,439.5C 389.5,445.825 389.666,452.158 389.5,458.5C 316.5,458.5 243.5,458.5 170.5,458.5C 169.833,458.5 169.5,458.167 169.5,457.5C 169.334,451.491 169.501,445.491 170,439.5C 171.167,437 173,435.167 175.5,434C 160.17,433.5 144.837,433.333 129.5,433.5 Z"/></g>
<g><path style="opacity:0.999" fill="#f6ab31" d="M 121.5,457.5 C 137.5,457.5 153.5,457.5 169.5,457.5C 169.5,458.167 169.833,458.5 170.5,458.5C 204.25,483.201 241.917,498.534 283.5,504.5C 230.747,510.516 181.081,500.683 134.5,475C 125.912,470.218 117.912,464.718 110.5,458.5C 113.962,457.518 117.629,457.185 121.5,457.5 Z"/></g>
<g><path style="opacity:0.993" fill="#fdb036" d="M 170.5,458.5 C 243.5,458.5 316.5,458.5 389.5,458.5C 393.167,458.5 396.833,458.5 400.5,458.5C 365.93,484.601 326.93,499.934 283.5,504.5C 241.917,498.534 204.25,483.201 170.5,458.5 Z"/></g>
</svg>
