<?xml version="1.0" encoding="UTF-8"?>
<!DOCTYPE svg PUBLIC "-//W3C//DTD SVG 1.1//EN" "http://www.w3.org/Graphics/SVG/1.1/DTD/svg11.dtd">
<svg xmlns="http://www.w3.org/2000/svg" version="1.1" width="512px" height="512px" style="shape-rendering:geometricPrecision; text-rendering:geometricPrecision; image-rendering:optimizeQuality; fill-rule:evenodd; clip-rule:evenodd" xmlns:xlink="http://www.w3.org/1999/xlink">
<g><path style="opacity:0.983" fill="#fed05b" d="M 289.5,-0.5 C 292.5,-0.5 295.5,-0.5 298.5,-0.5C 301.54,4.68768 303.207,10.3543 303.5,16.5C 290.752,22.9105 279.752,31.5771 270.5,42.5C 257.685,41.9906 245.018,42.9906 232.5,45.5C 237.052,36.3881 243.052,28.3881 250.5,21.5C 261.563,10.7999 274.563,3.46656 289.5,-0.5 Z"/></g>
<g><path style="opacity:1" fill="#ffe177" d="M 361.5,23.5 C 319.655,23.8651 290.488,43.1984 274,81.5C 272.53,85.3776 271.697,89.3776 271.5,93.5C 274.167,93.5 276.833,93.5 279.5,93.5C 278.081,94.4511 276.415,94.7845 274.5,94.5C 269.093,94.2988 263.76,93.6321 258.5,92.5C 256.83,92.2488 255.33,91.5822 254,90.5C 253.481,79.2407 255.814,68.574 261,58.5C 263.938,52.9462 267.104,47.6129 270.5,42.5C 279.752,31.5771 290.752,22.9105 303.5,16.5C 321.952,8.48492 340.952,6.81825 360.5,11.5C 362.803,15.2776 363.137,19.2776 361.5,23.5 Z"/></g>
<g><path style="opacity:0.996" fill="#2840b0" d="M 250.5,21.5 C 243.052,28.3881 237.052,36.3881 232.5,45.5C 212.652,48.7786 194.319,55.7786 177.5,66.5C 148.202,82.3092 129.035,106.309 120,138.5C 114.191,161.446 121.691,178.279 142.5,189C 152.271,192.416 161.937,192.083 171.5,188C 193.623,177.237 216.623,169.404 240.5,164.5C 285.881,158.962 325.214,171.629 358.5,202.5C 343.133,209.639 329.633,219.639 318,232.5C 307.382,246.071 300.882,261.404 298.5,278.5C 287.781,285.552 279.114,294.552 272.5,305.5C 265.899,294.898 257.565,285.898 247.5,278.5C 249.248,276.84 249.748,274.84 249,272.5C 245.5,269 242,265.5 238.5,262C 236.833,261.333 235.167,261.333 233.5,262C 231.63,264.04 229.63,265.873 227.5,267.5C 221.243,266.019 214.91,265.019 208.5,264.5C 221.606,248.942 228.606,230.942 229.5,210.5C 230.638,207.696 230.805,204.696 230,201.5C 229.097,200.299 227.931,199.465 226.5,199C 194.661,196.944 168.494,208.111 148,232.5C 145.002,236.992 141.835,241.325 138.5,245.5C 136.516,245.617 134.85,244.95 133.5,243.5C 120.105,218.105 99.4388,202.105 71.5,195.5C 64.0716,193.582 56.4049,193.082 48.5,194C 48,194.5 47.5,195 47,195.5C 46.5006,200.823 46.334,206.156 46.5,211.5C 45.8337,207.979 45.1671,204.313 44.5,200.5C 37.9538,195.227 30.6205,191.56 22.5,189.5C 50.6709,109.83 105.004,56.9966 185.5,31C 206.698,24.6146 228.365,21.4479 250.5,21.5 Z"/></g>
<g><path style="opacity:0.998" fill="#feefac" d="M 361.5,23.5 C 360.298,30.1043 358.298,36.4376 355.5,42.5C 351.503,49.1587 347.503,55.8253 343.5,62.5C 334.266,72.3991 323.6,80.3991 311.5,86.5C 306.421,87.9706 301.421,89.6373 296.5,91.5C 290.93,92.8967 285.264,93.5634 279.5,93.5C 276.833,93.5 274.167,93.5 271.5,93.5C 271.697,89.3776 272.53,85.3776 274,81.5C 290.488,43.1984 319.655,23.8651 361.5,23.5 Z"/></g>
<g><path style="opacity:0.992" fill="#2840b0" d="M 355.5,42.5 C 432.231,78.5495 479.397,138.216 497,221.5C 502.721,257.777 501.388,293.777 493,329.5C 491.299,336.107 489.132,342.44 486.5,348.5C 484.737,344.901 482.07,342.068 478.5,340C 462.286,328.941 444.286,323.107 424.5,322.5C 415.924,296.593 398.924,278.926 373.5,269.5C 378.884,263.612 383.718,257.279 388,250.5C 389.584,249.139 391.418,248.472 393.5,248.5C 408.353,276.512 431.353,293.678 462.5,300C 468.5,300.667 474.5,300.667 480.5,300C 481,299.5 481.5,299 482,298.5C 482.499,293.845 482.666,289.179 482.5,284.5C 477.711,241.044 454.378,213.044 412.5,200.5C 418.782,170.313 413.948,141.98 398,115.5C 384.24,93.2395 366.074,75.5728 343.5,62.5C 347.503,55.8253 351.503,49.1587 355.5,42.5 Z"/></g>
<g><path style="opacity:1" fill="#fec244" d="M 270.5,42.5 C 267.104,47.6129 263.938,52.9462 261,58.5C 255.814,68.574 253.481,79.2407 254,90.5C 255.33,91.5822 256.83,92.2488 258.5,92.5C 258.334,98.5092 258.501,104.509 259,110.5C 259.674,111.578 260.674,112.245 262,112.5C 271.331,110.193 275.497,104.193 274.5,94.5C 276.415,94.7845 278.081,94.4511 279.5,93.5C 285.264,93.5634 290.93,92.8967 296.5,91.5C 296.334,96.5111 296.501,101.511 297,106.5C 302.096,108.699 306.429,107.365 310,102.5C 312.552,97.3181 313.052,91.9848 311.5,86.5C 323.6,80.3991 334.266,72.3991 343.5,62.5C 366.074,75.5728 384.24,93.2395 398,115.5C 413.948,141.98 418.782,170.313 412.5,200.5C 409.365,212.601 403.698,223.434 395.5,233C 393.5,233.667 391.5,233.667 389.5,233C 382.937,226.605 376.603,220.105 370.5,213.5C 366.526,209.862 362.526,206.195 358.5,202.5C 325.214,171.629 285.881,158.962 240.5,164.5C 239.042,154.917 234.875,146.583 228,139.5C 233.146,121.603 228.312,107.103 213.5,96C 207.243,92.636 200.577,90.8027 193.5,90.5C 193.242,86.5598 192.076,82.8931 190,79.5C 186.303,74.6377 182.136,70.3043 177.5,66.5C 194.319,55.7786 212.652,48.7786 232.5,45.5C 245.018,42.9906 257.685,41.9906 270.5,42.5 Z"/></g>
<g><path style="opacity:1" fill="#fed05b" d="M 177.5,66.5 C 182.136,70.3043 186.303,74.6377 190,79.5C 192.076,82.8931 193.242,86.5598 193.5,90.5C 200.577,90.8027 207.243,92.636 213.5,96C 228.312,107.103 233.146,121.603 228,139.5C 234.875,146.583 239.042,154.917 240.5,164.5C 216.623,169.404 193.623,177.237 171.5,188C 161.937,192.083 152.271,192.416 142.5,189C 121.691,178.279 114.191,161.446 120,138.5C 129.035,106.309 148.202,82.3092 177.5,66.5 Z"/></g>
<g><path style="opacity:1" fill="#feb238" d="M 311.5,86.5 C 313.052,91.9848 312.552,97.3181 310,102.5C 306.429,107.365 302.096,108.699 297,106.5C 296.501,101.511 296.334,96.5111 296.5,91.5C 301.421,89.6373 306.421,87.9706 311.5,86.5 Z"/></g>
<g><path style="opacity:1" fill="#feb137" d="M 334.5,90.5 C 343.853,90.8414 348.853,95.6747 349.5,105C 349.568,113.693 345.402,119.193 337,121.5C 335.739,121.241 334.739,120.574 334,119.5C 333.194,109.756 333.361,100.089 334.5,90.5 Z"/></g>
<g><path style="opacity:1" fill="#feb137" d="M 258.5,92.5 C 263.76,93.6321 269.093,94.2988 274.5,94.5C 275.497,104.193 271.331,110.193 262,112.5C 260.674,112.245 259.674,111.578 259,110.5C 258.501,104.509 258.334,98.5092 258.5,92.5 Z"/></g>
<g><path style="opacity:1" fill="#feb137" d="M 369.5,117.5 C 378.853,117.841 383.853,122.675 384.5,132C 384.568,140.693 380.402,146.193 372,148.5C 370.739,148.241 369.739,147.574 369,146.5C 368.194,136.756 368.361,127.089 369.5,117.5 Z"/></g>
<g><path style="opacity:1" fill="#feb137" d="M 298.5,118.5 C 307.295,119.628 311.961,124.628 312.5,133.5C 312.629,142.203 308.462,147.537 300,149.5C 298.739,149.241 297.739,148.574 297,147.5C 296.333,138.5 296.333,129.5 297,120.5C 297.717,119.956 298.217,119.289 298.5,118.5 Z"/></g>
<g><path style="opacity:1" fill="#feb137" d="M 260.5,122.5 C 269.531,123.699 274.198,128.866 274.5,138C 274.368,146.462 270.201,151.628 262,153.5C 260.674,153.245 259.674,152.578 259,151.5C 257.902,141.577 258.402,131.91 260.5,122.5 Z"/></g>
<g><path style="opacity:1" fill="#feb137" d="M 334.5,131.5 C 343.853,131.841 348.853,136.675 349.5,146C 349.568,154.693 345.402,160.193 337,162.5C 335.739,162.241 334.739,161.574 334,160.5C 333.194,150.756 333.361,141.089 334.5,131.5 Z"/></g>
<g><path style="opacity:1" fill="#ec826a" d="M 175.5,131.5 C 186.496,131.331 191.996,136.664 192,147.5C 187.908,156.639 181.408,159.139 172.5,155C 163.83,145.859 164.83,138.026 175.5,131.5 Z"/></g>
<g><path style="opacity:1" fill="#05eda6" d="M 82.5,138.5 C 88.0878,142.417 93.0878,147.084 97.5,152.5C 93.1368,157.697 88.3034,162.364 83,166.5C 77.8333,162.667 73.3333,158.167 69.5,153C 73.6573,148.009 77.9906,143.176 82.5,138.5 Z"/></g>
<g><path style="opacity:1" fill="#9fabe4" d="M 456.5,190.5 C 454.22,187.972 452.386,184.972 451,181.5C 446.8,177.512 442.3,174.178 437.5,171.5C 442.665,167.853 445.831,162.853 447,156.5C 448.388,155.446 449.888,155.28 451.5,156C 454.167,166.667 460.833,173.333 471.5,176C 472.833,177.667 472.833,179.333 471.5,181C 465.159,182.164 460.159,185.331 456.5,190.5 Z"/></g>
<g><path style="opacity:1" fill="#feb137" d="M 369.5,158.5 C 378.853,158.841 383.853,163.675 384.5,173C 384.568,181.693 380.402,187.193 372,189.5C 370.739,189.241 369.739,188.574 369,187.5C 368.194,177.756 368.361,168.089 369.5,158.5 Z"/></g>
<g><path style="opacity:1" fill="#8593dd" d="M 437.5,171.5 C 442.3,174.178 446.8,177.512 451,181.5C 452.386,184.972 454.22,187.972 456.5,190.5C 454.74,193.689 453.24,197.022 452,200.5C 450.612,201.554 449.112,201.72 447.5,201C 444.667,190.167 437.833,183.333 427,180.5C 426.28,178.888 426.446,177.388 427.5,176C 430.978,174.76 434.311,173.26 437.5,171.5 Z"/></g>
<g><path style="opacity:1" fill="#9fabe5" d="M 288.5,223.5 C 285.747,212.247 278.747,205.08 267.5,202C 266.748,201.329 266.414,200.496 266.5,199.5C 273.186,194.147 277.353,187.147 279,178.5C 280.494,177.253 281.994,177.253 283.5,178.5C 285.128,185.924 288.461,192.424 293.5,198C 298.758,201.366 304.425,203.866 310.5,205.5C 311.731,206.651 311.731,207.817 310.5,209C 304.884,210.758 299.551,213.092 294.5,216C 291.906,218.086 289.906,220.586 288.5,223.5 Z"/></g>
<g><path style="opacity:1" fill="#314dc8" d="M 22.5,189.5 C 30.6205,191.56 37.9538,195.227 44.5,200.5C 45.1671,204.313 45.8337,207.979 46.5,211.5C 49.8397,244.364 65.8397,268.864 94.5,285C 101.747,288.355 109.081,291.188 116.5,293.5C 109.754,333.43 119.587,368.763 146,399.5C 157.593,412.275 170.76,422.941 185.5,431.5C 175.505,445.007 169.172,460.174 166.5,477C 166.225,480.06 167.558,482.06 170.5,483C 175.085,484.225 179.752,484.725 184.5,484.5C 198.219,485.184 211.385,482.85 224,477.5C 225.011,478.056 225.844,478.722 226.5,479.5C 226.529,484.747 227.863,489.58 230.5,494C 237.376,494.461 243.709,492.961 249.5,489.5C 270.427,481.91 286.093,468.243 296.5,448.5C 316.314,445.082 334.647,438.082 351.5,427.5C 380.789,411.699 399.955,387.699 409,355.5C 414.808,332.549 407.308,315.715 386.5,305C 380.316,302.832 373.983,302.165 367.5,303C 349.728,310.217 331.728,316.883 313.5,323C 304.386,325.251 295.386,327.418 286.5,329.5C 248.754,334.731 214.754,325.898 184.5,303C 179.96,298.954 175.293,295.121 170.5,291.5C 170.369,290.624 170.702,289.957 171.5,289.5C 185.743,283.911 198.077,275.578 208.5,264.5C 214.91,265.019 221.243,266.019 227.5,267.5C 226.207,269.296 224.707,270.963 223,272.5C 222.333,273.833 222.333,275.167 223,276.5C 226.833,280.333 230.667,284.167 234.5,288C 235.5,288.667 236.5,288.667 237.5,288C 240.703,284.629 244.036,281.462 247.5,278.5C 257.565,285.898 265.899,294.898 272.5,305.5C 279.114,294.552 287.781,285.552 298.5,278.5C 298.334,283.179 298.501,287.845 299,292.5C 299.903,293.701 301.069,294.535 302.5,295C 312.129,295.906 321.462,295.072 330.5,292.5C 346.98,288.761 361.313,281.095 373.5,269.5C 398.924,278.926 415.924,296.593 424.5,322.5C 444.286,323.107 462.286,328.941 478.5,340C 482.07,342.068 484.737,344.901 486.5,348.5C 461.602,416.9 415.602,465.4 348.5,494C 325.497,503.095 301.83,508.928 277.5,511.5C 262.833,511.5 248.167,511.5 233.5,511.5C 134.292,498.783 65.1255,446.45 26,354.5C 9.56993,309.543 5.90326,263.543 15,216.5C 16.8009,207.269 19.3009,198.269 22.5,189.5 Z"/></g>
<g><path style="opacity:1" fill="#f7f2f0" d="M 71.5,195.5 C 72.2924,233.115 89.2924,260.448 122.5,277.5C 119.882,282.698 117.882,288.032 116.5,293.5C 109.081,291.188 101.747,288.355 94.5,285C 65.8397,268.864 49.8397,244.364 46.5,211.5C 46.334,206.156 46.5006,200.823 47,195.5C 47.5,195 48,194.5 48.5,194C 56.4049,193.082 64.0716,193.582 71.5,195.5 Z"/></g>
<g><path style="opacity:1" fill="#fefefe" d="M 71.5,195.5 C 99.4388,202.105 120.105,218.105 133.5,243.5C 134.85,244.95 136.516,245.617 138.5,245.5C 141.331,251.476 145.998,253.643 152.5,252C 161.523,240.979 171.856,231.312 183.5,223C 197.729,214.776 213.062,210.609 229.5,210.5C 228.606,230.942 221.606,248.942 208.5,264.5C 198.077,275.578 185.743,283.911 171.5,289.5C 170.702,289.957 170.369,290.624 170.5,291.5C 159.371,282.205 149.038,272.038 139.5,261C 137.5,260.333 135.5,260.333 133.5,261C 128.955,265.927 125.288,271.427 122.5,277.5C 89.2924,260.448 72.2924,233.115 71.5,195.5 Z"/></g>
<g><path style="opacity:1" fill="#f7f1f0" d="M 229.5,210.5 C 213.062,210.609 197.729,214.776 183.5,223C 171.856,231.312 161.523,240.979 152.5,252C 145.998,253.643 141.331,251.476 138.5,245.5C 141.835,241.325 145.002,236.992 148,232.5C 168.494,208.111 194.661,196.944 226.5,199C 227.931,199.465 229.097,200.299 230,201.5C 230.805,204.696 230.638,207.696 229.5,210.5 Z"/></g>
<g><path style="opacity:1" fill="#8593dd" d="M 266.5,199.5 C 266.414,200.496 266.748,201.329 267.5,202C 278.747,205.08 285.747,212.247 288.5,223.5C 286.645,227.726 284.979,232.06 283.5,236.5C 282.277,237.614 280.944,237.781 279.5,237C 276.297,221.797 267.131,212.631 252,209.5C 251.28,207.888 251.446,206.388 252.5,205C 257.393,203.649 262.06,201.815 266.5,199.5 Z"/></g>
<g><path style="opacity:1" fill="#fefefe" d="M 412.5,200.5 C 454.378,213.044 477.711,241.044 482.5,284.5C 455.366,281.854 433.866,269.52 418,247.5C 409.44,240.611 401.274,240.944 393.5,248.5C 391.418,248.472 389.584,249.139 388,250.5C 383.718,257.279 378.884,263.612 373.5,269.5C 361.313,281.095 346.98,288.761 330.5,292.5C 329.5,292.5 328.5,292.5 327.5,292.5C 327.181,259.304 340.514,233.138 367.5,214C 368.448,213.517 369.448,213.351 370.5,213.5C 376.603,220.105 382.937,226.605 389.5,233C 391.5,233.667 393.5,233.667 395.5,233C 403.698,223.434 409.365,212.601 412.5,200.5 Z"/></g>
<g><path style="opacity:1" fill="#f1e9e5" d="M 358.5,202.5 C 362.526,206.195 366.526,209.862 370.5,213.5C 369.448,213.351 368.448,213.517 367.5,214C 340.514,233.138 327.181,259.304 327.5,292.5C 328.5,292.5 329.5,292.5 330.5,292.5C 321.462,295.072 312.129,295.906 302.5,295C 301.069,294.535 299.903,293.701 299,292.5C 298.501,287.845 298.334,283.179 298.5,278.5C 300.882,261.404 307.382,246.071 318,232.5C 329.633,219.639 343.133,209.639 358.5,202.5 Z"/></g>
<g><path style="opacity:1" fill="#f2e9e6" d="M 482.5,284.5 C 482.666,289.179 482.499,293.845 482,298.5C 481.5,299 481,299.5 480.5,300C 474.5,300.667 468.5,300.667 462.5,300C 431.353,293.678 408.353,276.512 393.5,248.5C 401.274,240.944 409.44,240.611 418,247.5C 433.866,269.52 455.366,281.854 482.5,284.5 Z"/></g>
<g><path style="opacity:1" fill="#fec244" d="M 170.5,291.5 C 175.293,295.121 179.96,298.954 184.5,303C 214.754,325.898 248.754,334.731 286.5,329.5C 287.5,329.5 288.5,329.5 289.5,329.5C 290.385,339.767 294.385,348.601 301.5,356C 296.145,377.956 303.811,393.29 324.5,402C 328.114,402.936 331.78,403.436 335.5,403.5C 336.16,407.313 337.326,410.979 339,414.5C 342.697,419.362 346.864,423.696 351.5,427.5C 334.647,438.082 316.314,445.082 296.5,448.5C 283.798,451.349 271.132,452.016 258.5,450.5C 267.464,437.896 273.131,423.896 275.5,408.5C 275.66,406.801 275.494,405.134 275,403.5C 272.52,402.188 270.02,401.188 267.5,400.5C 269.456,394.588 270.123,388.255 269.5,381.5C 258.731,382.608 253.731,388.608 254.5,399.5C 247.001,399.572 239.668,400.572 232.5,402.5C 232.666,397.489 232.499,392.489 232,387.5C 228.858,385.052 225.692,385.219 222.5,388C 216.657,393.401 214.99,399.901 217.5,407.5C 205.402,413.553 194.736,421.553 185.5,431.5C 170.76,422.941 157.593,412.275 146,399.5C 119.587,368.763 109.754,333.43 116.5,293.5C 117.882,288.032 119.882,282.698 122.5,277.5C 125.288,271.427 128.955,265.927 133.5,261C 135.5,260.333 137.5,260.333 139.5,261C 149.038,272.038 159.371,282.205 170.5,291.5 Z"/></g>
<g><path style="opacity:1" fill="#09eba6" d="M 247.5,278.5 C 244.036,281.462 240.703,284.629 237.5,288C 236.5,288.667 235.5,288.667 234.5,288C 230.667,284.167 226.833,280.333 223,276.5C 222.333,275.167 222.333,273.833 223,272.5C 224.707,270.963 226.207,269.296 227.5,267.5C 229.63,265.873 231.63,264.04 233.5,262C 235.167,261.333 236.833,261.333 238.5,262C 242,265.5 245.5,269 249,272.5C 249.748,274.84 249.248,276.84 247.5,278.5 Z"/></g>
<g><path style="opacity:1" fill="#fed05b" d="M 351.5,427.5 C 346.864,423.696 342.697,419.362 339,414.5C 337.326,410.979 336.16,407.313 335.5,403.5C 331.78,403.436 328.114,402.936 324.5,402C 303.811,393.29 296.145,377.956 301.5,356C 294.385,348.601 290.385,339.767 289.5,329.5C 288.5,329.5 287.5,329.5 286.5,329.5C 295.386,327.418 304.386,325.251 313.5,323C 331.728,316.883 349.728,310.217 367.5,303C 373.983,302.165 380.316,302.832 386.5,305C 407.308,315.715 414.808,332.549 409,355.5C 399.955,387.699 380.789,411.699 351.5,427.5 Z"/></g>
<g><path style="opacity:1" fill="#feb137" d="M 155.5,304.5 C 157.39,304.297 158.89,304.963 160,306.5C 160.667,315.833 160.667,325.167 160,334.5C 157.123,335.83 154.289,335.664 151.5,334C 143.634,326.828 142.468,318.661 148,309.5C 150.479,307.686 152.979,306.019 155.5,304.5 Z"/></g>
<g><path style="opacity:1" fill="#f8f7f9" d="M 70.5,305.5 C 72.1439,305.286 73.6439,305.62 75,306.5C 77.5,317 84,323.5 94.5,326C 95.8333,327.667 95.8333,329.333 94.5,331C 84.0267,333.473 77.5267,339.973 75,350.5C 73.3333,351.833 71.6667,351.833 70,350.5C 67.5,340 61,333.5 50.5,331C 49.1667,329.333 49.1667,327.667 50.5,326C 61.4215,323.246 68.0881,316.413 70.5,305.5 Z"/></g>
<g><path style="opacity:1" fill="#feb137" d="M 190.5,331.5 C 192.39,331.297 193.89,331.963 195,333.5C 195.667,342.833 195.667,352.167 195,361.5C 192.123,362.83 189.289,362.664 186.5,361C 178.634,353.828 177.468,345.661 183,336.5C 185.479,334.686 187.979,333.019 190.5,331.5 Z"/></g>
<g><path style="opacity:1" fill="#ec826a" d="M 346.5,336.5 C 358.834,337.315 363.667,343.649 361,355.5C 356.675,361.941 350.842,363.774 343.5,361C 333.557,351.494 334.557,343.327 346.5,336.5 Z"/></g>
<g><path style="opacity:1" fill="#feb137" d="M 263.5,340.5 C 265.5,340.5 267.5,340.5 269.5,340.5C 269.666,350.506 269.5,360.506 269,370.5C 261.909,370.927 257.242,367.594 255,360.5C 252.959,351.723 255.793,345.056 263.5,340.5 Z"/></g>
<g><path style="opacity:1" fill="#feb137" d="M 226.5,344.5 C 228.722,344.178 230.556,344.845 232,346.5C 232.667,355.5 232.667,364.5 232,373.5C 231.044,374.894 229.711,375.561 228,375.5C 216.328,370.463 213.328,362.129 219,350.5C 221.114,347.879 223.614,345.879 226.5,344.5 Z"/></g>
<g><path style="opacity:1" fill="#feb137" d="M 155.5,345.5 C 157.39,345.297 158.89,345.963 160,347.5C 160.667,356.833 160.667,366.167 160,375.5C 157.123,376.83 154.289,376.664 151.5,375C 143.634,367.828 142.468,359.661 148,350.5C 150.479,348.686 152.979,347.019 155.5,345.5 Z"/></g>
<g><path style="opacity:1" fill="#feb137" d="M 190.5,372.5 C 192.39,372.297 193.89,372.963 195,374.5C 195.667,383.833 195.667,393.167 195,402.5C 192.123,403.83 189.289,403.664 186.5,402C 178.634,394.828 177.468,386.661 183,377.5C 185.479,375.686 187.979,374.019 190.5,372.5 Z"/></g>
<g><path style="opacity:1" fill="#feb137" d="M 267.5,400.5 C 263.176,400.073 258.842,399.739 254.5,399.5C 253.731,388.608 258.731,382.608 269.5,381.5C 270.123,388.255 269.456,394.588 267.5,400.5 Z"/></g>
<g><path style="opacity:1" fill="#feb137" d="M 232.5,402.5 C 227.285,403.572 222.285,405.238 217.5,407.5C 214.99,399.901 216.657,393.401 222.5,388C 225.692,385.219 228.858,385.052 232,387.5C 232.499,392.489 232.666,397.489 232.5,402.5 Z"/></g>
<g><path style="opacity:1" fill="#fee077" d="M 254.5,399.5 C 258.842,399.739 263.176,400.073 267.5,400.5C 270.02,401.188 272.52,402.188 275,403.5C 275.494,405.134 275.66,406.801 275.5,408.5C 240.463,407.765 213.63,422.098 195,451.5C 188.776,461.67 185.276,472.67 184.5,484.5C 179.752,484.725 175.085,484.225 170.5,483C 167.558,482.06 166.225,480.06 166.5,477C 169.172,460.174 175.505,445.007 185.5,431.5C 194.736,421.553 205.402,413.553 217.5,407.5C 222.285,405.238 227.285,403.572 232.5,402.5C 239.668,400.572 247.001,399.572 254.5,399.5 Z"/></g>
<g><path style="opacity:1" fill="#feefac" d="M 275.5,408.5 C 273.131,423.896 267.464,437.896 258.5,450.5C 254.528,454.807 250.528,459.141 246.5,463.5C 240.701,468.239 234.368,472.239 227.5,475.5C 226.571,476.689 226.238,478.022 226.5,479.5C 225.844,478.722 225.011,478.056 224,477.5C 211.385,482.85 198.219,485.184 184.5,484.5C 185.276,472.67 188.776,461.67 195,451.5C 213.63,422.098 240.463,407.765 275.5,408.5 Z"/></g>
<g><path style="opacity:1" fill="#f7f3f5" d="M 398.5,400.5 C 399.822,400.33 400.989,400.663 402,401.5C 402.989,406.312 405.156,410.479 408.5,414C 412.387,415.773 416.053,417.773 419.5,420C 416.053,422.227 412.387,424.227 408.5,426C 405.156,429.521 402.989,433.688 402,438.5C 400.667,439.833 399.333,439.833 398,438.5C 396.5,429 391,423.5 381.5,422C 380.167,420.667 380.167,419.333 381.5,418C 391.408,416.259 397.074,410.426 398.5,400.5 Z"/></g>
<g><path style="opacity:1" fill="#fddf77" d="M 296.5,448.5 C 286.093,468.243 270.427,481.91 249.5,489.5C 248.25,480.725 247.25,472.058 246.5,463.5C 250.528,459.141 254.528,454.807 258.5,450.5C 271.132,452.016 283.798,451.349 296.5,448.5 Z"/></g>
<g><path style="opacity:1" fill="#fdd05c" d="M 246.5,463.5 C 247.25,472.058 248.25,480.725 249.5,489.5C 243.709,492.961 237.376,494.461 230.5,494C 227.863,489.58 226.529,484.747 226.5,479.5C 226.238,478.022 226.571,476.689 227.5,475.5C 234.368,472.239 240.701,468.239 246.5,463.5 Z"/></g>
</svg>
