<?xml version="1.0" encoding="UTF-8"?>
<!DOCTYPE svg PUBLIC "-//W3C//DTD SVG 1.1//EN" "http://www.w3.org/Graphics/SVG/1.1/DTD/svg11.dtd">
<svg xmlns="http://www.w3.org/2000/svg" version="1.1" width="128px" height="128px" style="shape-rendering:geometricPrecision; text-rendering:geometricPrecision; image-rendering:optimizeQuality; fill-rule:evenodd; clip-rule:evenodd" xmlns:xlink="http://www.w3.org/1999/xlink">
<g><path style="opacity:1" fill="#f4c55b" d="M 47.5,3.5 C 45.7195,7.7274 44.8862,12.3941 45,17.5C 40.3333,22.8333 35.6667,28.1667 31,33.5C 30.654,35.2182 30.154,36.8849 29.5,38.5C 30.3094,40.0709 30.6427,41.7376 30.5,43.5C 24.448,44.5468 20.1147,47.8801 17.5,53.5C 16.791,54.404 15.791,54.7373 14.5,54.5C 12.8008,54.3398 11.1341,54.5065 9.5,55C 10.731,56.1827 10.731,57.3493 9.5,58.5C 7.92464,57.5435 6.25797,56.8769 4.5,56.5C 2.95047,55.5592 1.2838,54.8925 -0.5,54.5C -0.5,53.5 -0.5,52.5 -0.5,51.5C 1.92095,51.1218 4.25429,50.4552 6.5,49.5C 7.85832,48.3744 9.19165,48.3744 10.5,49.5C 10.2907,50.086 9.95735,50.586 9.5,51C 11.5,51.6667 13.5,51.6667 15.5,51C 18.118,46.3837 21.9514,43.217 27,41.5C 27.3333,38.5 27.6667,35.5 28,32.5C 32.6667,27.1667 37.3333,21.8333 42,16.5C 42.498,13.5184 42.6646,10.5184 42.5,7.5C 42.5,5.5 42.5,3.5 42.5,1.5C 44.7812,1.07729 46.4479,1.74395 47.5,3.5 Z"/></g>
<g><path style="opacity:0.932" fill="#2a44b1" d="M 76.5,3.5 C 76.0472,4.45837 75.3805,5.2917 74.5,6C 71.854,6.49742 69.1873,6.66409 66.5,6.5C 64.1667,6.5 61.8333,6.5 59.5,6.5C 59.3385,10.8441 60.8385,14.5107 64,17.5C 64.49,18.7932 64.6567,20.1266 64.5,21.5C 59.0133,16.9242 53.3467,12.5909 47.5,8.5C 47.4326,7.04125 47.7659,5.70792 48.5,4.5C 57.8146,2.41253 67.1479,2.07919 76.5,3.5 Z"/></g>
<g><path style="opacity:1" fill="#f4d879" d="M 47.5,3.5 C 48.1667,3.5 48.5,3.83333 48.5,4.5C 47.7659,5.70792 47.4326,7.04125 47.5,8.5C 47.5,8.83333 47.5,9.16667 47.5,9.5C 47.8866,14.0803 47.0532,18.4136 45,22.5C 41,26.5 37,30.5 33,34.5C 32.5959,38.3559 32.9292,42.0226 34,45.5C 29.5298,45.7668 25.6964,47.4335 22.5,50.5C 21.6618,50.8417 21.3284,51.5084 21.5,52.5C 20.8333,52.5 20.5,52.8333 20.5,53.5C 19.5,53.5 18.5,53.5 17.5,53.5C 20.1147,47.8801 24.448,44.5468 30.5,43.5C 30.6427,41.7376 30.3094,40.0709 29.5,38.5C 30.154,36.8849 30.654,35.2182 31,33.5C 35.6667,28.1667 40.3333,22.8333 45,17.5C 44.8862,12.3941 45.7195,7.7274 47.5,3.5 Z"/></g>
<g><path style="opacity:0.988" fill="#0ccdfa" d="M 109.5,20.5 C 109.722,23.3903 109.055,26.057 107.5,28.5C 115.941,34.8034 116.608,41.8034 109.5,49.5C 99.8326,50.4891 96.1659,46.1557 98.5,36.5C 102.756,32.0553 102.423,28.0553 97.5,24.5C 95.7481,27.672 93.7481,30.672 91.5,33.5C 89.5784,31.9969 88.4117,29.9969 88,27.5C 84.2491,26.0849 81.4158,23.5849 79.5,20C 77.5273,19.5045 75.5273,19.3379 73.5,19.5C 68.3017,16.7733 65.9684,12.44 66.5,6.5C 69.1873,6.66409 71.854,6.49742 74.5,6C 75.3805,5.2917 76.0472,4.45837 76.5,3.5C 78.2429,2.9144 80.0762,2.58107 82,2.5C 87.3314,3.56941 92.8314,4.40274 98.5,5C 100.79,7.07947 102.457,9.57947 103.5,12.5C 107.418,13.7485 109.418,16.4152 109.5,20.5 Z"/></g>
<g><path style="opacity:1" fill="#06bbf7" d="M 66.5,6.5 C 65.9684,12.44 68.3017,16.7733 73.5,19.5C 69.4877,18.8874 67.4877,20.5541 67.5,24.5C 66.1667,23.8333 65.1667,22.8333 64.5,21.5C 64.6567,20.1266 64.49,18.7932 64,17.5C 60.8385,14.5107 59.3385,10.8441 59.5,6.5C 61.8333,6.5 64.1667,6.5 66.5,6.5 Z"/></g>
<g><path style="opacity:0.964" fill="#2a41af" d="M 42.5,7.5 C 42.6646,10.5184 42.498,13.5184 42,16.5C 37.3333,21.8333 32.6667,27.1667 28,32.5C 27.6667,35.5 27.3333,38.5 27,41.5C 21.9514,43.217 18.118,46.3837 15.5,51C 13.5,51.6667 11.5,51.6667 9.5,51C 9.95735,50.586 10.2907,50.086 10.5,49.5C 9.19165,48.3744 7.85832,48.3744 6.5,49.5C 11.5194,29.429 23.5194,15.429 42.5,7.5 Z"/></g>
<g><path style="opacity:1" fill="#2b42b0" d="M 47.5,9.5 C 54.1667,15.1667 60.8333,20.8333 67.5,26.5C 66.5,30.5 65.5,34.5 64.5,38.5C 66.4672,38.2606 68.3005,38.5939 70,39.5C 70.4523,42.1494 71.2857,44.6494 72.5,47C 75.4816,47.498 78.4816,47.6646 81.5,47.5C 81.5,48.8333 81.5,50.1667 81.5,51.5C 78.8333,51.5 76.1667,51.5 73.5,51.5C 73.1667,51.5 72.8333,51.5 72.5,51.5C 67.759,47.6073 63.0924,47.6073 58.5,51.5C 54.4841,50.2575 50.4841,50.2575 46.5,51.5C 38.3159,51.8257 30.3159,51.4924 22.5,50.5C 25.6964,47.4335 29.5298,45.7668 34,45.5C 32.9292,42.0226 32.5959,38.3559 33,34.5C 37,30.5 41,26.5 45,22.5C 47.0532,18.4136 47.8866,14.0803 47.5,9.5 Z"/></g>
<g><path style="opacity:1" fill="#ced8ef" d="M 47.5,9.5 C 47.5,9.16667 47.5,8.83333 47.5,8.5C 53.3467,12.5909 59.0133,16.9242 64.5,21.5C 65.1667,22.8333 66.1667,23.8333 67.5,24.5C 67.5,25.1667 67.5,25.8333 67.5,26.5C 60.8333,20.8333 54.1667,15.1667 47.5,9.5 Z"/></g>
<g><path style="opacity:1" fill="#fac4b6" d="M 73.5,19.5 C 75.5273,19.3379 77.5273,19.5045 79.5,20C 81.4158,23.5849 84.2491,26.0849 88,27.5C 88.4117,29.9969 89.5784,31.9969 91.5,33.5C 93.7481,30.672 95.7481,27.672 97.5,24.5C 102.423,28.0553 102.756,32.0553 98.5,36.5C 98.1667,36.5 97.8333,36.5 97.5,36.5C 96.1266,36.3433 94.7932,36.51 93.5,37C 92.2668,39.3143 90.9334,41.4809 89.5,43.5C 84.0395,39.2108 78.7061,34.7108 73.5,30C 72.8333,29.3333 72.1667,29.3333 71.5,30C 77.3623,35.0325 83.029,40.1992 88.5,45.5C 86.7028,46.7298 84.7028,47.3964 82.5,47.5C 82.1667,47.5 81.8333,47.5 81.5,47.5C 78.4816,47.6646 75.4816,47.498 72.5,47C 71.2857,44.6494 70.4523,42.1494 70,39.5C 68.3005,38.5939 66.4672,38.2606 64.5,38.5C 65.5,34.5 66.5,30.5 67.5,26.5C 67.5,25.8333 67.5,25.1667 67.5,24.5C 67.4877,20.5541 69.4877,18.8874 73.5,19.5 Z"/></g>
<g><path style="opacity:1" fill="#ec826e" d="M 74.5,21.5 C 75.8333,21.5 77.1667,21.5 78.5,21.5C 78.5,22.8333 78.5,24.1667 78.5,25.5C 75.7531,25.8134 73.0865,25.48 70.5,24.5C 71.6243,23.1408 72.9577,22.1408 74.5,21.5 Z"/></g>
<g><path style="opacity:0.949" fill="#2a43b1" d="M 109.5,20.5 C 117.971,28.4295 123.637,38.0962 126.5,49.5C 120.833,49.5 115.167,49.5 109.5,49.5C 116.608,41.8034 115.941,34.8034 107.5,28.5C 109.055,26.057 109.722,23.3903 109.5,20.5 Z"/></g>
<g><path style="opacity:1" fill="#f1eef3" d="M 50.5,25.5 C 52.2898,29.4527 55.2898,32.286 59.5,34C 55.3333,35.5 52.5,38.3333 51,42.5C 49.5259,38.3592 46.6926,35.5259 42.5,34C 46.7251,32.6089 49.3917,29.7756 50.5,25.5 Z"/></g>
<g><path style="opacity:1" fill="#16dba7" d="M 19.5,32.5 C 24.1972,33.8743 24.5305,35.8743 20.5,38.5C 17.025,36.9158 16.6917,34.9158 19.5,32.5 Z"/></g>
<g><path style="opacity:1" fill="#eadead" d="M 117.5,42.5 C 119.912,42.6941 120.912,44.0274 120.5,46.5C 119.167,46.5 117.833,46.5 116.5,46.5C 116.433,45.0413 116.766,43.7079 117.5,42.5 Z"/></g>
<g><path style="opacity:0.993" fill="#fbeae3" d="M 89.5,43.5 C 91.3914,46.1717 94.0581,47.1717 97.5,46.5C 97.5,43.1667 97.5,39.8333 97.5,36.5C 97.8333,36.5 98.1667,36.5 98.5,36.5C 96.1659,46.1557 99.8326,50.4891 109.5,49.5C 115.167,49.5 120.833,49.5 126.5,49.5C 126.263,50.791 126.596,51.791 127.5,52.5C 127.5,55.5 127.5,58.5 127.5,61.5C 125.167,61.5 122.833,61.5 120.5,61.5C 114.158,61.3338 107.825,61.5005 101.5,62C 98.9828,64.2508 95.9828,65.0841 92.5,64.5C 91.209,64.2627 90.209,64.596 89.5,65.5C 86.1951,69.1408 82.8617,72.8075 79.5,76.5C 78.5,76.8333 77.8333,77.5 77.5,78.5C 74.5285,81.8076 71.5285,85.141 68.5,88.5C 61.5,95.8333 54.5,103.167 47.5,110.5C 47.5,109.833 47.5,109.167 47.5,108.5C 54.8405,101.159 61.8405,93.4921 68.5,85.5C 71.0442,84.2921 72.3775,82.2921 72.5,79.5C 74.9806,79.226 76.6473,77.8927 77.5,75.5C 81.498,72.3348 84.998,68.6681 88,64.5C 87.7988,61.2228 87.6321,57.8895 87.5,54.5C 88.2537,51.9773 88.9204,49.3106 89.5,46.5C 89.3764,45.8933 89.0431,45.56 88.5,45.5C 83.029,40.1992 77.3623,35.0325 71.5,30C 72.1667,29.3333 72.8333,29.3333 73.5,30C 78.7061,34.7108 84.0395,39.2108 89.5,43.5 Z"/></g>
<g><path style="opacity:1" fill="#ffa890" d="M 97.5,36.5 C 97.5,39.8333 97.5,43.1667 97.5,46.5C 94.0581,47.1717 91.3914,46.1717 89.5,43.5C 90.9334,41.4809 92.2668,39.3143 93.5,37C 94.7932,36.51 96.1266,36.3433 97.5,36.5 Z"/></g>
<g><path style="opacity:1" fill="#f99e86" d="M 88.5,45.5 C 89.0431,45.56 89.3764,45.8933 89.5,46.5C 88.9204,49.3106 88.2537,51.9773 87.5,54.5C 87.5,53.5 87.5,52.5 87.5,51.5C 85.8333,51.5 84.1667,51.5 82.5,51.5C 82.5,50.1667 82.5,48.8333 82.5,47.5C 84.7028,47.3964 86.7028,46.7298 88.5,45.5 Z"/></g>
<g><path style="opacity:1" fill="#e8bebd" d="M 72.5,51.5 C 67.8333,51.5 63.1667,51.5 58.5,51.5C 63.0924,47.6073 67.759,47.6073 72.5,51.5 Z"/></g>
<g><path style="opacity:1" fill="#917466" d="M 22.5,50.5 C 30.3159,51.4924 38.3159,51.8257 46.5,51.5C 46.5,51.8333 46.5,52.1667 46.5,52.5C 38.1667,52.5 29.8333,52.5 21.5,52.5C 21.3284,51.5084 21.6618,50.8417 22.5,50.5 Z"/></g>
<g><path style="opacity:1" fill="#f1b475" d="M 58.5,51.5 C 63.1667,51.5 67.8333,51.5 72.5,51.5C 72.8333,51.5 73.1667,51.5 73.5,51.5C 73.5,51.8333 73.5,52.1667 73.5,52.5C 64.5,52.5 55.5,52.5 46.5,52.5C 46.5,52.1667 46.5,51.8333 46.5,51.5C 50.4841,50.2575 54.4841,50.2575 58.5,51.5 Z"/></g>
<g><path style="opacity:1" fill="#967471" d="M 81.5,47.5 C 81.8333,47.5 82.1667,47.5 82.5,47.5C 82.5,48.8333 82.5,50.1667 82.5,51.5C 79.7131,52.4767 76.7131,52.81 73.5,52.5C 73.5,52.1667 73.5,51.8333 73.5,51.5C 76.1667,51.5 78.8333,51.5 81.5,51.5C 81.5,50.1667 81.5,48.8333 81.5,47.5 Z"/></g>
<g><path style="opacity:1" fill="#eca12e" d="M 82.5,51.5 C 84.1667,51.5 85.8333,51.5 87.5,51.5C 87.5,52.5 87.5,53.5 87.5,54.5C 65.1213,54.8121 42.788,54.4788 20.5,53.5C 20.5,52.8333 20.8333,52.5 21.5,52.5C 29.8333,52.5 38.1667,52.5 46.5,52.5C 55.5,52.5 64.5,52.5 73.5,52.5C 76.7131,52.81 79.7131,52.4767 82.5,51.5 Z"/></g>
<g><path style="opacity:1" fill="#fdcfc1" d="M 17.5,53.5 C 18.5,53.5 19.5,53.5 20.5,53.5C 42.788,54.4788 65.1213,54.8121 87.5,54.5C 87.6321,57.8895 87.7988,61.2228 88,64.5C 84.998,68.6681 81.498,72.3348 77.5,75.5C 75.396,75.7989 73.396,75.4656 71.5,74.5C 70.1667,69.8333 68.8333,65.1667 67.5,60.5C 66.1667,60.1667 64.8333,59.8333 63.5,59.5C 60.0329,60.3155 56.5329,60.9822 53,61.5C 43.9398,59.3785 34.7731,59.0452 25.5,60.5C 26.1272,61.4168 26.4606,62.4168 26.5,63.5C 27.7143,66.1293 27.7143,68.796 26.5,71.5C 23.9899,71.0535 21.9899,71.7202 20.5,73.5C 18.6481,72.9111 16.8148,72.2444 15,71.5C 12.7274,66.7019 11.7274,61.7019 12,56.5C 12.9947,55.9341 13.828,55.2674 14.5,54.5C 15.791,54.7373 16.791,54.404 17.5,53.5 Z"/></g>
<g><path style="opacity:0.963" fill="#2c42af" d="M 14.5,54.5 C 13.828,55.2674 12.9947,55.9341 12,56.5C 11.7274,61.7019 12.7274,66.7019 15,71.5C 16.8148,72.2444 18.6481,72.9111 20.5,73.5C 22.5191,74.9334 24.6857,76.2668 27,77.5C 27.4974,80.146 27.6641,82.8127 27.5,85.5C 21.1035,84.9617 15.7702,86.9617 11.5,91.5C 5.73073,80.6541 3.39739,68.9875 4.5,56.5C 6.25797,56.8769 7.92464,57.5435 9.5,58.5C 10.731,57.3493 10.731,56.1827 9.5,55C 11.1341,54.5065 12.8008,54.3398 14.5,54.5 Z"/></g>
<g><path style="opacity:1" fill="#fcaf9e" d="M 77.5,75.5 C 76.6473,77.8927 74.9806,79.226 72.5,79.5C 72.3775,82.2921 71.0442,84.2921 68.5,85.5C 67.9759,83.6943 67.3092,82.0276 66.5,80.5C 65.4009,75.1733 64.2343,69.8399 63,64.5C 62.586,64.0426 62.086,63.7093 61.5,63.5C 56.2559,67.2274 50.9226,67.394 45.5,64C 39.1754,63.5005 32.8421,63.3338 26.5,63.5C 26.4606,62.4168 26.1272,61.4168 25.5,60.5C 34.7731,59.0452 43.9398,59.3785 53,61.5C 56.5329,60.9822 60.0329,60.3155 63.5,59.5C 64.8333,59.8333 66.1667,60.1667 67.5,60.5C 68.8333,65.1667 70.1667,69.8333 71.5,74.5C 73.396,75.4656 75.396,75.7989 77.5,75.5 Z"/></g>
<g><path style="opacity:1" fill="#feccbd" d="M 120.5,61.5 C 118.183,70.1001 116.183,78.7668 114.5,87.5C 113.069,88.7804 112.402,90.4471 112.5,92.5C 107.436,91.9092 102.769,92.9092 98.5,95.5C 96.5,95.5 94.5,95.5 92.5,95.5C 92.2606,93.5328 92.5939,91.6995 93.5,90C 96.8168,89.5017 100.15,89.335 103.5,89.5C 103.5,88.1667 103.5,86.8333 103.5,85.5C 99.8333,85.5 96.1667,85.5 92.5,85.5C 92.2606,83.5328 92.5939,81.6995 93.5,80C 99.8246,79.5005 106.158,79.3338 112.5,79.5C 112.5,78.5 112.5,77.5 112.5,76.5C 106.158,76.6662 99.8246,76.4995 93.5,76C 92.5399,72.27 92.2065,68.4367 92.5,64.5C 95.9828,65.0841 98.9828,64.2508 101.5,62C 107.825,61.5005 114.158,61.3338 120.5,61.5 Z"/></g>
<g><path style="opacity:0.971" fill="#2f43b0" d="M 120.5,61.5 C 122.833,61.5 125.167,61.5 127.5,61.5C 127.5,66.1667 127.5,70.8333 127.5,75.5C 126.117,80.9732 124.117,86.3066 121.5,91.5C 119.628,89.3963 117.295,88.063 114.5,87.5C 116.183,78.7668 118.183,70.1001 120.5,61.5 Z"/></g>
<g><path style="opacity:1" fill="#2a42b0" d="M 26.5,63.5 C 32.8421,63.3338 39.1754,63.5005 45.5,64C 50.9226,67.394 56.2559,67.2274 61.5,63.5C 62.086,63.7093 62.586,64.0426 63,64.5C 64.2343,69.8399 65.4009,75.1733 66.5,80.5C 62.813,84.1886 59.4797,88.1886 56.5,92.5C 51.5012,91.222 46.5012,91.222 41.5,92.5C 38.5361,90.0381 35.7028,87.3714 33,84.5C 32.5959,80.6441 32.9292,76.9774 34,73.5C 31.5092,72.7798 29.0092,72.1131 26.5,71.5C 27.7143,68.796 27.7143,66.1293 26.5,63.5 Z"/></g>
<g><path style="opacity:1" fill="#ffa990" d="M 92.5,64.5 C 92.2065,68.4367 92.5399,72.27 93.5,76C 99.8246,76.4995 106.158,76.6662 112.5,76.5C 112.5,77.5 112.5,78.5 112.5,79.5C 106.158,79.3338 99.8246,79.5005 93.5,80C 92.5939,81.6995 92.2606,83.5328 92.5,85.5C 96.1667,85.5 99.8333,85.5 103.5,85.5C 103.5,86.8333 103.5,88.1667 103.5,89.5C 100.15,89.335 96.8168,89.5017 93.5,90C 92.5939,91.6995 92.2606,93.5328 92.5,95.5C 94.5,95.5 96.5,95.5 98.5,95.5C 96.763,98.0121 94.263,99.0121 91,98.5C 89.1667,98.3333 87.3333,98.1667 85.5,98C 84.944,97.6174 84.6107,97.1174 84.5,96.5C 85.9187,95.5489 87.5853,95.2155 89.5,95.5C 89.5,93.5 89.5,91.5 89.5,89.5C 85.8333,89.5 82.1667,89.5 78.5,89.5C 78.33,88.1779 78.6634,87.0113 79.5,86C 82.8168,85.5017 86.1501,85.335 89.5,85.5C 89.7394,83.5328 89.4061,81.6995 88.5,80C 84.6437,79.8227 80.977,79.3227 77.5,78.5C 77.8333,77.5 78.5,76.8333 79.5,76.5C 82.7766,76.7839 85.9433,76.4505 89,75.5C 89.4983,72.1832 89.665,68.8499 89.5,65.5C 90.209,64.596 91.209,64.2627 92.5,64.5 Z"/></g>
<g><path style="opacity:1" fill="#ffcaba" d="M 89.5,65.5 C 89.665,68.8499 89.4983,72.1832 89,75.5C 85.9433,76.4505 82.7766,76.7839 79.5,76.5C 82.8617,72.8075 86.1951,69.1408 89.5,65.5 Z"/></g>
<g><path style="opacity:1" fill="#e5d9ae" d="M 39.5,67.5 C 44.1972,68.8743 44.5305,70.8743 40.5,73.5C 37.025,71.9158 36.6917,69.9158 39.5,67.5 Z"/></g>
<g><path style="opacity:1" fill="#f6d16b" d="M 26.5,71.5 C 29.0092,72.1131 31.5092,72.7798 34,73.5C 32.9292,76.9774 32.5959,80.6441 33,84.5C 35.7028,87.3714 38.5361,90.0381 41.5,92.5C 46.2833,96.7423 48.2833,102.076 47.5,108.5C 47.5,109.167 47.5,109.833 47.5,110.5C 47.6621,112.527 47.4955,114.527 47,116.5C 45.6667,117.833 44.3333,117.833 43,116.5C 42.6667,111.833 42.3333,107.167 42,102.5C 36.9565,96.9609 32.1232,91.2942 27.5,85.5C 27.6641,82.8127 27.4974,80.146 27,77.5C 24.6857,76.2668 22.5191,74.9334 20.5,73.5C 21.9899,71.7202 23.9899,71.0535 26.5,71.5 Z"/></g>
<g><path style="opacity:1" fill="#41e8b2" d="M 52.5,75.5 C 54.1182,77.785 56.1182,79.785 58.5,81.5C 56.1421,83.0243 54.3088,85.0243 53,87.5C 51.6912,85.0243 49.8579,83.0243 47.5,81.5C 49.914,80.0892 51.5806,78.0892 52.5,75.5 Z"/></g>
<g><path style="opacity:1" fill="#fec8b7" d="M 77.5,78.5 C 80.977,79.3227 84.6437,79.8227 88.5,80C 89.4061,81.6995 89.7394,83.5328 89.5,85.5C 86.1501,85.335 82.8168,85.5017 79.5,86C 78.6634,87.0113 78.33,88.1779 78.5,89.5C 82.1667,89.5 85.8333,89.5 89.5,89.5C 89.5,91.5 89.5,93.5 89.5,95.5C 87.5853,95.2155 85.9187,95.5489 84.5,96.5C 82.4525,94.9255 80.1192,93.9255 77.5,93.5C 74.8333,93.5 72.1667,93.5 69.5,93.5C 69.7845,91.5853 69.4511,89.9187 68.5,88.5C 71.5285,85.141 74.5285,81.8076 77.5,78.5 Z"/></g>
<g><path style="opacity:0.999" fill="#5368cf" d="M 66.5,80.5 C 67.3092,82.0276 67.9759,83.6943 68.5,85.5C 61.8405,93.4921 54.8405,101.159 47.5,108.5C 48.2833,102.076 46.2833,96.7423 41.5,92.5C 46.5012,91.222 51.5012,91.222 56.5,92.5C 59.4797,88.1886 62.813,84.1886 66.5,80.5 Z"/></g>
<g><path style="opacity:0.977" fill="#5066d0" d="M 27.5,85.5 C 32.1232,91.2942 36.9565,96.9609 42,102.5C 42.3333,107.167 42.6667,111.833 43,116.5C 44.3333,117.833 45.6667,117.833 47,116.5C 47.4955,114.527 47.6621,112.527 47.5,110.5C 54.5,103.167 61.5,95.8333 68.5,88.5C 69.4511,89.9187 69.7845,91.5853 69.5,93.5C 68.9033,93.7352 68.5699,94.2352 68.5,95C 69.7107,97.92 71.044,100.753 72.5,103.5C 70.1869,110.753 68.1869,118.086 66.5,125.5C 48.0637,125.526 32.5637,118.859 20,105.5C 16.3906,101.277 13.5572,96.6102 11.5,91.5C 15.7702,86.9617 21.1035,84.9617 27.5,85.5 Z"/></g>
<g><path style="opacity:0.915" fill="#5469cf" d="M 114.5,87.5 C 117.295,88.063 119.628,89.3963 121.5,91.5C 118.96,97.3664 115.293,102.366 110.5,106.5C 109.89,105.609 109.557,104.609 109.5,103.5C 112.071,100.093 113.071,96.426 112.5,92.5C 112.402,90.4471 113.069,88.7804 114.5,87.5 Z"/></g>
<g><path style="opacity:1" fill="#fcdf7a" d="M 69.5,93.5 C 72.1667,93.5 74.8333,93.5 77.5,93.5C 77.9205,97.0075 78.9205,100.341 80.5,103.5C 77.8333,103.5 75.1667,103.5 72.5,103.5C 71.044,100.753 69.7107,97.92 68.5,95C 68.5699,94.2352 68.9033,93.7352 69.5,93.5 Z"/></g>
<g><path style="opacity:1" fill="#feeca5" d="M 112.5,92.5 C 113.071,96.426 112.071,100.093 109.5,103.5C 99.8333,103.5 90.1667,103.5 80.5,103.5C 78.9205,100.341 77.9205,97.0075 77.5,93.5C 80.1192,93.9255 82.4525,94.9255 84.5,96.5C 84.6107,97.1174 84.944,97.6174 85.5,98C 87.3333,98.1667 89.1667,98.3333 91,98.5C 94.263,99.0121 96.763,98.0121 98.5,95.5C 102.769,92.9092 107.436,91.9092 112.5,92.5 Z"/></g>
<g><path style="opacity:1" fill="#eeeffa" d="M 26.5,95.5 C 30.1612,95.3501 31.1612,96.8501 29.5,100C 25.1598,100.205 24.1598,98.7053 26.5,95.5 Z"/></g>
<g><path style="opacity:1" fill="#02bff9" d="M 72.5,103.5 C 75.1667,103.5 77.8333,103.5 80.5,103.5C 78.5106,110.788 76.8439,118.122 75.5,125.5C 72.5,125.5 69.5,125.5 66.5,125.5C 68.1869,118.086 70.1869,110.753 72.5,103.5 Z"/></g>
<g><path style="opacity:0.969" fill="#01cffb" d="M 80.5,103.5 C 90.1667,103.5 99.8333,103.5 109.5,103.5C 109.557,104.609 109.89,105.609 110.5,106.5C 101.051,116.728 89.3846,123.061 75.5,125.5C 76.8439,118.122 78.5106,110.788 80.5,103.5 Z"/></g>
</svg>
