<?xml version="1.0" encoding="UTF-8"?>
<!DOCTYPE svg PUBLIC "-//W3C//DTD SVG 1.1//EN" "http://www.w3.org/Graphics/SVG/1.1/DTD/svg11.dtd">
<svg xmlns="http://www.w3.org/2000/svg" version="1.1" width="512px" height="512px" style="shape-rendering:geometricPrecision; text-rendering:geometricPrecision; image-rendering:optimizeQuality; fill-rule:evenodd; clip-rule:evenodd" xmlns:xlink="http://www.w3.org/1999/xlink">
<g><path style="opacity:0.997" fill="#a0ace5" d="M 201.5,16.5 C 202.766,30.415 210.099,40.2483 223.5,46C 228.707,48.0142 234.04,49.5142 239.5,50.5C 239.5,51.8333 239.5,53.1667 239.5,54.5C 226.508,55.9937 215.841,61.6603 207.5,71.5C 204.769,60.9354 198.769,52.7688 189.5,47C 186.41,45.6366 183.244,44.47 180,43.5C 178.97,43.1639 178.47,42.4972 178.5,41.5C 186.44,35.879 191.107,28.2124 192.5,18.5C 192.838,16.146 193.338,13.8127 194,11.5C 196,8.83333 198,8.83333 200,11.5C 200.352,13.2475 200.852,14.9142 201.5,16.5 Z"/></g>
<g><path style="opacity:0.994" fill="#314dc8" d="M 444.5,99.5 C 438.348,105.13 431.681,110.297 424.5,115C 419.799,117.845 414.799,120.012 409.5,121.5C 407.5,121.833 405.5,122.167 403.5,122.5C 397.5,122.5 391.5,122.5 385.5,122.5C 371.523,107.665 355.19,95.9986 336.5,87.5C 335.702,87.0431 335.369,86.3764 335.5,85.5C 336.458,84.0384 337.624,82.7051 339,81.5C 339.667,80.5 339.667,79.5 339,78.5C 334.833,74.3333 330.667,70.1667 326.5,66C 325.167,65.3333 323.833,65.3333 322.5,66C 318.964,69.7039 315.298,73.2039 311.5,76.5C 299.838,74.4013 288.172,72.2346 276.5,70C 252.472,67.9657 228.806,69.799 205.5,75.5C 206.167,74.1667 206.833,72.8333 207.5,71.5C 215.841,61.6603 226.508,55.9937 239.5,54.5C 239.5,53.1667 239.5,51.8333 239.5,50.5C 234.04,49.5142 228.707,48.0142 223.5,46C 210.099,40.2483 202.766,30.415 201.5,16.5C 282.406,0.226022 354.406,18.3927 417.5,71C 427.07,80.0669 436.07,89.5669 444.5,99.5 Z"/></g>
<g><path style="opacity:0.993" fill="#314dc8" d="M 192.5,18.5 C 191.107,28.2124 186.44,35.879 178.5,41.5C 171.374,45.5998 163.708,48.4331 155.5,50C 154.446,51.3876 154.28,52.8876 155,54.5C 163.633,56.4883 171.8,59.655 179.5,64C 184.592,68.5839 188.258,74.0839 190.5,80.5C 165.629,89.7549 143.962,103.755 125.5,122.5C 119.167,122.5 112.833,122.5 106.5,122.5C 100.431,121.977 94.7648,120.144 89.5,117C 81.0376,111.69 73.0376,105.857 65.5,99.5C 99.5056,59.6514 141.839,32.6514 192.5,18.5 Z"/></g>
<g><path style="opacity:1" fill="#8694dd" d="M 178.5,41.5 C 178.47,42.4972 178.97,43.1639 180,43.5C 183.244,44.47 186.41,45.6366 189.5,47C 198.769,52.7688 204.769,60.9354 207.5,71.5C 206.833,72.8333 206.167,74.1667 205.5,75.5C 202.871,81.8851 200.538,88.3851 198.5,95C 197.216,95.6838 196.049,95.5171 195,94.5C 193.791,89.7071 192.291,85.0405 190.5,80.5C 188.258,74.0839 184.592,68.5839 179.5,64C 171.8,59.655 163.633,56.4883 155,54.5C 154.28,52.8876 154.446,51.3876 155.5,50C 163.708,48.4331 171.374,45.5998 178.5,41.5 Z"/></g>
<g><path style="opacity:1" fill="#fed15c" d="M -0.5,56.5 C 1.5273,56.3379 3.5273,56.5045 5.5,57C 18.4107,65.9433 31.0774,75.1099 43.5,84.5C 57.4232,104.27 71.5899,123.937 86,143.5C 95.7627,155.603 108.263,163.103 123.5,166C 116.174,166.5 108.841,166.666 101.5,166.5C 84.4311,164.715 70.5978,157.048 60,143.5C 55.9423,137.33 51.4423,131.663 46.5,126.5C 31.5986,104.599 15.9319,83.2661 -0.5,62.5C -0.5,60.5 -0.5,58.5 -0.5,56.5 Z"/></g>
<g><path style="opacity:1" fill="#fed15c" d="M 511.5,56.5 C 511.5,58.5 511.5,60.5 511.5,62.5C 505.833,69.8333 500.167,77.1667 494.5,84.5C 477.338,96.1445 460.005,107.644 442.5,119C 431.58,122.536 420.58,123.37 409.5,121.5C 414.799,120.012 419.799,117.845 424.5,115C 431.681,110.297 438.348,105.13 444.5,99.5C 464.935,85.5787 485.269,71.412 505.5,57C 507.473,56.5045 509.473,56.3379 511.5,56.5 Z"/></g>
<g><path style="opacity:1" fill="#01efa6" d="M 335.5,85.5 C 332.369,88.1288 329.369,90.9621 326.5,94C 325.167,94.6667 323.833,94.6667 322.5,94C 318.333,89.8333 314.167,85.6667 310,81.5C 309.387,79.5048 309.887,77.8381 311.5,76.5C 315.298,73.2039 318.964,69.7039 322.5,66C 323.833,65.3333 325.167,65.3333 326.5,66C 330.667,70.1667 334.833,74.3333 339,78.5C 339.667,79.5 339.667,80.5 339,81.5C 337.624,82.7051 336.458,84.0384 335.5,85.5 Z"/></g>
<g><path style="opacity:1" fill="#2740b0" d="M 311.5,76.5 C 309.887,77.8381 309.387,79.5048 310,81.5C 314.167,85.6667 318.333,89.8333 322.5,94C 323.833,94.6667 325.167,94.6667 326.5,94C 329.369,90.9621 332.369,88.1288 335.5,85.5C 335.369,86.3764 335.702,87.0431 336.5,87.5C 355.19,95.9986 371.523,107.665 385.5,122.5C 367.164,122.667 348.83,122.5 330.5,122C 322.982,113.572 313.649,108.239 302.5,106C 270.664,105.169 238.997,105.336 207.5,106.5C 196.295,108.27 186.961,113.436 179.5,122C 161.503,122.5 143.503,122.667 125.5,122.5C 143.962,103.755 165.629,89.7549 190.5,80.5C 192.291,85.0405 193.791,89.7071 195,94.5C 196.049,95.5171 197.216,95.6838 198.5,95C 200.538,88.3851 202.871,81.8851 205.5,75.5C 228.806,69.799 252.472,67.9657 276.5,70C 288.172,72.2346 299.838,74.4013 311.5,76.5 Z"/></g>
<g><path style="opacity:0.998" fill="#fee077" d="M 494.5,84.5 C 484.087,98.2398 474.087,112.24 464.5,126.5C 458.996,131.772 454.163,137.772 450,144.5C 439.03,157.991 424.864,165.324 407.5,166.5C 400.313,166.175 393.313,166.509 386.5,167.5C 377.5,167.5 368.5,167.5 359.5,167.5C 350.03,153.175 340.696,138.675 331.5,124C 355.67,123.832 379.67,123.332 403.5,122.5C 405.5,122.167 407.5,121.833 409.5,121.5C 420.58,123.37 431.58,122.536 442.5,119C 460.005,107.644 477.338,96.1445 494.5,84.5 Z"/></g>
<g><path style="opacity:0.999" fill="#fee077" d="M 43.5,84.5 C 50.8333,89.5 58.1667,94.5 65.5,99.5C 73.0376,105.857 81.0376,111.69 89.5,117C 94.7648,120.144 100.431,121.977 106.5,122.5C 130.33,123.332 154.33,123.832 178.5,124C 169.275,138.385 160.275,152.885 151.5,167.5C 140.833,167.5 130.167,167.5 119.5,167.5C 113.31,167.823 107.31,167.49 101.5,166.5C 108.841,166.666 116.174,166.5 123.5,166C 108.263,163.103 95.7627,155.603 86,143.5C 71.5899,123.937 57.4232,104.27 43.5,84.5 Z"/></g>
<g><path style="opacity:1" fill="#eb806b" d="M 207.5,106.5 C 220.504,106.333 233.504,106.5 246.5,107C 236.636,109.513 228.47,114.68 222,122.5C 211.833,138.833 201.667,155.167 191.5,171.5C 188.694,172.168 186.028,172.834 183.5,173.5C 181.847,173.66 180.514,174.326 179.5,175.5C 173.657,180.503 169.824,186.836 168,194.5C 164.508,218.357 173.675,235.19 195.5,245C 197.813,245.662 200.146,246.162 202.5,246.5C 205.992,254.818 209.992,262.818 214.5,270.5C 207.673,284.823 200.34,298.823 192.5,312.5C 185.929,297.69 178.596,283.357 170.5,269.5C 163.085,254.336 155.418,239.336 147.5,224.5C 145.736,219.978 143.736,215.645 141.5,211.5C 137.314,195.092 140.647,180.426 151.5,167.5C 160.275,152.885 169.275,138.385 178.5,124C 154.33,123.832 130.33,123.332 106.5,122.5C 112.833,122.5 119.167,122.5 125.5,122.5C 143.503,122.667 161.503,122.5 179.5,122C 186.961,113.436 196.295,108.27 207.5,106.5 Z"/></g>
<g><path style="opacity:1" fill="#f69480" d="M 207.5,106.5 C 238.997,105.336 270.664,105.169 302.5,106C 313.649,108.239 322.982,113.572 330.5,122C 348.83,122.5 367.164,122.667 385.5,122.5C 391.5,122.5 397.5,122.5 403.5,122.5C 379.67,123.332 355.67,123.832 331.5,124C 340.696,138.675 350.03,153.175 359.5,167.5C 364.056,174.617 367.556,182.283 370,190.5C 370.499,197.514 370.332,204.514 369.5,211.5C 397.685,214.074 419.018,203.408 433.5,179.5C 436.899,180.016 440.232,180.85 443.5,182C 445.891,185.28 446.058,188.78 444,192.5C 441.672,196.98 439.172,201.313 436.5,205.5C 416.119,227.929 391.453,234.429 362.5,225C 354.936,239.059 347.603,253.226 340.5,267.5C 333.123,281.251 325.956,295.251 319,309.5C 318.292,310.381 317.458,311.047 316.5,311.5C 308.422,295.011 300.089,278.677 291.5,262.5C 288.944,255.938 284.277,251.938 277.5,250.5C 262.672,249.339 247.672,249.172 232.5,250C 225.805,251.86 221.138,256.027 218.5,262.5C 217.674,265.485 216.341,268.151 214.5,270.5C 209.992,262.818 205.992,254.818 202.5,246.5C 216.638,248.176 228.805,244.176 239,234.5C 241.174,231.454 241.841,228.12 241,224.5C 238.015,219.689 234.515,215.356 230.5,211.5C 227.769,207.766 224.436,204.766 220.5,202.5C 214.5,195.833 208.167,189.5 201.5,183.5C 197.675,176.358 191.675,173.025 183.5,173.5C 186.028,172.834 188.694,172.168 191.5,171.5C 201.667,155.167 211.833,138.833 222,122.5C 228.47,114.68 236.636,109.513 246.5,107C 233.504,106.5 220.504,106.333 207.5,106.5 Z"/></g>
<g><path style="opacity:0.994" fill="#314dc8" d="M 46.5,126.5 C 51.4423,131.663 55.9423,137.33 60,143.5C 70.5978,157.048 84.4311,164.715 101.5,166.5C 107.31,167.49 113.31,167.823 119.5,167.5C 108.167,170.833 96.8333,174.167 85.5,177.5C 78.6097,178.409 72.1097,180.409 66,183.5C 65.3482,186.594 65.6815,189.594 67,192.5C 69.3279,196.98 71.8279,201.313 74.5,205.5C 72.7824,215.139 71.2824,224.805 70,234.5C 69.6655,236.503 68.8321,238.17 67.5,239.5C 65.0406,243.738 62.5406,248.072 60,252.5C 55.8614,255.486 51.3614,257.82 46.5,259.5C 45.1515,261.611 45.4848,263.445 47.5,265C 51.9475,266.39 55.9475,268.556 59.5,271.5C 62.558,275.785 65.2246,280.285 67.5,285C 68.5768,285.47 69.5768,285.303 70.5,284.5C 75.9487,317.064 88.782,346.397 109,372.5C 116.729,380.724 124.229,389.057 131.5,397.5C 121.473,413.851 111.473,430.184 101.5,446.5C 48.1146,403.419 17.948,347.419 11,278.5C 6.48541,223.899 18.3187,173.232 46.5,126.5 Z"/></g>
<g><path style="opacity:0.995" fill="#314dc8" d="M 464.5,126.5 C 503.796,193.672 511.296,264.338 487,338.5C 471.184,381.842 445.35,417.842 409.5,446.5C 399.473,430.149 389.473,413.816 379.5,397.5C 386.771,389.057 394.271,380.724 402,372.5C 421.956,346.593 434.79,317.593 440.5,285.5C 442.017,285.489 443.184,284.823 444,283.5C 446.5,273 453,266.5 463.5,264C 464.86,262.062 464.527,260.396 462.5,259C 457.699,258.016 453.532,255.85 450,252.5C 447.459,248.072 444.959,243.738 442.5,239.5C 440.121,228.268 438.121,216.934 436.5,205.5C 439.172,201.313 441.672,196.98 444,192.5C 446.058,188.78 445.891,185.28 443.5,182C 440.232,180.85 436.899,180.016 433.5,179.5C 419.499,175.833 405.499,172.166 391.5,168.5C 396.833,167.833 402.167,167.167 407.5,166.5C 424.864,165.324 439.03,157.991 450,144.5C 454.163,137.772 458.996,131.772 464.5,126.5 Z"/></g>
<g><path style="opacity:1" fill="#fedf76" d="M 267.5,145.5 C 271.313,147.908 275.313,150.075 279.5,152C 280.76,153.814 280.76,155.647 279.5,157.5C 275.326,160.088 270.993,162.421 266.5,164.5C 264.89,166.725 263.557,169.059 262.5,171.5C 259.441,167.063 256.608,162.397 254,157.5C 249.019,154.6 244.185,151.6 239.5,148.5C 240.795,147.512 242.128,146.512 243.5,145.5C 247.142,140.903 250.308,135.903 253,130.5C 254.667,129.167 256.333,129.167 258,130.5C 260.692,135.903 263.858,140.903 267.5,145.5 Z"/></g>
<g><path style="opacity:1" fill="#ec806b" d="M 243.5,145.5 C 242.128,146.512 240.795,147.512 239.5,148.5C 236.777,149.352 234.11,150.519 231.5,152C 229.789,153.133 229.289,154.633 230,156.5C 234.258,159.38 238.758,161.88 243.5,164C 247.084,169.165 250.417,174.498 253.5,180C 254.833,180.667 256.167,180.667 257.5,180C 259.052,177.057 260.719,174.223 262.5,171.5C 263.557,169.059 264.89,166.725 266.5,164.5C 270.993,162.421 275.326,160.088 279.5,157.5C 280.76,155.647 280.76,153.814 279.5,152C 275.313,150.075 271.313,147.908 267.5,145.5C 276.991,144.342 286.658,144.175 296.5,145C 299.791,147.332 300.291,150.165 298,153.5C 285.333,168.167 272.667,182.833 260,197.5C 257,200.167 254,200.167 251,197.5C 238.333,182.833 225.667,168.167 213,153.5C 210.709,150.165 211.209,147.332 214.5,145C 224.342,144.175 234.009,144.342 243.5,145.5 Z"/></g>
<g><path style="opacity:1" fill="#fed05c" d="M 239.5,148.5 C 244.185,151.6 249.019,154.6 254,157.5C 256.608,162.397 259.441,167.063 262.5,171.5C 260.719,174.223 259.052,177.057 257.5,180C 256.167,180.667 254.833,180.667 253.5,180C 250.417,174.498 247.084,169.165 243.5,164C 238.758,161.88 234.258,159.38 230,156.5C 229.289,154.633 229.789,153.133 231.5,152C 234.11,150.519 236.777,149.352 239.5,148.5 Z"/></g>
<g><path style="opacity:1" fill="#9a9393" d="M 386.5,167.5 C 393.313,166.509 400.313,166.175 407.5,166.5C 402.167,167.167 396.833,167.833 391.5,168.5C 389.958,167.699 388.292,167.366 386.5,167.5 Z"/></g>
<g><path style="opacity:1" fill="#feaf9d" d="M 119.5,167.5 C 130.167,167.5 140.833,167.5 151.5,167.5C 140.647,180.426 137.314,195.092 141.5,211.5C 115.971,211.275 97.3039,199.942 85.5,177.5C 96.8333,174.167 108.167,170.833 119.5,167.5 Z"/></g>
<g><path style="opacity:1" fill="#feaf9d" d="M 359.5,167.5 C 368.5,167.5 377.5,167.5 386.5,167.5C 388.292,167.366 389.958,167.699 391.5,168.5C 405.499,172.166 419.499,175.833 433.5,179.5C 419.018,203.408 397.685,214.074 369.5,211.5C 370.332,204.514 370.499,197.514 370,190.5C 367.556,182.283 364.056,174.617 359.5,167.5 Z"/></g>
<g><path style="opacity:1" fill="#feddcd" d="M 183.5,173.5 C 191.675,173.025 197.675,176.358 201.5,183.5C 195.569,186.708 193.403,191.708 195,198.5C 198.252,207.044 204.419,210.211 213.5,208C 216.621,207.033 218.954,205.2 220.5,202.5C 224.436,204.766 227.769,207.766 230.5,211.5C 229.969,213.624 228.635,215.124 226.5,216C 209.804,224.302 195.304,221.469 183,207.5C 177.138,197.336 175.971,186.669 179.5,175.5C 180.514,174.326 181.847,173.66 183.5,173.5 Z"/></g>
<g><path style="opacity:1" fill="#feddcd" d="M 334.5,175.5 C 340.673,193.964 335.34,208.13 318.5,218C 305.598,222.813 293.931,220.98 283.5,212.5C 285.9,209.097 288.9,206.43 292.5,204.5C 295.092,207.456 298.426,208.789 302.5,208.5C 311.481,208.185 316.148,203.519 316.5,194.5C 316.403,190.306 314.737,186.973 311.5,184.5C 315.045,179.789 319.379,175.955 324.5,173C 328.368,172.028 331.701,172.861 334.5,175.5 Z"/></g>
<g><path style="opacity:1" fill="#fea68f" d="M 179.5,175.5 C 175.971,186.669 177.138,197.336 183,207.5C 195.304,221.469 209.804,224.302 226.5,216C 228.635,215.124 229.969,213.624 230.5,211.5C 234.515,215.356 238.015,219.689 241,224.5C 241.841,228.12 241.174,231.454 239,234.5C 228.805,244.176 216.638,248.176 202.5,246.5C 200.146,246.162 197.813,245.662 195.5,245C 173.675,235.19 164.508,218.357 168,194.5C 169.824,186.836 173.657,180.503 179.5,175.5 Z"/></g>
<g><path style="opacity:1" fill="#fea78f" d="M 334.5,175.5 C 335.496,175.414 336.329,175.748 337,176.5C 352.297,198.428 350.464,218.928 331.5,238C 316.605,247.773 300.938,249.107 284.5,242C 270.348,232.62 270.014,222.786 283.5,212.5C 293.931,220.98 305.598,222.813 318.5,218C 335.34,208.13 340.673,193.964 334.5,175.5 Z"/></g>
<g><path style="opacity:1" fill="#f69480" d="M 85.5,177.5 C 97.3039,199.942 115.971,211.275 141.5,211.5C 143.736,215.645 145.736,219.978 147.5,224.5C 118.89,234.292 94.5569,227.959 74.5,205.5C 71.8279,201.313 69.3279,196.98 67,192.5C 65.6815,189.594 65.3482,186.594 66,183.5C 72.1097,180.409 78.6097,178.409 85.5,177.5 Z"/></g>
<g><path style="opacity:1" fill="#c5725b" d="M 201.5,183.5 C 208.167,189.5 214.5,195.833 220.5,202.5C 218.954,205.2 216.621,207.033 213.5,208C 204.419,210.211 198.252,207.044 195,198.5C 193.403,191.708 195.569,186.708 201.5,183.5 Z"/></g>
<g><path style="opacity:1" fill="#c6735c" d="M 311.5,184.5 C 314.737,186.973 316.403,190.306 316.5,194.5C 316.148,203.519 311.481,208.185 302.5,208.5C 298.426,208.789 295.092,207.456 292.5,204.5C 298.109,197.222 304.442,190.556 311.5,184.5 Z"/></g>
<g><path style="opacity:1" fill="#2840b0" d="M 74.5,205.5 C 94.5569,227.959 118.89,234.292 147.5,224.5C 155.418,239.336 163.085,254.336 170.5,269.5C 167.406,276.025 164.573,282.692 162,289.5C 160.752,296.215 161.752,302.548 165,308.5C 169.384,314.044 173.551,319.711 177.5,325.5C 162.527,349.791 147.194,373.791 131.5,397.5C 124.229,389.057 116.729,380.724 109,372.5C 88.782,346.397 75.9487,317.064 70.5,284.5C 72.9389,273.561 79.6056,266.728 90.5,264C 91.8333,262.667 91.8333,261.333 90.5,260C 80,257.5 73.5,251 71,240.5C 69.9887,239.663 68.8221,239.33 67.5,239.5C 68.8321,238.17 69.6655,236.503 70,234.5C 71.2824,224.805 72.7824,215.139 74.5,205.5 Z"/></g>
<g><path style="opacity:1" fill="#2840b0" d="M 436.5,205.5 C 438.121,216.934 440.121,228.268 442.5,239.5C 441.178,239.33 440.011,239.663 439,240.5C 436.833,250.667 430.667,256.833 420.5,259C 417.833,261 417.833,263 420.5,265C 425.201,266.227 429.368,268.394 433,271.5C 435.782,276.066 438.282,280.733 440.5,285.5C 434.79,317.593 421.956,346.593 402,372.5C 394.271,380.724 386.771,389.057 379.5,397.5C 363.681,373.875 348.348,349.875 333.5,325.5C 337.449,319.711 341.616,314.044 346,308.5C 349.151,302.512 350.151,296.179 349,289.5C 345.869,282.246 343.036,274.913 340.5,267.5C 347.603,253.226 354.936,239.059 362.5,225C 391.453,234.429 416.119,227.929 436.5,205.5 Z"/></g>
<g><path style="opacity:1" fill="#f9f8f9" d="M 67.5,239.5 C 68.8221,239.33 69.9887,239.663 71,240.5C 73.5,251 80,257.5 90.5,260C 91.8333,261.333 91.8333,262.667 90.5,264C 79.6056,266.728 72.9389,273.561 70.5,284.5C 69.5768,285.303 68.5768,285.47 67.5,285C 65.2246,280.285 62.558,275.785 59.5,271.5C 55.9475,268.556 51.9475,266.39 47.5,265C 45.4848,263.445 45.1515,261.611 46.5,259.5C 51.3614,257.82 55.8614,255.486 60,252.5C 62.5406,248.072 65.0406,243.738 67.5,239.5 Z"/></g>
<g><path style="opacity:1" fill="#f9f8f9" d="M 442.5,239.5 C 444.959,243.738 447.459,248.072 450,252.5C 453.532,255.85 457.699,258.016 462.5,259C 464.527,260.396 464.86,262.062 463.5,264C 453,266.5 446.5,273 444,283.5C 443.184,284.823 442.017,285.489 440.5,285.5C 438.282,280.733 435.782,276.066 433,271.5C 429.368,268.394 425.201,266.227 420.5,265C 417.833,263 417.833,261 420.5,259C 430.667,256.833 436.833,250.667 439,240.5C 440.011,239.663 441.178,239.33 442.5,239.5 Z"/></g>
<g><path style="opacity:1" fill="#fea68f" d="M 277.5,250.5 C 272.489,250.334 267.489,250.501 262.5,251C 260.695,251.972 259.028,253.139 257.5,254.5C 251.567,264.7 245.9,275.033 240.5,285.5C 233.118,277.786 225.784,270.12 218.5,262.5C 221.138,256.027 225.805,251.86 232.5,250C 247.672,249.172 262.672,249.339 277.5,250.5 Z"/></g>
<g><path style="opacity:1" fill="#ffb09e" d="M 277.5,250.5 C 284.277,251.938 288.944,255.938 291.5,262.5C 280.635,275.022 269.635,287.522 258.5,300C 256.5,300.667 254.5,300.667 252.5,300C 248.635,295.306 244.635,290.806 240.5,286.5C 240.5,286.167 240.5,285.833 240.5,285.5C 245.9,275.033 251.567,264.7 257.5,254.5C 259.028,253.139 260.695,251.972 262.5,251C 267.489,250.501 272.489,250.334 277.5,250.5 Z"/></g>
<g><path style="opacity:1" fill="#feddcd" d="M 218.5,262.5 C 225.784,270.12 233.118,277.786 240.5,285.5C 240.5,285.833 240.5,286.167 240.5,286.5C 233.467,298.895 226.801,311.562 220.5,324.5C 220.167,324.5 219.833,324.5 219.5,324.5C 210.681,322.663 202.847,324.663 196,330.5C 195.333,331.833 195.333,333.167 196,334.5C 207.5,346 219,357.5 230.5,369C 234.293,370.22 236.96,369.053 238.5,365.5C 244.636,372.468 251.302,378.968 258.5,385C 265.826,385.5 273.159,385.666 280.5,385.5C 263.338,386.662 246.005,386.829 228.5,386C 225.554,385.194 222.888,383.861 220.5,382C 213.3,373.969 205.967,366.136 198.5,358.5C 193.837,353.669 189.337,348.669 185,343.5C 183.763,339.94 183.263,336.273 183.5,332.5C 186.5,325.833 189.5,319.167 192.5,312.5C 200.34,298.823 207.673,284.823 214.5,270.5C 216.341,268.151 217.674,265.485 218.5,262.5 Z"/></g>
<g><path style="opacity:1" fill="#feede5" d="M 291.5,262.5 C 300.089,278.677 308.422,295.011 316.5,311.5C 319.909,317.315 323.075,323.315 326,329.5C 326.498,332.482 326.665,335.482 326.5,338.5C 326.245,341.016 325.411,343.35 324,345.5C 312.167,358 300.333,370.5 288.5,383C 286.091,384.707 283.425,385.54 280.5,385.5C 273.159,385.666 265.826,385.5 258.5,385C 251.302,378.968 244.636,372.468 238.5,365.5C 239.301,363.958 239.634,362.292 239.5,360.5C 243.834,343.177 237.501,331.177 220.5,324.5C 226.801,311.562 233.467,298.895 240.5,286.5C 244.635,290.806 248.635,295.306 252.5,300C 254.5,300.667 256.5,300.667 258.5,300C 269.635,287.522 280.635,275.022 291.5,262.5 Z"/></g>
<g><path style="opacity:1" fill="#fdccbe" d="M 170.5,269.5 C 178.596,283.357 185.929,297.69 192.5,312.5C 189.5,319.167 186.5,325.833 183.5,332.5C 181.5,330.167 179.5,327.833 177.5,325.5C 173.551,319.711 169.384,314.044 165,308.5C 161.752,302.548 160.752,296.215 162,289.5C 164.573,282.692 167.406,276.025 170.5,269.5 Z"/></g>
<g><path style="opacity:1" fill="#fdccbe" d="M 340.5,267.5 C 343.036,274.913 345.869,282.246 349,289.5C 350.151,296.179 349.151,302.512 346,308.5C 341.616,314.044 337.449,319.711 333.5,325.5C 331.901,327.604 330.068,329.604 328,331.5C 327.814,334.036 327.314,336.369 326.5,338.5C 326.665,335.482 326.498,332.482 326,329.5C 323.075,323.315 319.909,317.315 316.5,311.5C 317.458,311.047 318.292,310.381 319,309.5C 325.956,295.251 333.123,281.251 340.5,267.5 Z"/></g>
<g><path style="opacity:1" fill="#11e7a7" d="M 125.5,319.5 C 126.873,319.343 128.207,319.51 129.5,320C 134.42,324.414 138.753,329.247 142.5,334.5C 138.5,340.5 133.5,345.5 127.5,349.5C 121.5,345.5 116.5,340.5 112.5,334.5C 116.452,329.212 120.785,324.212 125.5,319.5 Z"/></g>
<g><path style="opacity:1" fill="#9fabe4" d="M 382.5,319.5 C 389.077,323.074 394.41,328.074 398.5,334.5C 394.5,340.5 389.5,345.5 383.5,349.5C 378.167,344.833 373.167,339.833 368.5,334.5C 373.188,329.48 377.855,324.48 382.5,319.5 Z"/></g>
<g><path style="opacity:1" fill="#ec816c" d="M 219.5,324.5 C 218.098,326.483 216.264,328.149 214,329.5C 213.333,331.5 213.333,333.5 214,335.5C 222.368,344.036 230.868,352.369 239.5,360.5C 239.634,362.292 239.301,363.958 238.5,365.5C 236.96,369.053 234.293,370.22 230.5,369C 219,357.5 207.5,346 196,334.5C 195.333,333.167 195.333,331.833 196,330.5C 202.847,324.663 210.681,322.663 219.5,324.5 Z"/></g>
<g><path style="opacity:1" fill="#ec816c" d="M 303.5,324.5 C 299.717,327.68 295.884,331.013 292,334.5C 286.546,342.772 285.046,351.772 287.5,361.5C 279.552,372.944 273.719,371.944 270,358.5C 268.649,334.684 279.816,323.351 303.5,324.5 Z"/></g>
<g><path style="opacity:1" fill="#f79580" d="M 219.5,324.5 C 219.833,324.5 220.167,324.5 220.5,324.5C 237.501,331.177 243.834,343.177 239.5,360.5C 230.868,352.369 222.368,344.036 214,335.5C 213.333,333.5 213.333,331.5 214,329.5C 216.264,328.149 218.098,326.483 219.5,324.5 Z"/></g>
<g><path style="opacity:1" fill="#f79580" d="M 303.5,324.5 C 307.328,325.497 310.828,327.164 314,329.5C 314.667,331.5 314.667,333.5 314,335.5C 305.298,344.369 296.465,353.036 287.5,361.5C 285.046,351.772 286.546,342.772 292,334.5C 295.884,331.013 299.717,327.68 303.5,324.5 Z"/></g>
<g><path style="opacity:1" fill="#eb806b" d="M 177.5,325.5 C 179.5,327.833 181.5,330.167 183.5,332.5C 183.263,336.273 183.763,339.94 185,343.5C 189.337,348.669 193.837,353.669 198.5,358.5C 176.688,393.444 154.855,428.444 133,463.5C 132.241,465.063 131.074,466.063 129.5,466.5C 119.308,460.965 109.975,454.298 101.5,446.5C 111.473,430.184 121.473,413.851 131.5,397.5C 147.194,373.791 162.527,349.791 177.5,325.5 Z"/></g>
<g><path style="opacity:0.998" fill="#f79480" d="M 333.5,325.5 C 348.348,349.875 363.681,373.875 379.5,397.5C 389.473,413.816 399.473,430.149 409.5,446.5C 360.46,486.344 304.127,504.511 240.5,501C 200.527,498.598 163.527,487.098 129.5,466.5C 131.074,466.063 132.241,465.063 133,463.5C 154.855,428.444 176.688,393.444 198.5,358.5C 205.967,366.136 213.3,373.969 220.5,382C 222.888,383.861 225.554,385.194 228.5,386C 246.005,386.829 263.338,386.662 280.5,385.5C 283.425,385.54 286.091,384.707 288.5,383C 300.333,370.5 312.167,358 324,345.5C 325.411,343.35 326.245,341.016 326.5,338.5C 327.314,336.369 327.814,334.036 328,331.5C 330.068,329.604 331.901,327.604 333.5,325.5 Z"/></g>
</svg>
