<?xml version="1.0" encoding="UTF-8"?>
<!DOCTYPE svg PUBLIC "-//W3C//DTD SVG 1.1//EN" "http://www.w3.org/Graphics/SVG/1.1/DTD/svg11.dtd">
<svg xmlns="http://www.w3.org/2000/svg" version="1.1" width="512px" height="512px" style="shape-rendering:geometricPrecision; text-rendering:geometricPrecision; image-rendering:optimizeQuality; fill-rule:evenodd; clip-rule:evenodd" xmlns:xlink="http://www.w3.org/1999/xlink">
<g><path style="opacity:1" fill="#314dc8" d="M 428.5,81.5 C 379.822,65.1767 335.822,73.3434 296.5,106C 291.256,110.739 286.59,115.905 282.5,121.5C 264.91,122.486 247.243,122.819 229.5,122.5C 229.5,121.833 229.167,121.5 228.5,121.5C 202.67,89.9212 169.17,73.9212 128,73.5C 112.31,73.2716 97.1435,75.9383 82.5,81.5C 136.671,29.0457 201.671,5.54568 277.5,11C 336.403,16.7925 386.736,40.2925 428.5,81.5 Z"/></g>
<g><path style="opacity:1" fill="#a0ace5" d="M 245.5,83.5 C 243.044,74.2079 237.71,67.0412 229.5,62C 225.882,60.7879 222.548,59.2879 219.5,57.5C 222.75,55.7567 225.584,53.4234 228,50.5C 231.244,44.8579 233.578,38.8579 235,32.5C 236.388,31.4464 237.888,31.2797 239.5,32C 241.649,38.7974 244.482,45.2974 248,51.5C 254.306,57.5703 261.806,61.4037 270.5,63C 271.833,64.6667 271.833,66.3333 270.5,68C 259.912,69.7964 251.578,74.9631 245.5,83.5 Z"/></g>
<g><path style="opacity:1" fill="#8694dd" d="M 219.5,57.5 C 222.548,59.2879 225.882,60.7879 229.5,62C 237.71,67.0412 243.044,74.2079 245.5,83.5C 243.772,88.5148 241.939,93.5148 240,98.5C 238.612,99.5536 237.112,99.7203 235.5,99C 233.432,89.4382 228.765,81.4382 221.5,75C 215.732,72.3011 209.898,69.8011 204,67.5C 203.28,65.8876 203.446,64.3876 204.5,63C 209.644,61.4532 214.644,59.6199 219.5,57.5 Z"/></g>
<g><path style="opacity:1" fill="#fed05c" d="M 228.5,121.5 C 217.346,122.495 206.012,122.828 194.5,122.5C 168.365,105.632 139.698,98.132 108.5,100C 60.261,105.771 25.261,130.271 3.5,173.5C 3.04311,174.298 2.37644,174.631 1.5,174.5C 12.9612,129.878 39.9612,98.8778 82.5,81.5C 97.1435,75.9383 112.31,73.2716 128,73.5C 169.17,73.9212 202.67,89.9212 228.5,121.5 Z"/></g>
<g><path style="opacity:1" fill="#fed05c" d="M 428.5,81.5 C 469.559,97.622 495.893,126.955 507.5,169.5C 507.631,170.239 507.464,170.906 507,171.5C 477.08,118.287 431.58,94.7875 370.5,101C 351.629,104.288 334.296,111.288 318.5,122C 317.207,122.49 315.873,122.657 314.5,122.5C 303.654,122.828 292.987,122.494 282.5,121.5C 286.59,115.905 291.256,110.739 296.5,106C 335.822,73.3434 379.822,65.1767 428.5,81.5 Z"/></g>
<g><path style="opacity:0.999" fill="#fee077" d="M 194.5,122.5 C 188.811,124.441 183.977,127.774 180,132.5C 176.899,137.702 174.066,143.035 171.5,148.5C 129.668,123.727 90.8347,127.727 55,160.5C 44.43,171.971 37.2634,185.305 33.5,200.5C 25.7292,234.021 34.7292,262.188 60.5,285C 83.9363,299.172 105.77,297.005 126,278.5C 133.85,268.417 136.683,257.084 134.5,244.5C 142.472,252.807 150.472,261.14 158.5,269.5C 148.103,298.712 127.436,315.045 96.5,318.5C 91.5,318.5 86.5,318.5 81.5,318.5C 79.5,318.5 77.5,318.5 75.5,318.5C 44.2228,310.562 22.5561,291.562 10.5,261.5C 5.0928,248.198 1.42614,234.531 -0.5,220.5C -0.5,208.833 -0.5,197.167 -0.5,185.5C 0.52495,182.026 1.19162,178.36 1.5,174.5C 2.37644,174.631 3.04311,174.298 3.5,173.5C 25.261,130.271 60.261,105.771 108.5,100C 139.698,98.132 168.365,105.632 194.5,122.5 Z"/></g>
<g><path style="opacity:0.999" fill="#fde077" d="M 507.5,169.5 C 509.216,174.749 510.549,180.083 511.5,185.5C 511.5,197.167 511.5,208.833 511.5,220.5C 509.574,234.531 505.907,248.198 500.5,261.5C 480.973,306.929 446.973,324.929 398.5,315.5C 375.071,307.738 359.738,292.072 352.5,268.5C 360.806,260.86 368.806,252.86 376.5,244.5C 374.481,272.098 387.148,288.432 414.5,293.5C 432.326,295.555 447.326,289.888 459.5,276.5C 481.019,250.048 485.853,220.715 474,188.5C 451.338,143.588 415.171,126.088 365.5,136C 356.136,138.85 347.469,143.016 339.5,148.5C 336.188,143.887 333.354,138.887 331,133.5C 326.644,127.92 321.144,124.253 314.5,122.5C 315.873,122.657 317.207,122.49 318.5,122C 334.296,111.288 351.629,104.288 370.5,101C 431.58,94.7875 477.08,118.287 507,171.5C 507.464,170.906 507.631,170.239 507.5,169.5 Z"/></g>
<g><path style="opacity:1" fill="#f2e9e5" d="M 228.5,121.5 C 229.167,121.5 229.5,121.833 229.5,122.5C 222.779,124.707 217.279,128.707 213,134.5C 204.741,150.689 196.241,166.689 187.5,182.5C 187.167,182.5 186.833,182.5 186.5,182.5C 178.477,176.801 170.477,171.134 162.5,165.5C 164.167,162.167 165.833,158.833 167.5,155.5C 167.5,155.167 167.5,154.833 167.5,154.5C 168.82,152.537 170.154,150.537 171.5,148.5C 174.066,143.035 176.899,137.702 180,132.5C 183.977,127.774 188.811,124.441 194.5,122.5C 206.012,122.828 217.346,122.495 228.5,121.5 Z"/></g>
<g><path style="opacity:1" fill="#f8f2f0" d="M 282.5,121.5 C 292.987,122.494 303.654,122.828 314.5,122.5C 321.144,124.253 326.644,127.92 331,133.5C 333.354,138.887 336.188,143.887 339.5,148.5C 339.992,150.819 340.992,152.819 342.5,154.5C 344.424,158.017 346.091,161.684 347.5,165.5C 328.016,180.137 308.349,194.637 288.5,209C 285.894,210.938 284.061,213.438 283,216.5C 282.333,230.5 282.333,244.5 283,258.5C 283.667,259.833 284.333,261.167 285,262.5C 300.707,275.712 316.54,288.712 332.5,301.5C 330.833,306.833 329.167,312.167 327.5,317.5C 321.991,332.175 316.157,346.842 310,361.5C 306.421,366.269 301.921,369.603 296.5,371.5C 286.206,372.427 275.872,372.76 265.5,372.5C 265.5,363.833 265.5,355.167 265.5,346.5C 275.766,339.021 286.099,331.521 296.5,324C 299.034,321.413 299.034,318.747 296.5,316C 279.707,307.545 266.04,311.045 255.5,326.5C 245.624,312.431 232.624,308.431 216.5,314.5C 212.892,303.342 208.892,292.342 204.5,281.5C 210.644,276.197 216.978,271.031 223.5,266C 224.787,264.59 225.954,263.09 227,261.5C 228.617,246.568 228.951,231.568 228,216.5C 226.6,213.098 224.433,210.264 221.5,208C 209.7,200.021 198.367,191.521 187.5,182.5C 196.241,166.689 204.741,150.689 213,134.5C 217.279,128.707 222.779,124.707 229.5,122.5C 247.243,122.819 264.91,122.486 282.5,121.5 Z"/></g>
<g><path style="opacity:1" fill="#334ec8" d="M 171.5,148.5 C 170.154,150.537 168.82,152.537 167.5,154.5C 138.831,154.333 110.165,154.5 81.5,155C 79.9929,156.473 79.3262,158.307 79.5,160.5C 80.9936,174.017 86.6602,185.351 96.5,194.5C 87.2105,196.316 78.8772,200.149 71.5,206C 65.3401,210.472 63.3401,216.305 65.5,223.5C 65.631,224.239 65.4643,224.906 65,225.5C 53.4735,218.475 42.9735,210.142 33.5,200.5C 37.2634,185.305 44.43,171.971 55,160.5C 90.8347,127.727 129.668,123.727 171.5,148.5 Z"/></g>
<g><path style="opacity:1" fill="#334dc8" d="M 459.5,276.5 C 448.219,276.603 437.219,274.936 426.5,271.5C 423.41,277.348 420.577,283.348 418,289.5C 417.051,291.093 415.885,292.426 414.5,293.5C 387.148,288.432 374.481,272.098 376.5,244.5C 377.784,241.598 378.784,238.598 379.5,235.5C 387.167,222.502 398.501,217.336 413.5,220C 418.846,222.003 423.513,225.003 427.5,229C 437.896,232.303 444.229,228.636 446.5,218C 446.385,215.268 445.552,212.768 444,210.5C 436.347,202.67 427.18,197.67 416.5,195.5C 416.082,194.778 415.416,194.278 414.5,194C 424.589,184.322 430.255,172.488 431.5,158.5C 431.471,156.971 430.804,155.804 429.5,155C 400.502,154.5 371.502,154.333 342.5,154.5C 340.992,152.819 339.992,150.819 339.5,148.5C 347.469,143.016 356.136,138.85 365.5,136C 415.171,126.088 451.338,143.588 474,188.5C 485.853,220.715 481.019,250.048 459.5,276.5 Z"/></g>
<g><path style="opacity:1" fill="#e1d3ce" d="M 254.5,146.5 C 256.017,146.511 257.184,147.177 258,148.5C 260.598,154.794 263.098,161.127 265.5,167.5C 269.506,170.505 273.84,173.005 278.5,175C 281.73,176.724 282.064,178.724 279.5,181C 275.081,183.627 270.581,186.127 266,188.5C 263.112,194.277 260.779,200.277 259,206.5C 257.776,209.473 255.776,210.14 253,208.5C 250.333,201.833 247.667,195.167 245,188.5C 240.5,186 236,183.5 231.5,181C 228.936,178.724 229.27,176.724 232.5,175C 237.16,173.005 241.494,170.505 245.5,167.5C 247.931,160.19 250.931,153.19 254.5,146.5 Z"/></g>
<g><path style="opacity:1" fill="#b8abad" d="M 167.5,154.5 C 167.5,154.833 167.5,155.167 167.5,155.5C 146.831,155.333 126.164,155.5 105.5,156C 104.389,170.962 109.556,183.462 121,193.5C 121.188,195.061 120.355,195.728 118.5,195.5C 111.209,194.608 103.876,194.274 96.5,194.5C 86.6602,185.351 80.9936,174.017 79.5,160.5C 79.3262,158.307 79.9929,156.473 81.5,155C 110.165,154.5 138.831,154.333 167.5,154.5 Z"/></g>
<g><path style="opacity:1" fill="#ccbeb9" d="M 167.5,155.5 C 165.833,158.833 164.167,162.167 162.5,165.5C 154.833,179.5 147.167,193.5 139.5,207.5C 133.533,201.683 126.533,197.683 118.5,195.5C 120.355,195.728 121.188,195.061 121,193.5C 109.556,183.462 104.389,170.962 105.5,156C 126.164,155.5 146.831,155.333 167.5,155.5 Z"/></g>
<g><path style="opacity:1" fill="#ccbeba" d="M 342.5,154.5 C 371.502,154.333 400.502,154.5 429.5,155C 430.804,155.804 431.471,156.971 431.5,158.5C 430.255,172.488 424.589,184.322 414.5,194C 415.416,194.278 416.082,194.778 416.5,195.5C 399.043,191.697 383.71,195.697 370.5,207.5C 363.325,193.144 355.659,179.144 347.5,165.5C 346.091,161.684 344.424,158.017 342.5,154.5 Z"/></g>
<g><path style="opacity:1" fill="#e1d3ce" d="M 162.5,165.5 C 170.477,171.134 178.477,176.801 186.5,182.5C 180.575,195.684 174.075,208.684 167,221.5C 163.549,232.062 165.549,241.396 173,249.5C 183.757,259.753 193.924,270.42 203.5,281.5C 194.874,288.124 186.541,295.124 178.5,302.5C 175.121,294.56 171.621,286.56 168,278.5C 164.964,275.296 161.797,272.296 158.5,269.5C 150.472,261.14 142.472,252.807 134.5,244.5C 134.167,243.833 133.833,243.167 133.5,242.5C 132.545,240.254 131.878,237.921 131.5,235.5C 131.334,231.486 131.501,227.486 132,223.5C 134.768,218.296 137.268,212.963 139.5,207.5C 147.167,193.5 154.833,179.5 162.5,165.5 Z"/></g>
<g><path style="opacity:1" fill="#eee1dc" d="M 347.5,165.5 C 355.659,179.144 363.325,193.144 370.5,207.5C 376.947,215.727 379.947,225.06 379.5,235.5C 378.784,238.598 377.784,241.598 376.5,244.5C 368.806,252.86 360.806,260.86 352.5,268.5C 348.502,271.665 345.002,275.332 342,279.5C 338.906,286.975 335.74,294.309 332.5,301.5C 316.54,288.712 300.707,275.712 285,262.5C 284.333,261.167 283.667,259.833 283,258.5C 282.333,244.5 282.333,230.5 283,216.5C 284.061,213.438 285.894,210.938 288.5,209C 308.349,194.637 328.016,180.137 347.5,165.5 Z"/></g>
<g><path style="opacity:1" fill="#eee1dc" d="M 186.5,182.5 C 186.833,182.5 187.167,182.5 187.5,182.5C 198.367,191.521 209.7,200.021 221.5,208C 224.433,210.264 226.6,213.098 228,216.5C 228.951,231.568 228.617,246.568 227,261.5C 225.954,263.09 224.787,264.59 223.5,266C 216.978,271.031 210.644,276.197 204.5,281.5C 204.167,281.5 203.833,281.5 203.5,281.5C 193.924,270.42 183.757,259.753 173,249.5C 165.549,241.396 163.549,232.062 167,221.5C 174.075,208.684 180.575,195.684 186.5,182.5 Z"/></g>
<g><path style="opacity:1" fill="#fcdf78" d="M 96.5,194.5 C 103.876,194.274 111.209,194.608 118.5,195.5C 126.533,197.683 133.533,201.683 139.5,207.5C 137.268,212.963 134.768,218.296 132,223.5C 131.501,227.486 131.334,231.486 131.5,235.5C 122.27,220.435 109.27,215.935 92.5,222C 88.5768,226.125 83.9101,228.959 78.5,230.5C 72.56,231.032 68.2267,228.698 65.5,223.5C 63.3401,216.305 65.3401,210.472 71.5,206C 78.8772,200.149 87.2105,196.316 96.5,194.5 Z"/></g>
<g><path style="opacity:1" fill="#fcdf78" d="M 416.5,195.5 C 427.18,197.67 436.347,202.67 444,210.5C 445.552,212.768 446.385,215.268 446.5,218C 444.229,228.636 437.896,232.303 427.5,229C 423.513,225.003 418.846,222.003 413.5,220C 398.501,217.336 387.167,222.502 379.5,235.5C 379.947,225.06 376.947,215.727 370.5,207.5C 383.71,195.697 399.043,191.697 416.5,195.5 Z"/></g>
<g><path style="opacity:1" fill="#2940af" d="M 33.5,200.5 C 42.9735,210.142 53.4735,218.475 65,225.5C 65.4643,224.906 65.631,224.239 65.5,223.5C 68.2267,228.698 72.56,231.032 78.5,230.5C 78.5774,231.75 79.244,232.583 80.5,233C 97.4366,240.045 115.103,243.212 133.5,242.5C 133.833,243.167 134.167,243.833 134.5,244.5C 136.683,257.084 133.85,268.417 126,278.5C 105.77,297.005 83.9363,299.172 60.5,285C 34.7292,262.188 25.7292,234.021 33.5,200.5 Z"/></g>
<g><path style="opacity:1" fill="#9f9897" d="M 193.5,211.5 C 208.511,210.679 215.678,217.679 215,232.5C 210.076,244.588 201.576,248.088 189.5,243C 177.797,230.828 179.13,220.328 193.5,211.5 Z"/></g>
<g><path style="opacity:1" fill="#9f9897" d="M 307.5,211.5 C 322.511,210.679 329.678,217.679 329,232.5C 324.076,244.588 315.576,248.088 303.5,243C 291.797,230.828 293.13,220.328 307.5,211.5 Z"/></g>
<g><path style="opacity:1" fill="#334dc8" d="M 131.5,235.5 C 131.878,237.921 132.545,240.254 133.5,242.5C 115.103,243.212 97.4366,240.045 80.5,233C 79.244,232.583 78.5774,231.75 78.5,230.5C 83.9101,228.959 88.5768,226.125 92.5,222C 109.27,215.935 122.27,220.435 131.5,235.5 Z"/></g>
<g><path style="opacity:1" fill="#03eea6" d="M 407.5,242.5 C 413.199,245.358 417.866,249.525 421.5,255C 418,259.833 413.833,264 409,267.5C 404.167,264 400,259.833 396.5,255C 399.99,250.677 403.657,246.51 407.5,242.5 Z"/></g>
<g><path style="opacity:0.995" fill="#2740af" d="M 10.5,261.5 C 22.5561,291.562 44.2228,310.562 75.5,318.5C 72.5517,327.946 66.2184,333.78 56.5,336C 55.1667,337.667 55.1667,339.333 56.5,341C 67.1667,343.667 73.8333,350.333 76.5,361C 77.8333,361.667 79.1667,361.667 80.5,361C 83.1933,350.307 89.8599,343.64 100.5,341C 101.833,339.333 101.833,337.667 100.5,336C 91.5222,334.182 85.5222,329.016 82.5,320.5C 87.1667,319.833 91.8333,319.167 96.5,318.5C 127.436,315.045 148.103,298.712 158.5,269.5C 161.797,272.296 164.964,275.296 168,278.5C 171.621,286.56 175.121,294.56 178.5,302.5C 179.829,306.822 181.163,311.155 182.5,315.5C 164.069,365.033 145.069,414.367 125.5,463.5C 61.3271,422.231 23.4938,363.564 12,287.5C 10.9187,278.865 10.4187,270.199 10.5,261.5 Z"/></g>
<g><path style="opacity:1" fill="#324dc8" d="M 352.5,268.5 C 359.738,292.072 375.071,307.738 398.5,315.5C 382.91,332.801 363.91,344.801 341.5,351.5C 337.348,339.875 332.682,328.542 327.5,317.5C 329.167,312.167 330.833,306.833 332.5,301.5C 335.74,294.309 338.906,286.975 342,279.5C 345.002,275.332 348.502,271.665 352.5,268.5 Z"/></g>
<g><path style="opacity:0.994" fill="#2740b0" d="M 500.5,261.5 C 497.403,337.524 466.737,399.691 408.5,448C 401.15,453.672 393.483,458.839 385.5,463.5C 370.657,426.316 355.99,388.983 341.5,351.5C 363.91,344.801 382.91,332.801 398.5,315.5C 446.973,324.929 480.973,306.929 500.5,261.5 Z"/></g>
<g><path style="opacity:1" fill="#2f42af" d="M 459.5,276.5 C 447.326,289.888 432.326,295.555 414.5,293.5C 415.885,292.426 417.051,291.093 418,289.5C 420.577,283.348 423.41,277.348 426.5,271.5C 437.219,274.936 448.219,276.603 459.5,276.5 Z"/></g>
<g><path style="opacity:1" fill="#f3eae7" d="M 203.5,281.5 C 203.833,281.5 204.167,281.5 204.5,281.5C 208.892,292.342 212.892,303.342 216.5,314.5C 213.446,316.28 212.279,318.946 213,322.5C 223.99,330.399 234.823,338.399 245.5,346.5C 245.5,355.167 245.5,363.833 245.5,372.5C 243.167,372.5 240.833,372.5 238.5,372.5C 230.112,372.773 221.779,372.44 213.5,371.5C 211.071,370.449 208.738,369.116 206.5,367.5C 203.111,365.275 200.611,362.275 199,358.5C 193.57,344.028 188.07,329.695 182.5,315.5C 181.163,311.155 179.829,306.822 178.5,302.5C 186.541,295.124 194.874,288.124 203.5,281.5 Z"/></g>
<g><path style="opacity:1" fill="#9e9897" d="M 265.5,346.5 C 264.507,354.984 264.174,363.651 264.5,372.5C 258.5,372.5 252.5,372.5 246.5,372.5C 246.826,363.651 246.493,354.984 245.5,346.5C 234.823,338.399 223.99,330.399 213,322.5C 212.279,318.946 213.446,316.28 216.5,314.5C 232.624,308.431 245.624,312.431 255.5,326.5C 266.04,311.045 279.707,307.545 296.5,316C 299.034,318.747 299.034,321.413 296.5,324C 286.099,331.521 275.766,339.021 265.5,346.5 Z"/></g>
<g><path style="opacity:1" fill="#f9f7f9" d="M 75.5,318.5 C 77.5,318.5 79.5,318.5 81.5,318.5C 81.3284,319.492 81.6618,320.158 82.5,320.5C 85.5222,329.016 91.5222,334.182 100.5,336C 101.833,337.667 101.833,339.333 100.5,341C 89.8599,343.64 83.1933,350.307 80.5,361C 79.1667,361.667 77.8333,361.667 76.5,361C 73.8333,350.333 67.1667,343.667 56.5,341C 55.1667,339.333 55.1667,337.667 56.5,336C 66.2184,333.78 72.5517,327.946 75.5,318.5 Z"/></g>
<g><path style="opacity:1" fill="#a09a95" d="M 81.5,318.5 C 86.5,318.5 91.5,318.5 96.5,318.5C 91.8333,319.167 87.1667,319.833 82.5,320.5C 81.6618,320.158 81.3284,319.492 81.5,318.5 Z"/></g>
<g><path style="opacity:1" fill="#e0d2ce" d="M 182.5,315.5 C 188.07,329.695 193.57,344.028 199,358.5C 200.611,362.275 203.111,365.275 206.5,367.5C 192.162,406.183 177.829,444.849 163.5,483.5C 150.198,477.851 137.532,471.185 125.5,463.5C 145.069,414.367 164.069,365.033 182.5,315.5 Z"/></g>
<g><path style="opacity:0.997" fill="#eee1dc" d="M 327.5,317.5 C 332.682,328.542 337.348,339.875 341.5,351.5C 355.99,388.983 370.657,426.316 385.5,463.5C 331.57,496.604 273.237,507.771 210.5,497C 194.409,493.895 178.742,489.395 163.5,483.5C 177.829,444.849 192.162,406.183 206.5,367.5C 208.738,369.116 211.071,370.449 213.5,371.5C 215.435,379.805 218.269,387.805 222,395.5C 225.688,400.513 230.522,404.013 236.5,406C 244.827,406.5 253.16,406.666 261.5,406.5C 275.922,408.206 286.089,402.539 292,389.5C 293.434,383.863 295.268,378.363 297.5,373C 297.43,372.235 297.097,371.735 296.5,371.5C 301.921,369.603 306.421,366.269 310,361.5C 316.157,346.842 321.991,332.175 327.5,317.5 Z"/></g>
<g><path style="opacity:1" fill="#fcfcfe" d="M 392.5,368.5 C 398.088,372.417 403.088,377.084 407.5,382.5C 403.167,387.5 398.5,392.167 393.5,396.5C 388.5,392.167 383.833,387.5 379.5,382.5C 383.855,377.813 388.188,373.146 392.5,368.5 Z"/></g>
<g><path style="opacity:1" fill="#cdbfba" d="M 213.5,371.5 C 221.779,372.44 230.112,372.773 238.5,372.5C 241.03,380.254 243.863,387.92 247,395.5C 250.951,400.534 255.784,404.201 261.5,406.5C 253.16,406.666 244.827,406.5 236.5,406C 230.522,404.013 225.688,400.513 222,395.5C 218.269,387.805 215.435,379.805 213.5,371.5 Z"/></g>
<g><path style="opacity:1" fill="#e0d2cd" d="M 245.5,346.5 C 246.493,354.984 246.826,363.651 246.5,372.5C 252.5,372.5 258.5,372.5 264.5,372.5C 264.174,363.651 264.507,354.984 265.5,346.5C 265.5,355.167 265.5,363.833 265.5,372.5C 275.872,372.76 286.206,372.427 296.5,371.5C 297.097,371.735 297.43,372.235 297.5,373C 295.268,378.363 293.434,383.863 292,389.5C 286.089,402.539 275.922,408.206 261.5,406.5C 255.784,404.201 250.951,400.534 247,395.5C 243.863,387.92 241.03,380.254 238.5,372.5C 240.833,372.5 243.167,372.5 245.5,372.5C 245.5,363.833 245.5,355.167 245.5,346.5 Z"/></g>
<g><path style="opacity:1" fill="#05eda6" d="M 113.5,379.5 C 119.676,382.996 125.009,387.663 129.5,393.5C 125.167,398.5 120.5,403.167 115.5,407.5C 110.303,403.137 105.636,398.303 101.5,393C 105.324,388.343 109.324,383.843 113.5,379.5 Z"/></g>
</svg>
