<?xml version="1.0" encoding="UTF-8"?>
<!DOCTYPE svg PUBLIC "-//W3C//DTD SVG 1.1//EN" "http://www.w3.org/Graphics/SVG/1.1/DTD/svg11.dtd">
<svg xmlns="http://www.w3.org/2000/svg" version="1.1" width="512px" height="512px" style="shape-rendering:geometricPrecision; text-rendering:geometricPrecision; image-rendering:optimizeQuality; fill-rule:evenodd; clip-rule:evenodd" xmlns:xlink="http://www.w3.org/1999/xlink">
<g><path style="opacity:0.991" fill="#a1ade5" d="M 263.5,-0.5 C 265.5,-0.5 267.5,-0.5 269.5,-0.5C 271.678,7.51729 274.678,15.184 278.5,22.5C 285.617,30.7316 294.617,35.8982 305.5,38C 308.473,39.2242 309.14,41.2242 307.5,44C 295.405,46.5372 285.405,52.3705 277.5,61.5C 274.694,51.3997 269.027,43.233 260.5,37C 255.773,34.7146 251.107,32.548 246.5,30.5C 249.874,28.1261 252.541,25.1261 254.5,21.5C 258.593,14.642 261.593,7.3087 263.5,-0.5 Z"/></g>
<g><path style="opacity:0.994" fill="#324dc8" d="M 254.5,21.5 C 252.541,25.1261 249.874,28.1261 246.5,30.5C 240.204,33.8076 233.537,36.3076 226.5,38C 224.675,39.4659 224.175,41.2992 225,43.5C 230.241,46.1917 235.741,48.3584 241.5,50C 248.279,53.1119 253.445,57.9452 257,64.5C 259.516,70.7286 262.016,76.8953 264.5,83C 266.701,83.8249 268.534,83.3249 270,81.5C 271.692,74.4632 274.192,67.7965 277.5,61.5C 285.405,52.3705 295.405,46.5372 307.5,44C 309.14,41.2242 308.473,39.2242 305.5,38C 294.617,35.8982 285.617,30.7316 278.5,22.5C 363.7,32.1042 427.7,73.7708 470.5,147.5C 495.687,194.101 505.353,243.768 499.5,296.5C 492.585,288.063 485.751,279.397 479,270.5C 470.968,261.302 462.468,252.635 453.5,244.5C 454.925,243.078 455.925,241.411 456.5,239.5C 459.081,236.68 460.914,233.346 462,229.5C 463.908,219.742 462.241,210.742 457,202.5C 451.188,197.033 445.355,191.7 439.5,186.5C 441.336,183.832 443.669,181.666 446.5,180C 452.859,176.547 459.526,173.881 466.5,172C 467.554,170.612 467.72,169.112 467,167.5C 458.66,165.163 450.826,161.663 443.5,157C 440.628,154.463 438.128,151.63 436,148.5C 432.955,141.685 430.122,134.852 427.5,128C 425.299,127.175 423.466,127.675 422,129.5C 420.822,133.88 419.488,138.213 418,142.5C 416.974,145.239 415.474,147.572 413.5,149.5C 412.276,142.175 410.276,135.175 407.5,128.5C 403.072,109.633 392.738,94.9667 376.5,84.5C 349.073,67.3499 321.406,67.1832 293.5,84C 276.753,95.6382 266.087,111.472 261.5,131.5C 262.602,135.767 265.269,137.267 269.5,136C 273.572,134.257 277.572,132.424 281.5,130.5C 298.14,125.225 314.807,125.225 331.5,130.5C 325.272,140.311 323.272,150.978 325.5,162.5C 325.197,164.114 324.53,165.448 323.5,166.5C 312.232,168.646 301.399,167.313 291,162.5C 289.018,162.99 287.351,163.99 286,165.5C 285.861,168.575 286.361,171.575 287.5,174.5C 281.167,174.5 274.833,174.5 268.5,174.5C 265.143,171.145 261.476,168.145 257.5,165.5C 254.436,168.57 251.103,171.237 247.5,173.5C 239.495,173.731 231.495,174.065 223.5,174.5C 227.82,165.654 225.153,162.154 215.5,164C 206.034,167.305 196.368,168.138 186.5,166.5C 188.211,153.764 185.878,141.764 179.5,130.5C 200.917,123.88 221.583,125.714 241.5,136C 244.025,136.896 246.192,136.396 248,134.5C 248.553,127.812 247.22,121.479 244,115.5C 241.143,110.445 238.309,105.445 235.5,100.5C 238.858,98.1405 241.525,95.1405 243.5,91.5C 239.5,85.5 234.5,80.5 228.5,76.5C 224.859,78.8103 221.526,81.477 218.5,84.5C 218.167,84.5 217.833,84.5 217.5,84.5C 189.176,67.0317 160.843,67.1984 132.5,85C 116.288,96.9281 106.288,112.761 102.5,132.5C 99.4391,138.368 97.7724,144.701 97.5,151.5C 92.0022,144.88 88.5022,137.213 87,128.5C 85.5341,126.675 83.7008,126.175 81.5,127C 78.7829,135.139 75.2829,142.972 71,150.5C 68.4634,153.372 65.6301,155.872 62.5,158C 55.6854,161.045 48.8521,163.878 42,166.5C 41.1751,168.701 41.6751,170.534 43.5,172C 54.4219,173.96 63.7552,178.793 71.5,186.5C 64.9035,191.592 58.7368,197.259 53,203.5C 44.9217,218.26 46.4217,231.927 57.5,244.5C 46.6659,254.476 36.4992,265.142 27,276.5C 21.5253,283.462 16.6919,290.796 12.5,298.5C 2.83494,207.643 32.8349,132.81 102.5,74C 147.081,39.3048 197.748,21.8048 254.5,21.5 Z"/></g>
<g><path style="opacity:1" fill="#8694dd" d="M 246.5,30.5 C 251.107,32.548 255.773,34.7146 260.5,37C 269.027,43.233 274.694,51.3997 277.5,61.5C 274.192,67.7965 271.692,74.4632 270,81.5C 268.534,83.3249 266.701,83.8249 264.5,83C 262.016,76.8953 259.516,70.7286 257,64.5C 253.445,57.9452 248.279,53.1119 241.5,50C 235.741,48.3584 230.241,46.1917 225,43.5C 224.175,41.2992 224.675,39.4659 226.5,38C 233.537,36.3076 240.204,33.8076 246.5,30.5 Z"/></g>
<g><path style="opacity:1" fill="#fbb039" d="M 217.5,84.5 C 183.315,74.6766 154.982,83.3432 132.5,110.5C 119.327,113.695 109.327,121.028 102.5,132.5C 106.288,112.761 116.288,96.9281 132.5,85C 160.843,67.1984 189.176,67.0317 217.5,84.5 Z"/></g>
<g><path style="opacity:1" fill="#fbb039" d="M 376.5,84.5 C 338.671,74.0519 308.838,85.0519 287,117.5C 284.597,121.635 282.763,125.968 281.5,130.5C 277.572,132.424 273.572,134.257 269.5,136C 265.269,137.267 262.602,135.767 261.5,131.5C 266.087,111.472 276.753,95.6382 293.5,84C 321.406,67.1832 349.073,67.3499 376.5,84.5 Z"/></g>
<g><path style="opacity:1" fill="#1ae9a6" d="M 235.5,100.5 C 229.807,95.1388 224.14,89.8054 218.5,84.5C 221.526,81.477 224.859,78.8103 228.5,76.5C 234.5,80.5 239.5,85.5 243.5,91.5C 241.525,95.1405 238.858,98.1405 235.5,100.5 Z"/></g>
<g><path style="opacity:1" fill="#fec244" d="M 217.5,84.5 C 217.833,84.5 218.167,84.5 218.5,84.5C 224.14,89.8054 229.807,95.1388 235.5,100.5C 238.309,105.445 241.143,110.445 244,115.5C 247.22,121.479 248.553,127.812 248,134.5C 246.192,136.396 244.025,136.896 241.5,136C 221.583,125.714 200.917,123.88 179.5,130.5C 173.134,121.15 164.467,114.816 153.5,111.5C 146.703,109.327 139.703,108.993 132.5,110.5C 154.982,83.3432 183.315,74.6766 217.5,84.5 Z"/></g>
<g><path style="opacity:1" fill="#fec244" d="M 376.5,84.5 C 392.738,94.9667 403.072,109.633 407.5,128.5C 407.631,129.239 407.464,129.906 407,130.5C 401.29,121.61 393.456,115.61 383.5,112.5C 361.895,105.925 344.562,111.925 331.5,130.5C 314.807,125.225 298.14,125.225 281.5,130.5C 282.763,125.968 284.597,121.635 287,117.5C 308.838,85.0519 338.671,74.0519 376.5,84.5 Z"/></g>
<g><path style="opacity:1" fill="#fed05b" d="M 153.5,111.5 C 136.998,117.664 126.998,129.33 123.5,146.5C 121.926,151.988 122.259,157.321 124.5,162.5C 123.903,162.735 123.57,163.235 123.5,164C 127.88,180.649 138.213,191.483 154.5,196.5C 151.727,197.657 148.727,198.324 145.5,198.5C 142.391,198.264 139.391,198.597 136.5,199.5C 123.81,196.99 113.477,190.656 105.5,180.5C 102.804,175.766 100.138,171.099 97.5,166.5C 97.6918,161.651 97.6918,156.651 97.5,151.5C 97.7724,144.701 99.4391,138.368 102.5,132.5C 109.327,121.028 119.327,113.695 132.5,110.5C 139.703,108.993 146.703,109.327 153.5,111.5 Z"/></g>
<g><path style="opacity:1" fill="#fed05b" d="M 383.5,112.5 C 367.836,116.322 357.336,125.989 352,141.5C 351.235,143.066 351.402,144.399 352.5,145.5C 349.889,151.473 349.889,157.473 352.5,163.5C 354.353,175.634 360.686,185.134 371.5,192C 374.741,193.789 378.074,195.289 381.5,196.5C 379.095,197.768 376.428,198.435 373.5,198.5C 370.833,198.5 368.167,198.5 365.5,198.5C 346.298,195.965 333.298,185.632 326.5,167.5C 325.675,166.614 324.675,166.281 323.5,166.5C 324.53,165.448 325.197,164.114 325.5,162.5C 323.272,150.978 325.272,140.311 331.5,130.5C 344.562,111.925 361.895,105.925 383.5,112.5 Z"/></g>
<g><path style="opacity:1" fill="#fedf76" d="M 153.5,111.5 C 164.467,114.816 173.134,121.15 179.5,130.5C 185.878,141.764 188.211,153.764 186.5,166.5C 185.504,166.414 184.671,166.748 184,167.5C 178.922,182.078 169.089,191.745 154.5,196.5C 138.213,191.483 127.88,180.649 123.5,164C 123.57,163.235 123.903,162.735 124.5,162.5C 131.444,173.645 140.778,176.145 152.5,170C 161.18,162.058 162.68,152.891 157,142.5C 148.21,134.198 138.71,133.365 128.5,140C 126.934,142.326 125.268,144.492 123.5,146.5C 126.998,129.33 136.998,117.664 153.5,111.5 Z"/></g>
<g><path style="opacity:1" fill="#fee076" d="M 383.5,112.5 C 393.456,115.61 401.29,121.61 407,130.5C 407.464,129.906 407.631,129.239 407.5,128.5C 410.276,135.175 412.276,142.175 413.5,149.5C 413.015,155.26 413.015,160.926 413.5,166.5C 412.542,166.953 411.708,167.619 411,168.5C 407.539,178.108 401.705,185.775 393.5,191.5C 389.734,193.716 385.734,195.383 381.5,196.5C 378.074,195.289 374.741,193.789 371.5,192C 360.686,185.134 354.353,175.634 352.5,163.5C 361.852,175.594 372.352,176.594 384,166.5C 391.958,153.368 389.124,143.202 375.5,136C 365.196,133.161 357.529,136.327 352.5,145.5C 351.402,144.399 351.235,143.066 352,141.5C 357.336,125.989 367.836,116.322 383.5,112.5 Z"/></g>
<g><path style="opacity:1" fill="#a0ace5" d="M 97.5,151.5 C 97.6918,156.651 97.6918,161.651 97.5,166.5C 89.1185,173.55 80.4518,180.216 71.5,186.5C 63.7552,178.793 54.4219,173.96 43.5,172C 41.6751,170.534 41.1751,168.701 42,166.5C 48.8521,163.878 55.6854,161.045 62.5,158C 65.6301,155.872 68.4634,153.372 71,150.5C 75.2829,142.972 78.7829,135.139 81.5,127C 83.7008,126.175 85.5341,126.675 87,128.5C 88.5022,137.213 92.0022,144.88 97.5,151.5 Z"/></g>
<g><path style="opacity:1" fill="#a1ade5" d="M 439.5,186.5 C 430.567,180.24 421.9,173.574 413.5,166.5C 413.015,160.926 413.015,155.26 413.5,149.5C 415.474,147.572 416.974,145.239 418,142.5C 419.488,138.213 420.822,133.88 422,129.5C 423.466,127.675 425.299,127.175 427.5,128C 430.122,134.852 432.955,141.685 436,148.5C 438.128,151.63 440.628,154.463 443.5,157C 450.826,161.663 458.66,165.163 467,167.5C 467.72,169.112 467.554,170.612 466.5,172C 459.526,173.881 452.859,176.547 446.5,180C 443.669,181.666 441.336,183.832 439.5,186.5 Z"/></g>
<g><path style="opacity:1" fill="#f2a72d" d="M 124.5,162.5 C 122.259,157.321 121.926,151.988 123.5,146.5C 125.268,144.492 126.934,142.326 128.5,140C 138.71,133.365 148.21,134.198 157,142.5C 162.68,152.891 161.18,162.058 152.5,170C 140.778,176.145 131.444,173.645 124.5,162.5 Z"/></g>
<g><path style="opacity:1" fill="#f2a72e" d="M 352.5,163.5 C 349.889,157.473 349.889,151.473 352.5,145.5C 357.529,136.327 365.196,133.161 375.5,136C 389.124,143.202 391.958,153.368 384,166.5C 372.352,176.594 361.852,175.594 352.5,163.5 Z"/></g>
<g><path style="opacity:1" fill="#f3a933" d="M 223.5,174.5 C 207.345,201.405 184.012,210.905 153.5,203C 150.552,201.763 147.885,200.263 145.5,198.5C 148.727,198.324 151.727,197.657 154.5,196.5C 169.089,191.745 178.922,182.078 184,167.5C 184.671,166.748 185.504,166.414 186.5,166.5C 196.368,168.138 206.034,167.305 215.5,164C 225.153,162.154 227.82,165.654 223.5,174.5 Z"/></g>
<g><path style="opacity:1" fill="#f3a933" d="M 323.5,166.5 C 324.675,166.281 325.675,166.614 326.5,167.5C 333.298,185.632 346.298,195.965 365.5,198.5C 332.599,213.313 306.599,205.313 287.5,174.5C 286.361,171.575 285.861,168.575 286,165.5C 287.351,163.99 289.018,162.99 291,162.5C 301.399,167.313 312.232,168.646 323.5,166.5 Z"/></g>
<g><path style="opacity:1" fill="#faaf36" d="M 97.5,166.5 C 100.138,171.099 102.804,175.766 105.5,180.5C 105.141,182.371 104.141,183.871 102.5,185C 95.3168,190.427 88.3168,196.094 81.5,202C 96.0882,206.342 100.588,215.508 95,229.5C 88.0062,236.991 79.8395,238.491 70.5,234C 68.2911,232.127 66.4578,229.96 65,227.5C 64.5918,236.44 67.0918,244.44 72.5,251.5C 66.8591,250.513 61.8591,248.179 57.5,244.5C 46.4217,231.927 44.9217,218.26 53,203.5C 58.7368,197.259 64.9035,191.592 71.5,186.5C 80.4518,180.216 89.1185,173.55 97.5,166.5 Z"/></g>
<g><path style="opacity:1" fill="#f5f6fb" d="M 268.5,174.5 C 270.2,176.21 271.533,178.21 272.5,180.5C 268.5,186.5 263.5,191.5 257.5,195.5C 251.5,191.5 246.5,186.5 242.5,180.5C 243.804,177.87 245.47,175.537 247.5,173.5C 251.103,171.237 254.436,168.57 257.5,165.5C 261.476,168.145 265.143,171.145 268.5,174.5 Z"/></g>
<g><path style="opacity:1" fill="#fec245" d="M 413.5,166.5 C 421.9,173.574 430.567,180.24 439.5,186.5C 445.355,191.7 451.188,197.033 457,202.5C 462.241,210.742 463.908,219.742 462,229.5C 460.914,233.346 459.081,236.68 456.5,239.5C 448.877,241.309 441.543,240.476 434.5,237C 444.517,232.802 448.684,225.302 447,214.5C 441.316,203.569 432.816,200.402 421.5,205C 418.269,207.727 415.603,210.894 413.5,214.5C 407.426,207.349 401.593,200.016 396,192.5C 395.329,191.748 394.496,191.414 393.5,191.5C 401.705,185.775 407.539,178.108 411,168.5C 411.708,167.619 412.542,166.953 413.5,166.5 Z"/></g>
<g><path style="opacity:1" fill="#2940af" d="M 247.5,173.5 C 245.47,175.537 243.804,177.87 242.5,180.5C 246.5,186.5 251.5,191.5 257.5,195.5C 263.5,191.5 268.5,186.5 272.5,180.5C 271.533,178.21 270.2,176.21 268.5,174.5C 274.833,174.5 281.167,174.5 287.5,174.5C 306.599,205.313 332.599,213.313 365.5,198.5C 368.167,198.5 370.833,198.5 373.5,198.5C 380.452,208.12 387.785,217.454 395.5,226.5C 395.489,228.017 394.823,229.184 393.5,230C 373.286,245.935 353.286,262.102 333.5,278.5C 331.275,275.111 328.275,272.611 324.5,271C 314.506,270.5 304.506,270.334 294.5,270.5C 299.137,256.668 308.804,249.335 323.5,248.5C 323.5,243.167 323.5,237.833 323.5,232.5C 323.5,229.5 323.5,226.5 323.5,223.5C 298.545,224.721 281.045,236.721 271,259.5C 269.438,263.014 268.605,266.681 268.5,270.5C 259.833,270.5 251.167,270.5 242.5,270.5C 242.829,267.772 242.163,265.438 240.5,263.5C 232.334,239.01 215.334,225.677 189.5,223.5C 187.53,231.769 186.864,240.435 187.5,249.5C 202.042,249.924 211.709,256.924 216.5,270.5C 206.161,270.334 195.828,270.5 185.5,271C 181.7,272.642 178.7,275.142 176.5,278.5C 174.706,276.203 172.706,274.037 170.5,272C 153.167,258.333 135.833,244.667 118.5,231C 116.859,229.871 115.859,228.371 115.5,226.5C 122.742,217.681 129.742,208.681 136.5,199.5C 139.391,198.597 142.391,198.264 145.5,198.5C 147.885,200.263 150.552,201.763 153.5,203C 184.012,210.905 207.345,201.405 223.5,174.5C 231.495,174.065 239.495,173.731 247.5,173.5 Z"/></g>
<g><path style="opacity:1" fill="#fec244" d="M 105.5,180.5 C 113.477,190.656 123.81,196.99 136.5,199.5C 129.742,208.681 122.742,217.681 115.5,226.5C 110.196,232.808 104.863,239.142 99.5,245.5C 92.0473,250.781 83.714,253.115 74.5,252.5C 73.5084,252.672 72.8417,252.338 72.5,251.5C 67.0918,244.44 64.5918,236.44 65,227.5C 66.4578,229.96 68.2911,232.127 70.5,234C 79.8395,238.491 88.0062,236.991 95,229.5C 100.588,215.508 96.0882,206.342 81.5,202C 88.3168,196.094 95.3168,190.427 102.5,185C 104.141,183.871 105.141,182.371 105.5,180.5 Z"/></g>
<g><path style="opacity:1" fill="#0ceaa6" d="M 348.5,214.5 C 354.676,217.996 360.009,222.663 364.5,228.5C 360.137,233.697 355.303,238.364 350,242.5C 344.629,238.629 340.129,233.963 336.5,228.5C 340.117,223.546 344.117,218.879 348.5,214.5 Z"/></g>
<g><path style="opacity:1" fill="#fdcf5c" d="M 189.5,223.5 C 191.265,224.461 193.265,224.795 195.5,224.5C 195.5,229.833 195.5,235.167 195.5,240.5C 211.189,240.986 221.189,248.653 225.5,263.5C 230.5,263.5 235.5,263.5 240.5,263.5C 242.163,265.438 242.829,267.772 242.5,270.5C 237.833,270.5 233.167,270.5 228.5,270.5C 224.5,270.5 220.5,270.5 216.5,270.5C 211.709,256.924 202.042,249.924 187.5,249.5C 186.864,240.435 187.53,231.769 189.5,223.5 Z"/></g>
<g><path style="opacity:1" fill="#fccf5c" d="M 323.5,232.5 C 301.184,236.493 286.184,249.159 278.5,270.5C 275.167,270.5 271.833,270.5 268.5,270.5C 268.605,266.681 269.438,263.014 271,259.5C 281.045,236.721 298.545,224.721 323.5,223.5C 323.5,226.5 323.5,229.5 323.5,232.5 Z"/></g>
<g><path style="opacity:1" fill="#fcde76" d="M 189.5,223.5 C 215.334,225.677 232.334,239.01 240.5,263.5C 235.5,263.5 230.5,263.5 225.5,263.5C 221.189,248.653 211.189,240.986 195.5,240.5C 195.5,235.167 195.5,229.833 195.5,224.5C 193.265,224.795 191.265,224.461 189.5,223.5 Z"/></g>
<g><path style="opacity:1" fill="#f5aa31" d="M 115.5,226.5 C 115.859,228.371 116.859,229.871 118.5,231C 135.833,244.667 153.167,258.333 170.5,272C 172.706,274.037 174.706,276.203 176.5,278.5C 170.927,289.315 164.594,299.648 157.5,309.5C 152.812,307.826 148.812,305.159 145.5,301.5C 129.766,283.105 114.432,264.438 99.5,245.5C 104.863,239.142 110.196,232.808 115.5,226.5 Z"/></g>
<g><path style="opacity:1" fill="#eb9f26" d="M 395.5,226.5 C 400.303,232.146 404.969,237.979 409.5,244C 392.015,258.241 374.349,272.241 356.5,286C 352.555,289.946 349.389,294.446 347,299.5C 341.991,292.811 337.491,285.811 333.5,278.5C 353.286,262.102 373.286,245.935 393.5,230C 394.823,229.184 395.489,228.017 395.5,226.5 Z"/></g>
<g><path style="opacity:1" fill="#fddf76" d="M 323.5,232.5 C 323.5,237.833 323.5,243.167 323.5,248.5C 308.804,249.335 299.137,256.668 294.5,270.5C 289.167,270.5 283.833,270.5 278.5,270.5C 286.184,249.159 301.184,236.493 323.5,232.5 Z"/></g>
<g><path style="opacity:1" fill="#f6ab31" d="M 393.5,191.5 C 394.496,191.414 395.329,191.748 396,192.5C 401.593,200.016 407.426,207.349 413.5,214.5C 415.603,210.894 418.269,207.727 421.5,205C 432.816,200.402 441.316,203.569 447,214.5C 448.684,225.302 444.517,232.802 434.5,237C 441.543,240.476 448.877,241.309 456.5,239.5C 455.925,241.411 454.925,243.078 453.5,244.5C 448.848,248.325 443.514,250.825 437.5,252C 424.833,267.333 412.167,282.667 399.5,298C 400.5,298.667 401.5,298.667 402.5,298C 413.293,292.935 424.293,288.435 435.5,284.5C 440.181,284.559 443.515,286.559 445.5,290.5C 421.705,300.376 398.038,310.542 374.5,321C 377.053,325.28 379.719,329.446 382.5,333.5C 378.7,335.234 375.034,337.234 371.5,339.5C 374.347,345.206 377.68,350.539 381.5,355.5C 393.459,350.236 405.459,345.069 417.5,340C 423.941,338.888 428.941,341.055 432.5,346.5C 430.801,346.34 429.134,346.506 427.5,347C 416.03,352.405 404.363,357.238 392.5,361.5C 393.74,366.841 393.74,372.174 392.5,377.5C 387.251,380.431 381.751,383.098 376,385.5C 373.431,392.213 371.097,398.88 369,405.5C 378.012,400.993 387.346,397.326 397,394.5C 402.549,394.846 406.382,397.513 408.5,402.5C 397.759,405.027 387.426,408.861 377.5,414C 373.603,420.971 369.603,427.804 365.5,434.5C 355.155,438.896 344.821,443.396 334.5,448C 317.564,461.966 298.231,470.799 276.5,474.5C 232.741,465.708 201.574,441.042 183,400.5C 178.934,389.637 175.268,378.637 172,367.5C 171.575,363.131 171.908,358.797 173,354.5C 181.525,340.769 190.025,327.103 198.5,313.5C 202.123,324.478 209.456,328.311 220.5,325C 229.7,319.532 231.867,312.032 227,302.5C 222.536,296.952 216.703,294.619 209.5,295.5C 213.322,289.194 217.155,282.861 221,276.5C 223.114,273.879 225.614,271.879 228.5,270.5C 233.167,270.5 237.833,270.5 242.5,270.5C 251.167,270.5 259.833,270.5 268.5,270.5C 271.833,270.5 275.167,270.5 278.5,270.5C 283.833,270.5 289.167,270.5 294.5,270.5C 304.506,270.334 314.506,270.5 324.5,271C 328.275,272.611 331.275,275.111 333.5,278.5C 337.491,285.811 341.991,292.811 347,299.5C 349.389,294.446 352.555,289.946 356.5,286C 374.349,272.241 392.015,258.241 409.5,244C 404.969,237.979 400.303,232.146 395.5,226.5C 387.785,217.454 380.452,208.12 373.5,198.5C 376.428,198.435 379.095,197.768 381.5,196.5C 385.734,195.383 389.734,193.716 393.5,191.5 Z"/></g>
<g><path style="opacity:0.995" fill="#2840af" d="M 57.5,244.5 C 61.8591,248.179 66.8591,250.513 72.5,251.5C 72.8417,252.338 73.5084,252.672 74.5,252.5C 86.9186,268.319 99.5852,283.986 112.5,299.5C 102.58,295.304 92.5797,291.304 82.5,287.5C 77.1801,283.538 71.8468,283.705 66.5,288C 52.0359,307.107 37.7026,326.274 23.5,345.5C 17.6856,330.446 14.019,314.779 12.5,298.5C 16.6919,290.796 21.5253,283.462 27,276.5C 36.4992,265.142 46.6659,254.476 57.5,244.5 Z"/></g>
<g><path style="opacity:0.995" fill="#2940af" d="M 453.5,244.5 C 462.468,252.635 470.968,261.302 479,270.5C 485.751,279.397 492.585,288.063 499.5,296.5C 497.263,313.373 493.263,329.706 487.5,345.5C 473.731,326.948 459.731,308.615 445.5,290.5C 443.515,286.559 440.181,284.559 435.5,284.5C 424.293,288.435 413.293,292.935 402.5,298C 401.5,298.667 400.5,298.667 399.5,298C 412.167,282.667 424.833,267.333 437.5,252C 443.514,250.825 448.848,248.325 453.5,244.5 Z"/></g>
<g><path style="opacity:1" fill="#eb9f26" d="M 99.5,245.5 C 114.432,264.438 129.766,283.105 145.5,301.5C 148.812,305.159 152.812,307.826 157.5,309.5C 164.594,299.648 170.927,289.315 176.5,278.5C 178.7,275.142 181.7,272.642 185.5,271C 195.828,270.5 206.161,270.334 216.5,270.5C 220.5,270.5 224.5,270.5 228.5,270.5C 225.614,271.879 223.114,273.879 221,276.5C 217.155,282.861 213.322,289.194 209.5,295.5C 201.764,298.965 198.098,304.965 198.5,313.5C 190.025,327.103 181.525,340.769 173,354.5C 171.908,358.797 171.575,363.131 172,367.5C 175.268,378.637 178.934,389.637 183,400.5C 201.574,441.042 232.741,465.708 276.5,474.5C 237.439,480.703 202.772,471.037 172.5,445.5C 160.067,433.955 150.067,420.622 142.5,405.5C 139.556,398.61 136.889,391.61 134.5,384.5C 133.107,379.82 131.607,375.154 130,370.5C 129.501,365.511 129.334,360.511 129.5,355.5C 133.168,350.473 136.501,345.139 139.5,339.5C 139.137,338.817 138.804,338.15 138.5,337.5C 140.592,337.439 142.092,336.439 143,334.5C 146.5,328.833 150,323.167 153.5,317.5C 139.742,311.478 126.075,305.478 112.5,299.5C 99.5852,283.986 86.9186,268.319 74.5,252.5C 83.714,253.115 92.0473,250.781 99.5,245.5 Z"/></g>
<g><path style="opacity:0.999" fill="#fbb039" d="M 82.5,287.5 C 80.5372,288.96 78.7038,290.627 77,292.5C 64.3847,310.116 51.3847,327.45 38,344.5C 37.3333,345.5 37.3333,346.5 38,347.5C 39.7589,351.644 41.5923,355.644 43.5,359.5C 40.8827,364.114 37.8827,368.447 34.5,372.5C 29.4852,364.125 25.8186,355.125 23.5,345.5C 37.7026,326.274 52.0359,307.107 66.5,288C 71.8468,283.705 77.1801,283.538 82.5,287.5 Z"/></g>
<g><path style="opacity:1" fill="#fdc144" d="M 82.5,287.5 C 92.5797,291.304 102.58,295.304 112.5,299.5C 126.075,305.478 139.742,311.478 153.5,317.5C 150,323.167 146.5,328.833 143,334.5C 142.092,336.439 140.592,337.439 138.5,337.5C 119.104,329.7 99.7709,321.7 80.5,313.5C 79.5581,313.608 78.7247,313.941 78,314.5C 67.0196,329.97 55.5196,344.97 43.5,359.5C 41.5923,355.644 39.7589,351.644 38,347.5C 37.3333,346.5 37.3333,345.5 38,344.5C 51.3847,327.45 64.3847,310.116 77,292.5C 78.7038,290.627 80.5372,288.96 82.5,287.5 Z"/></g>
<g><path style="opacity:0.996" fill="#fdc145" d="M 445.5,290.5 C 459.731,308.615 473.731,326.948 487.5,345.5C 485.181,355.125 481.515,364.125 476.5,372.5C 461.721,353.119 447.054,333.619 432.5,314C 431.167,313.333 429.833,313.333 428.5,314C 413.261,320.788 397.927,327.288 382.5,333.5C 379.719,329.446 377.053,325.28 374.5,321C 398.038,310.542 421.705,300.376 445.5,290.5 Z"/></g>
<g><path style="opacity:1" fill="#fee075" d="M 209.5,295.5 C 216.703,294.619 222.536,296.952 227,302.5C 231.867,312.032 229.7,319.532 220.5,325C 209.456,328.311 202.123,324.478 198.5,313.5C 198.098,304.965 201.764,298.965 209.5,295.5 Z"/></g>
<g><path style="opacity:1" fill="#fee075" d="M 291.5,295.5 C 306.178,294.346 313.011,301.012 312,315.5C 306.861,325.879 299.028,328.712 288.5,324C 278.441,313.308 279.441,303.808 291.5,295.5 Z"/></g>
<g><path style="opacity:0.997" fill="#2b41ae" d="M 138.5,337.5 C 138.804,338.15 139.137,338.817 139.5,339.5C 136.501,345.139 133.168,350.473 129.5,355.5C 118.384,351.109 107.384,346.442 96.5,341.5C 91.748,338.679 87.0814,338.845 82.5,342C 69.7034,358.44 57.0367,374.94 44.5,391.5C 40.4059,385.649 37.0726,379.315 34.5,372.5C 37.8827,368.447 40.8827,364.114 43.5,359.5C 55.5196,344.97 67.0196,329.97 78,314.5C 78.7247,313.941 79.5581,313.608 80.5,313.5C 99.7709,321.7 119.104,329.7 138.5,337.5 Z"/></g>
<g><path style="opacity:0.997" fill="#2b41ae" d="M 476.5,372.5 C 473.927,379.315 470.594,385.649 466.5,391.5C 455.198,376.524 443.865,361.524 432.5,346.5C 428.941,341.055 423.941,338.888 417.5,340C 405.459,345.069 393.459,350.236 381.5,355.5C 377.68,350.539 374.347,345.206 371.5,339.5C 375.034,337.234 378.7,335.234 382.5,333.5C 397.927,327.288 413.261,320.788 428.5,314C 429.833,313.333 431.167,313.333 432.5,314C 447.054,333.619 461.721,353.119 476.5,372.5 Z"/></g>
<g><path style="opacity:1" fill="#fcb038" d="M 96.5,341.5 C 84.6756,357.137 72.8423,372.804 61,388.5C 60.3333,389.5 60.3333,390.5 61,391.5C 63.1782,395.194 65.3448,398.861 67.5,402.5C 65.0659,406.382 62.3993,410.048 59.5,413.5C 53.5139,406.868 48.5139,399.535 44.5,391.5C 57.0367,374.94 69.7034,358.44 82.5,342C 87.0814,338.845 91.748,338.679 96.5,341.5 Z"/></g>
<g><path style="opacity:1" fill="#fcc145" d="M 96.5,341.5 C 107.384,346.442 118.384,351.109 129.5,355.5C 129.334,360.511 129.501,365.511 130,370.5C 131.607,375.154 133.107,379.82 134.5,384.5C 121.298,379.318 108.131,373.984 95,368.5C 93.395,369.101 92.0616,370.101 91,371.5C 83.3032,382.018 75.4699,392.351 67.5,402.5C 65.3448,398.861 63.1782,395.194 61,391.5C 60.3333,390.5 60.3333,389.5 61,388.5C 72.8423,372.804 84.6756,357.137 96.5,341.5 Z"/></g>
<g><path style="opacity:0.997" fill="#fcc145" d="M 432.5,346.5 C 443.865,361.524 455.198,376.524 466.5,391.5C 462.486,399.535 457.486,406.868 451.5,413.5C 440.382,398.543 429.049,383.71 417.5,369C 416.167,368.333 414.833,368.333 413.5,369C 406.695,372.406 399.695,375.239 392.5,377.5C 393.74,372.174 393.74,366.841 392.5,361.5C 404.363,357.238 416.03,352.405 427.5,347C 429.134,346.506 430.801,346.34 432.5,346.5 Z"/></g>
<g><path style="opacity:0.996" fill="#2a40af" d="M 134.5,384.5 C 136.889,391.61 139.556,398.61 142.5,405.5C 134.912,402.304 127.246,399.304 119.5,396.5C 115.22,393.835 110.887,394.001 106.5,397C 96.2324,409.427 86.5658,422.26 77.5,435.5C 70.3721,429.044 64.3721,421.71 59.5,413.5C 62.3993,410.048 65.0659,406.382 67.5,402.5C 75.4699,392.351 83.3032,382.018 91,371.5C 92.0616,370.101 93.395,369.101 95,368.5C 108.131,373.984 121.298,379.318 134.5,384.5 Z"/></g>
<g><path style="opacity:0.996" fill="#2b41ae" d="M 451.5,413.5 C 446.454,421.577 440.454,428.91 433.5,435.5C 425.519,424.192 417.186,413.192 408.5,402.5C 406.382,397.513 402.549,394.846 397,394.5C 387.346,397.326 378.012,400.993 369,405.5C 371.097,398.88 373.431,392.213 376,385.5C 381.751,383.098 387.251,380.431 392.5,377.5C 399.695,375.239 406.695,372.406 413.5,369C 414.833,368.333 416.167,368.333 417.5,369C 429.049,383.71 440.382,398.543 451.5,413.5 Z"/></g>
<g><path style="opacity:1" fill="#fbb039" d="M 119.5,396.5 C 109.49,408.66 99.8238,421.16 90.5,434C 94.0357,437.704 97.7024,441.204 101.5,444.5C 99.8532,447.473 97.8532,450.14 95.5,452.5C 88.8695,447.537 82.8695,441.87 77.5,435.5C 86.5658,422.26 96.2324,409.427 106.5,397C 110.887,394.001 115.22,393.835 119.5,396.5 Z"/></g>
<g><path style="opacity:1" fill="#fdc145" d="M 119.5,396.5 C 127.246,399.304 134.912,402.304 142.5,405.5C 150.067,420.622 160.067,433.955 172.5,445.5C 154.36,438.229 136.36,430.562 118.5,422.5C 112.778,429.876 107.112,437.209 101.5,444.5C 97.7024,441.204 94.0357,437.704 90.5,434C 99.8238,421.16 109.49,408.66 119.5,396.5 Z"/></g>
<g><path style="opacity:0.996" fill="#fdc145" d="M 408.5,402.5 C 417.186,413.192 425.519,424.192 433.5,435.5C 428.131,441.87 422.131,447.537 415.5,452.5C 407.888,442.543 400.222,432.543 392.5,422.5C 383.471,426.507 374.471,430.507 365.5,434.5C 369.603,427.804 373.603,420.971 377.5,414C 387.426,408.861 397.759,405.027 408.5,402.5 Z"/></g>
<g><path style="opacity:0.992" fill="#2840af" d="M 172.5,445.5 C 202.772,471.037 237.439,480.703 276.5,474.5C 298.231,470.799 317.564,461.966 334.5,448C 344.821,443.396 355.155,438.896 365.5,434.5C 374.471,430.507 383.471,426.507 392.5,422.5C 400.222,432.543 407.888,442.543 415.5,452.5C 375.726,486.378 329.726,506.045 277.5,511.5C 262.833,511.5 248.167,511.5 233.5,511.5C 181.271,506.043 135.271,486.376 95.5,452.5C 97.8532,450.14 99.8532,447.473 101.5,444.5C 107.112,437.209 112.778,429.876 118.5,422.5C 136.36,430.562 154.36,438.229 172.5,445.5 Z"/></g>
</svg>
