<?xml version="1.0" encoding="UTF-8"?>
<!DOCTYPE svg PUBLIC "-//W3C//DTD SVG 1.1//EN" "http://www.w3.org/Graphics/SVG/1.1/DTD/svg11.dtd">
<svg xmlns="http://www.w3.org/2000/svg" version="1.1" width="128px" height="128px" style="shape-rendering:geometricPrecision; text-rendering:geometricPrecision; image-rendering:optimizeQuality; fill-rule:evenodd; clip-rule:evenodd" xmlns:xlink="http://www.w3.org/1999/xlink">
<g><path style="opacity:0.999" fill="#fdd566" d="M 99.5,-0.5 C 105.167,-0.5 110.833,-0.5 116.5,-0.5C 117.562,0.575371 117.562,1.57537 116.5,2.5C 108.906,4.62745 102.239,8.29412 96.5,13.5C 88.762,19.9732 84.4287,28.3066 83.5,38.5C 82.6618,38.8417 82.3284,39.5084 82.5,40.5C 77.1816,36.4144 71.515,35.7477 65.5,38.5C 67.2566,25.9842 72.9232,15.6508 82.5,7.5C 87.8751,4.05018 93.5418,1.38351 99.5,-0.5 Z"/></g>
<g><path style="opacity:0.96" fill="#324bc2" d="M 82.5,7.5 C 72.9232,15.6508 67.2566,25.9842 65.5,38.5C 64.5768,39.3029 63.5768,39.4696 62.5,39C 61.9011,37.3775 61.2344,35.8775 60.5,34.5C 60.3104,31.145 59.3104,28.145 57.5,25.5C 54.156,18.8226 49.8226,12.8226 44.5,7.5C 57.1667,3.5 69.8333,3.5 82.5,7.5 Z"/></g>
<g><path style="opacity:1" fill="#ededf6" d="M 62.5,12.5 C 64.6278,14.4458 66.9612,16.2791 69.5,18C 67.0243,19.3088 65.0243,21.1421 63.5,23.5C 61.9757,21.1421 59.9757,19.3088 57.5,18C 60.079,16.9243 61.7457,15.091 62.5,12.5 Z"/></g>
<g><path style="opacity:0.977" fill="#314cc5" d="M 30.5,13.5 C 37.4197,19.9999 41.7531,27.9999 43.5,37.5C 43.6495,38.552 43.4828,39.552 43,40.5C 37.5257,37.7336 32.0257,35.0669 26.5,32.5C 24.8287,34.5098 24.162,36.8431 24.5,39.5C 19.6164,45.9512 16.9498,53.2845 16.5,61.5C 12.3959,58.1146 7.72926,55.7813 2.5,54.5C 6.33482,37.0118 15.6682,23.3451 30.5,13.5 Z"/></g>
<g><path style="opacity:0.979" fill="#314cc5" d="M 96.5,13.5 C 112.674,24.1692 122.007,39.1692 124.5,58.5C 122.473,58.3379 120.473,58.5045 118.5,59C 115.929,60.4538 113.262,61.6205 110.5,62.5C 110.5,60.1667 110.5,57.8333 110.5,55.5C 114.929,51.4611 114.262,48.7945 108.5,47.5C 106.5,44.8333 104.5,42.1667 102.5,39.5C 102.838,36.8431 102.171,34.5098 100.5,32.5C 95.7133,34.3932 91.0466,36.5598 86.5,39C 85.2506,39.7401 84.2506,39.5735 83.5,38.5C 84.4287,28.3066 88.762,19.9732 96.5,13.5 Z"/></g>
<g><path style="opacity:1" fill="#fcd162" d="M 10.5,-0.5 C 16.1667,-0.5 21.8333,-0.5 27.5,-0.5C 33.4582,1.38351 39.1249,4.05018 44.5,7.5C 49.8226,12.8226 54.156,18.8226 57.5,25.5C 55.0877,27.162 52.2544,28.162 49,28.5C 48.6987,31.5071 48.8654,34.5071 49.5,37.5C 47.6675,38.2485 46.0009,39.2485 44.5,40.5C 44.7373,39.209 44.404,38.209 43.5,37.5C 41.7531,27.9999 37.4197,19.9999 30.5,13.5C 24.1239,8.31089 17.1239,4.14422 9.5,1C 10.056,0.617425 10.3893,0.117425 10.5,-0.5 Z"/></g>
<g><path style="opacity:1" fill="#fcde77" d="M 57.5,25.5 C 59.3104,28.145 60.3104,31.145 60.5,34.5C 60.5,35.5 60.5,36.5 60.5,37.5C 56.8162,36.2722 53.1495,36.2722 49.5,37.5C 48.8654,34.5071 48.6987,31.5071 49,28.5C 52.2544,28.162 55.0877,27.162 57.5,25.5 Z"/></g>
<g><path style="opacity:1" fill="#c1b4b4" d="M 43.5,37.5 C 44.404,38.209 44.7373,39.209 44.5,40.5C 43.5,41.8333 42.5,43.1667 41.5,44.5C 40.134,47.232 38.8007,49.8987 37.5,52.5C 30.1667,51.1667 25.8333,46.8333 24.5,39.5C 24.162,36.8431 24.8287,34.5098 26.5,32.5C 32.0257,35.0669 37.5257,37.7336 43,40.5C 43.4828,39.552 43.6495,38.552 43.5,37.5 Z"/></g>
<g><path style="opacity:1" fill="#efe5e1" d="M 60.5,34.5 C 61.2344,35.8775 61.9011,37.3775 62.5,39C 63.5768,39.4696 64.5768,39.3029 65.5,38.5C 71.515,35.7477 77.1816,36.4144 82.5,40.5C 83.6005,41.6049 84.2671,42.9382 84.5,44.5C 77.9314,44.8858 73.4314,48.2191 71,54.5C 67.8385,62.1066 67.6718,69.7733 70.5,77.5C 68.3296,76.2515 65.9963,75.2515 63.5,74.5C 61.2967,75.7674 58.9633,76.7674 56.5,77.5C 60.8506,65.4601 58.5172,54.9601 49.5,46C 46.9865,44.7475 44.3198,44.2475 41.5,44.5C 42.5,43.1667 43.5,41.8333 44.5,40.5C 46.0009,39.2485 47.6675,38.2485 49.5,37.5C 53.1495,36.2722 56.8162,36.2722 60.5,37.5C 60.5,36.5 60.5,35.5 60.5,34.5 Z"/></g>
<g><path style="opacity:1" fill="#c2b6b6" d="M 102.5,39.5 C 102.011,42.4665 100.845,45.1332 99,47.5C 95.8533,49.6497 92.6867,51.6497 89.5,53.5C 88.3962,50.1896 86.7295,47.1896 84.5,44.5C 84.2671,42.9382 83.6005,41.6049 82.5,40.5C 82.3284,39.5084 82.6618,38.8417 83.5,38.5C 84.2506,39.5735 85.2506,39.7401 86.5,39C 91.0466,36.5598 95.7133,34.3932 100.5,32.5C 102.171,34.5098 102.838,36.8431 102.5,39.5 Z"/></g>
<g><path style="opacity:1" fill="#2b42b1" d="M 24.5,39.5 C 25.8333,46.8333 30.1667,51.1667 37.5,52.5C 34.1758,62.6201 35.1758,72.2868 40.5,81.5C 35.6759,79.8495 30.6759,79.1828 25.5,79.5C 25.4725,76.0836 24.4725,73.0836 22.5,70.5C 23.4629,67.537 25.4629,65.537 28.5,64.5C 24.8406,62.8406 22.1739,60.1739 20.5,56.5C 19.3875,58.4192 18.0542,60.0858 16.5,61.5C 16.9498,53.2845 19.6164,45.9512 24.5,39.5 Z"/></g>
<g><path style="opacity:1" fill="#2a42b0" d="M 102.5,39.5 C 104.5,42.1667 106.5,44.8333 108.5,47.5C 107.71,48.7942 106.71,49.9609 105.5,51C 107.037,52.7073 108.704,54.2073 110.5,55.5C 110.5,57.8333 110.5,60.1667 110.5,62.5C 109.089,64.914 107.089,66.5806 104.5,67.5C 103.685,66.5707 102.852,65.5707 102,64.5C 101.125,67.2146 99.2919,68.5479 96.5,68.5C 97.7501,70.8229 99.0834,73.1563 100.5,75.5C 99.9332,77.0295 99.2666,78.5295 98.5,80C 94.871,79.8903 91.2044,79.7236 87.5,79.5C 91.8899,71.098 92.5566,62.4313 89.5,53.5C 92.6867,51.6497 95.8533,49.6497 99,47.5C 100.845,45.1332 102.011,42.4665 102.5,39.5 Z"/></g>
<g><path style="opacity:1" fill="#f9f4f3" d="M 41.5,44.5 C 44.3198,44.2475 46.9865,44.7475 49.5,46C 58.5172,54.9601 60.8506,65.4601 56.5,77.5C 54.1496,79.2133 53.1496,81.5466 53.5,84.5C 51.507,87.1673 48.8403,88.8339 45.5,89.5C 43.8333,86.8333 42.1667,84.1667 40.5,81.5C 35.1758,72.2868 34.1758,62.6201 37.5,52.5C 38.8007,49.8987 40.134,47.232 41.5,44.5 Z"/></g>
<g><path style="opacity:1" fill="#fcfcfd" d="M 84.5,44.5 C 86.7295,47.1896 88.3962,50.1896 89.5,53.5C 92.5566,62.4313 91.8899,71.098 87.5,79.5C 85.5,82.8333 83.5,86.1667 81.5,89.5C 78.3189,88.6515 75.6523,86.9848 73.5,84.5C 73.8504,81.5466 72.8504,79.2133 70.5,77.5C 67.6718,69.7733 67.8385,62.1066 71,54.5C 73.4314,48.2191 77.9314,44.8858 84.5,44.5 Z"/></g>
<g><path style="opacity:1" fill="#0be6a8" d="M 108.5,47.5 C 114.262,48.7945 114.929,51.4611 110.5,55.5C 108.704,54.2073 107.037,52.7073 105.5,51C 106.71,49.9609 107.71,48.7942 108.5,47.5 Z"/></g>
<g><path style="opacity:1" fill="#4f65d0" d="M 2.5,54.5 C 7.72926,55.7813 12.3959,58.1146 16.5,61.5C 14.8113,62.3037 13.1446,63.3037 11.5,64.5C 15.76,65.7606 18.76,68.4273 20.5,72.5C 21.1818,71.7573 21.8485,71.0906 22.5,70.5C 24.4725,73.0836 25.4725,76.0836 25.5,79.5C 30.6759,79.1828 35.6759,79.8495 40.5,81.5C 42.1667,84.1667 43.8333,86.8333 45.5,89.5C 45.5,89.8333 45.5,90.1667 45.5,90.5C 39.8468,99.13 34.1801,107.797 28.5,116.5C 12.5383,105.939 3.70495,90.9389 2,71.5C 1.53142,65.8185 1.69809,60.1518 2.5,54.5 Z"/></g>
<g><path style="opacity:1" fill="#f3f2f7" d="M 22.5,70.5 C 21.8485,71.0906 21.1818,71.7573 20.5,72.5C 18.76,68.4273 15.76,65.7606 11.5,64.5C 13.1446,63.3037 14.8113,62.3037 16.5,61.5C 18.0542,60.0858 19.3875,58.4192 20.5,56.5C 22.1739,60.1739 24.8406,62.8406 28.5,64.5C 25.4629,65.537 23.4629,67.537 22.5,70.5 Z"/></g>
<g><path style="opacity:1" fill="#a49d9d" d="M 47.5,56.5 C 52.7083,56.369 54.3749,58.7024 52.5,63.5C 48.8052,66.546 46.4718,65.7126 45.5,61C 45.5186,59.167 46.1852,57.667 47.5,56.5 Z"/></g>
<g><path style="opacity:1" fill="#a49d9d" d="M 75.5,56.5 C 81.6426,57.0262 82.9759,59.8595 79.5,65C 73.4987,64.4955 72.1654,61.6621 75.5,56.5 Z"/></g>
<g><path style="opacity:1" fill="#4f65d0" d="M 124.5,58.5 C 126.848,76.9565 122.015,93.2898 110,107.5C 106.845,111.503 103.012,114.503 98.5,116.5C 92.4456,107.772 86.7789,98.7717 81.5,89.5C 83.5,86.1667 85.5,82.8333 87.5,79.5C 91.2044,79.7236 94.871,79.8903 98.5,80C 99.2666,78.5295 99.9332,77.0295 100.5,75.5C 101.5,75.5 102.5,75.5 103.5,75.5C 103.452,72.7081 104.785,70.8747 107.5,70C 106.429,69.1482 105.429,68.3149 104.5,67.5C 107.089,66.5806 109.089,64.914 110.5,62.5C 113.262,61.6205 115.929,60.4538 118.5,59C 120.473,58.5045 122.473,58.3379 124.5,58.5 Z"/></g>
<g><path style="opacity:1" fill="#e9e8f1" d="M 104.5,67.5 C 105.429,68.3149 106.429,69.1482 107.5,70C 104.785,70.8747 103.452,72.7081 103.5,75.5C 102.5,75.5 101.5,75.5 100.5,75.5C 99.0834,73.1563 97.7501,70.8229 96.5,68.5C 99.2919,68.5479 101.125,67.2146 102,64.5C 102.852,65.5707 103.685,66.5707 104.5,67.5 Z"/></g>
<g><path style="opacity:1" fill="#938b8b" d="M 70.5,77.5 C 72.8504,79.2133 73.8504,81.5466 73.5,84.5C 70.4679,86.0798 67.1345,86.7465 63.5,86.5C 59.8655,86.7465 56.5321,86.0798 53.5,84.5C 53.1496,81.5466 54.1496,79.2133 56.5,77.5C 58.9633,76.7674 61.2967,75.7674 63.5,74.5C 65.9963,75.2515 68.3296,76.2515 70.5,77.5 Z"/></g>
<g><path style="opacity:1" fill="#99a6e3" d="M 91.5,87.5 C 97.0761,88.5554 97.7428,90.8888 93.5,94.5C 89.4741,92.8436 88.8074,90.5102 91.5,87.5 Z"/></g>
<g><path style="opacity:1" fill="#28d4af" d="M 26.5,88.5 C 32.532,90.5435 32.8653,93.2102 27.5,96.5C 22.6907,94.2575 22.3574,91.5908 26.5,88.5 Z"/></g>
<g><path style="opacity:1" fill="#ded0cc" d="M 45.5,90.5 C 49.6473,98.382 55.814,100.382 64,96.5C 67.6466,98.5926 71.4799,99.0926 75.5,98C 72.595,105.955 66.9283,108.955 58.5,107C 56.0243,105.691 54.0243,103.858 52.5,101.5C 47.5619,108.393 42.8952,115.393 38.5,122.5C 34.4945,121.502 31.1612,119.502 28.5,116.5C 34.1801,107.797 39.8468,99.13 45.5,90.5 Z"/></g>
<g><path style="opacity:0.982" fill="#efe4df" d="M 53.5,84.5 C 56.5321,86.0798 59.8655,86.7465 63.5,86.5C 67.1345,86.7465 70.4679,86.0798 73.5,84.5C 75.6523,86.9848 78.3189,88.6515 81.5,89.5C 86.7789,98.7717 92.4456,107.772 98.5,116.5C 95.7442,119.389 92.4109,121.556 88.5,123C 83.746,124.642 79.0793,126.142 74.5,127.5C 67.1667,127.5 59.8333,127.5 52.5,127.5C 47.7084,126.236 43.0417,124.569 38.5,122.5C 42.8952,115.393 47.5619,108.393 52.5,101.5C 54.0243,103.858 56.0243,105.691 58.5,107C 66.9283,108.955 72.595,105.955 75.5,98C 71.4799,99.0926 67.6466,98.5926 64,96.5C 55.814,100.382 49.6473,98.382 45.5,90.5C 45.5,90.1667 45.5,89.8333 45.5,89.5C 48.8403,88.8339 51.507,87.1673 53.5,84.5 Z"/></g>
</svg>
