<?xml version="1.0" encoding="UTF-8"?>
<!DOCTYPE svg PUBLIC "-//W3C//DTD SVG 1.1//EN" "http://www.w3.org/Graphics/SVG/1.1/DTD/svg11.dtd">
<svg xmlns="http://www.w3.org/2000/svg" version="1.1" width="512px" height="512px" style="shape-rendering:geometricPrecision; text-rendering:geometricPrecision; image-rendering:optimizeQuality; fill-rule:evenodd; clip-rule:evenodd" xmlns:xlink="http://www.w3.org/1999/xlink">
<g><path style="opacity:1" fill="#fdb137" d="M 252.5,-0.5 C 254.5,-0.5 256.5,-0.5 258.5,-0.5C 263.741,2.40396 268.407,6.07063 272.5,10.5C 237.089,42.7919 225.923,82.1253 239,128.5C 240.605,132.485 242.105,136.485 243.5,140.5C 242.5,140.5 241.5,140.5 240.5,140.5C 231.469,120.801 217.802,105.135 199.5,93.5C 199.993,77.5294 203.327,62.1961 209.5,47.5C 214.581,39.0052 219.914,30.6719 225.5,22.5C 233.593,13.738 242.593,6.07132 252.5,-0.5 Z"/></g>
<g><path style="opacity:1" fill="#fec244" d="M 272.5,10.5 C 277.486,13.8206 281.82,17.8206 285.5,22.5C 291.243,30.3083 296.243,38.6416 300.5,47.5C 307.137,61.0473 310.47,75.3806 310.5,90.5C 289.862,102.136 274.862,118.802 265.5,140.5C 258.167,140.5 250.833,140.5 243.5,140.5C 242.105,136.485 240.605,132.485 239,128.5C 225.923,82.1253 237.089,42.7919 272.5,10.5 Z"/></g>
<g><path style="opacity:0.964" fill="#2c41ae" d="M 225.5,22.5 C 219.914,30.6719 214.581,39.0052 209.5,47.5C 206.227,44.8558 202.56,42.6891 198.5,41C 191.429,38.3676 184.429,35.8676 177.5,33.5C 193.205,28.559 209.205,24.8923 225.5,22.5 Z"/></g>
<g><path style="opacity:0.969" fill="#2c41ae" d="M 285.5,22.5 C 301.574,24.5141 317.241,28.1808 332.5,33.5C 321.423,37.0339 310.757,41.7006 300.5,47.5C 296.243,38.6416 291.243,30.3083 285.5,22.5 Z"/></g>
<g><path style="opacity:0.997" fill="#eb9f26" d="M 366.5,47.5 C 369.756,55.8598 371.756,64.5265 372.5,73.5C 358.505,78.2008 344.172,81.7008 329.5,84C 322.968,85.6772 316.634,87.8438 310.5,90.5C 310.47,75.3806 307.137,61.0473 300.5,47.5C 310.757,41.7006 321.423,37.0339 332.5,33.5C 340.772,31.8728 349.105,31.0395 357.5,31C 361.904,35.6345 364.904,41.1345 366.5,47.5 Z"/></g>
<g><path style="opacity:0.997" fill="#f5aa31" d="M 177.5,33.5 C 184.429,35.8676 191.429,38.3676 198.5,41C 202.56,42.6891 206.227,44.8558 209.5,47.5C 203.327,62.1961 199.993,77.5294 199.5,93.5C 193.732,90.5195 187.732,88.0195 181.5,86C 166.868,83.2263 152.535,79.7263 138.5,75.5C 138.92,65.8192 140.92,56.4859 144.5,47.5C 146.096,41.1345 149.096,35.6345 153.5,31C 161.58,30.9748 169.58,31.8081 177.5,33.5 Z"/></g>
<g><path style="opacity:1" fill="#fdb137" d="M 98.5,56.5 C 94.7634,100.727 111.097,135.06 147.5,159.5C 151.806,169.43 158.472,177.43 167.5,183.5C 166.358,187.117 164.692,190.45 162.5,193.5C 160.473,193.662 158.473,193.495 156.5,193C 137.421,185.968 120.088,176.135 104.5,163.5C 87.5692,146.64 77.2358,126.307 73.5,102.5C 71.0229,83.1183 72.6895,64.1183 78.5,45.5C 80.9956,43.0466 83.6623,42.8799 86.5,45C 90.3954,49.0647 94.3954,52.898 98.5,56.5 Z"/></g>
<g><path style="opacity:1" fill="#fdb137" d="M 432.5,67.5 C 416.338,79.7466 398.338,88.58 378.5,94C 367.45,96.924 356.45,99.424 345.5,101.5C 320.156,103.492 303.49,116.492 295.5,140.5C 285.5,140.5 275.5,140.5 265.5,140.5C 274.862,118.802 289.862,102.136 310.5,90.5C 316.634,87.8438 322.968,85.6772 329.5,84C 344.172,81.7008 358.505,78.2008 372.5,73.5C 377.668,72.1657 382.668,70.3323 387.5,68C 390.239,66.9741 392.572,65.4741 394.5,63.5C 397.94,61.9451 401.273,60.1118 404.5,58C 410.671,53.3243 416.671,48.491 422.5,43.5C 425.168,43.7453 427.002,45.0786 428,47.5C 429.954,54.1079 431.454,60.7745 432.5,67.5 Z"/></g>
<g><path style="opacity:0.961" fill="#2d41ae" d="M 144.5,47.5 C 140.92,56.4859 138.92,65.8192 138.5,75.5C 129.833,73.5076 121.833,70.1743 114.5,65.5C 123.837,58.4938 133.837,52.4938 144.5,47.5 Z"/></g>
<g><path style="opacity:0.97" fill="#2b40ae" d="M 366.5,47.5 C 376.159,52.3275 385.492,57.6609 394.5,63.5C 392.572,65.4741 390.239,66.9741 387.5,68C 382.668,70.3323 377.668,72.1657 372.5,73.5C 371.756,64.5265 369.756,55.8598 366.5,47.5 Z"/></g>
<g><path style="opacity:0.999" fill="#fec344" d="M 98.5,56.5 C 103.833,59.5 109.167,62.5 114.5,65.5C 121.833,70.1743 129.833,73.5076 138.5,75.5C 152.535,79.7263 166.868,83.2263 181.5,86C 187.732,88.0195 193.732,90.5195 199.5,93.5C 217.802,105.135 231.469,120.801 240.5,140.5C 239.5,140.5 238.5,140.5 237.5,140.5C 229.747,140.799 222.08,140.466 214.5,139.5C 208.586,120.422 195.92,108.255 176.5,103C 170.871,101.803 165.204,101.47 159.5,102C 143.983,118.729 139.983,137.895 147.5,159.5C 111.097,135.06 94.7634,100.727 98.5,56.5 Z"/></g>
<g><path style="opacity:0.998" fill="#fec244" d="M 432.5,67.5 C 433.606,77.2284 433.606,86.895 432.5,96.5C 430.213,122.402 419.88,144.402 401.5,162.5C 392.628,161.615 383.961,159.782 375.5,157C 371.848,156.501 368.182,156.335 364.5,156.5C 369.982,138.427 367.149,121.76 356,106.5C 353.45,102.808 349.95,101.142 345.5,101.5C 356.45,99.424 367.45,96.924 378.5,94C 398.338,88.58 416.338,79.7466 432.5,67.5 Z"/></g>
<g><path style="opacity:0.988" fill="#2840af" d="M 432.5,96.5 C 449.944,114.043 463.944,134.043 474.5,156.5C 454.184,164.12 433.184,166.62 411.5,164C 408.173,163.39 404.839,162.89 401.5,162.5C 419.88,144.402 430.213,122.402 432.5,96.5 Z"/></g>
<g><path style="opacity:0.989" fill="#2a40af" d="M 73.5,102.5 C 77.2358,126.307 87.5692,146.64 104.5,163.5C 88.1652,166.076 71.8318,166.076 55.5,163.5C 49.3186,160.992 42.9853,158.659 36.5,156.5C 45.7158,136.298 58.0491,118.298 73.5,102.5 Z"/></g>
<g><path style="opacity:1" fill="#ffefab" d="M 214.5,139.5 C 210.02,140.521 205.353,141.187 200.5,141.5C 196.644,130.977 189.644,123.31 179.5,118.5C 175.284,116.861 170.951,116.027 166.5,116C 155.49,130.147 154.656,144.98 164,160.5C 167.044,165.045 170.877,168.711 175.5,171.5C 173.316,175.881 170.65,179.881 167.5,183.5C 158.472,177.43 151.806,169.43 147.5,159.5C 139.983,137.895 143.983,118.729 159.5,102C 165.204,101.47 170.871,101.803 176.5,103C 195.92,108.255 208.586,120.422 214.5,139.5 Z"/></g>
<g><path style="opacity:1" fill="#ffe075" d="M 345.5,101.5 C 349.95,101.142 353.45,102.808 356,106.5C 367.149,121.76 369.982,138.427 364.5,156.5C 360.256,167.971 352.923,176.971 342.5,183.5C 339.868,179.189 337.201,174.856 334.5,170.5C 337.809,169.758 340.643,168.091 343,165.5C 351.916,155.067 354.916,143.067 352,129.5C 351.058,126.626 349.891,123.96 348.5,121.5C 347.397,117.406 344.731,115.739 340.5,116.5C 325.201,119.137 315.201,127.804 310.5,142.5C 305.657,140.961 300.657,140.294 295.5,140.5C 303.49,116.492 320.156,103.492 345.5,101.5 Z"/></g>
<g><path style="opacity:1" fill="#feb238" d="M 179.5,118.5 C 174.735,128.761 173.568,139.428 176,150.5C 177.811,154.116 179.311,157.783 180.5,161.5C 178.82,164.86 177.153,168.193 175.5,171.5C 170.877,168.711 167.044,165.045 164,160.5C 154.656,144.98 155.49,130.147 166.5,116C 170.951,116.027 175.284,116.861 179.5,118.5 Z"/></g>
<g><path style="opacity:1" fill="#feb138" d="M 348.5,121.5 C 348.5,122.5 348.5,123.5 348.5,124.5C 343.036,125.565 338.036,127.732 333.5,131C 327.966,135.993 323.299,141.493 319.5,147.5C 316.661,145.58 313.661,143.913 310.5,142.5C 315.201,127.804 325.201,119.137 340.5,116.5C 344.731,115.739 347.397,117.406 348.5,121.5 Z"/></g>
<g><path style="opacity:1" fill="#ffc344" d="M 179.5,118.5 C 189.644,123.31 196.644,130.977 200.5,141.5C 191.5,145.833 184.833,152.5 180.5,161.5C 179.311,157.783 177.811,154.116 176,150.5C 173.568,139.428 174.735,128.761 179.5,118.5 Z"/></g>
<g><path style="opacity:1" fill="#ffc344" d="M 348.5,121.5 C 349.891,123.96 351.058,126.626 352,129.5C 354.916,143.067 351.916,155.067 343,165.5C 340.643,168.091 337.809,169.758 334.5,170.5C 330.68,162.023 325.68,154.357 319.5,147.5C 323.299,141.493 327.966,135.993 333.5,131C 338.036,127.732 343.036,125.565 348.5,124.5C 348.5,123.5 348.5,122.5 348.5,121.5 Z"/></g>
<g><path style="opacity:1" fill="#fee077" d="M 214.5,139.5 C 222.08,140.466 229.747,140.799 237.5,140.5C 230.768,143.044 224.935,147.044 220,152.5C 212.488,165.527 204.988,178.527 197.5,191.5C 192.505,187.04 188.672,188.04 186,194.5C 183.239,201.308 182.739,208.308 184.5,215.5C 181.683,218.142 180.183,221.475 180,225.5C 179.016,231.705 179.683,237.705 182,243.5C 191.767,257.384 201.267,271.384 210.5,285.5C 205.89,294.1 200.89,302.434 195.5,310.5C 184.167,294.833 172.833,279.167 161.5,263.5C 155.248,255.915 150.248,247.582 146.5,238.5C 144.981,231.71 145.481,225.043 148,218.5C 152.845,210.139 157.678,201.806 162.5,193.5C 164.692,190.45 166.358,187.117 167.5,183.5C 170.65,179.881 173.316,175.881 175.5,171.5C 177.153,168.193 178.82,164.86 180.5,161.5C 184.833,152.5 191.5,145.833 200.5,141.5C 205.353,141.187 210.02,140.521 214.5,139.5 Z"/></g>
<g><path style="opacity:1" fill="#feefac" d="M 237.5,140.5 C 238.5,140.5 239.5,140.5 240.5,140.5C 241.5,140.5 242.5,140.5 243.5,140.5C 250.833,140.5 258.167,140.5 265.5,140.5C 275.5,140.5 285.5,140.5 295.5,140.5C 300.657,140.294 305.657,140.961 310.5,142.5C 313.661,143.913 316.661,145.58 319.5,147.5C 325.68,154.357 330.68,162.023 334.5,170.5C 337.201,174.856 339.868,179.189 342.5,183.5C 342.5,184.167 342.833,184.5 343.5,184.5C 349.976,196.112 356.476,207.779 363,219.5C 366.456,227.957 366.123,236.29 362,244.5C 357.823,250.862 353.656,257.195 349.5,263.5C 337.81,279.199 326.477,295.199 315.5,311.5C 305.93,296.034 296.596,280.368 287.5,264.5C 288.802,260.231 289.802,255.898 290.5,251.5C 290.184,246.001 287.851,241.501 283.5,238C 278.471,234.49 273.471,230.99 268.5,227.5C 262.062,221.11 254.729,219.943 246.5,224C 240.779,228.721 234.779,233.054 228.5,237C 221.66,241.845 219.16,248.345 221,256.5C 221.993,259.474 222.826,262.474 223.5,265.5C 219.167,272.167 214.833,278.833 210.5,285.5C 201.267,271.384 191.767,257.384 182,243.5C 179.683,237.705 179.016,231.705 180,225.5C 180.183,221.475 181.683,218.142 184.5,215.5C 193.08,230.766 205.413,234.6 221.5,227C 224.58,225.289 225.746,222.789 225,219.5C 215.631,210.298 206.464,200.965 197.5,191.5C 204.988,178.527 212.488,165.527 220,152.5C 224.935,147.044 230.768,143.044 237.5,140.5 Z"/></g>
<g><path style="opacity:1" fill="#fcb038" d="M 364.5,156.5 C 368.182,156.335 371.848,156.501 375.5,157C 383.961,159.782 392.628,161.615 401.5,162.5C 404.839,162.89 408.173,163.39 411.5,164C 433.184,166.62 454.184,164.12 474.5,156.5C 478.573,157.587 480.239,160.254 479.5,164.5C 477.52,171.746 475.52,179.079 473.5,186.5C 453.354,190.805 433.021,191.638 412.5,189C 401.101,186.984 389.768,184.65 378.5,182C 366.658,180.855 354.992,181.688 343.5,184.5C 342.833,184.5 342.5,184.167 342.5,183.5C 352.923,176.971 360.256,167.971 364.5,156.5 Z"/></g>
<g><path style="opacity:1" fill="#fec244" d="M 55.5,163.5 C 71.8318,166.076 88.1652,166.076 104.5,163.5C 120.088,176.135 137.421,185.968 156.5,193C 158.473,193.495 160.473,193.662 162.5,193.5C 157.678,201.806 152.845,210.139 148,218.5C 145.481,225.043 144.981,231.71 146.5,238.5C 100.702,232.12 70.3683,207.12 55.5,163.5 Z"/></g>
<g><path style="opacity:0.991" fill="#2840af" d="M 31.5,164.5 C 36.2723,194.212 49.6056,219.378 71.5,240C 76.4453,244.116 81.7786,247.616 87.5,250.5C 69.6731,273.324 61.6731,299.324 63.5,328.5C 52.1433,342.537 42.8099,357.87 35.5,374.5C 14.9677,333.66 6.80106,290.326 11,244.5C 13.4544,216.682 20.2878,190.015 31.5,164.5 Z"/></g>
<g><path style="opacity:0.992" fill="#2740af" d="M 479.5,164.5 C 501.903,216.536 506.736,270.203 494,325.5C 489.874,342.727 483.707,359.06 475.5,374.5C 466.958,355.754 456.125,338.42 443,322.5C 442.722,323.416 442.222,324.082 441.5,324.5C 442.937,302.979 438.104,282.979 427,264.5C 424.228,260.612 421.728,256.612 419.5,252.5C 446.584,238.069 464.584,216.069 473.5,186.5C 475.52,179.079 477.52,171.746 479.5,164.5 Z"/></g>
<g><path style="opacity:1" fill="#fec244" d="M 473.5,186.5 C 464.584,216.069 446.584,238.069 419.5,252.5C 397.713,261.847 375.047,266.18 351.5,265.5C 350.5,265.167 349.833,264.5 349.5,263.5C 353.656,257.195 357.823,250.862 362,244.5C 366.123,236.29 366.456,227.957 363,219.5C 356.476,207.779 349.976,196.112 343.5,184.5C 354.992,181.688 366.658,180.855 378.5,182C 389.768,184.65 401.101,186.984 412.5,189C 433.021,191.638 453.354,190.805 473.5,186.5 Z"/></g>
<g><path style="opacity:1" fill="#ec816b" d="M 197.5,191.5 C 206.464,200.965 215.631,210.298 225,219.5C 225.746,222.789 224.58,225.289 221.5,227C 205.413,234.6 193.08,230.766 184.5,215.5C 182.739,208.308 183.239,201.308 186,194.5C 188.672,188.04 192.505,187.04 197.5,191.5 Z"/></g>
<g><path style="opacity:1" fill="#ec816c" d="M 317.5,188.5 C 323.442,189.612 326.942,193.278 328,199.5C 329.833,221.667 319.667,231.833 297.5,230C 293.49,228.657 289.99,226.491 287,223.5C 286.333,222.167 286.333,220.833 287,219.5C 297.369,209.298 307.535,198.965 317.5,188.5 Z"/></g>
<g><path style="opacity:1" fill="#c6725b" d="M 268.5,227.5 C 261.618,231.535 255.118,236.202 249,241.5C 246.57,244.195 245.403,247.362 245.5,251C 248.056,261.671 251.223,272.171 255,282.5C 258.642,288.238 263.809,290.571 270.5,289.5C 261.014,290.494 251.348,290.827 241.5,290.5C 237.49,289.411 233.99,287.411 231,284.5C 228.002,278.336 225.502,272.003 223.5,265.5C 222.826,262.474 221.993,259.474 221,256.5C 219.16,248.345 221.66,241.845 228.5,237C 234.779,233.054 240.779,228.721 246.5,224C 254.729,219.943 262.062,221.11 268.5,227.5 Z"/></g>
<g><path style="opacity:1" fill="#eb806b" d="M 268.5,227.5 C 273.471,230.99 278.471,234.49 283.5,238C 287.851,241.501 290.184,246.001 290.5,251.5C 289.802,255.898 288.802,260.231 287.5,264.5C 285.349,270.391 283.183,276.391 281,282.5C 278.394,286.29 274.894,288.623 270.5,289.5C 263.809,290.571 258.642,288.238 255,282.5C 251.223,272.171 248.056,261.671 245.5,251C 245.403,247.362 246.57,244.195 249,241.5C 255.118,236.202 261.618,231.535 268.5,227.5 Z"/></g>
<g><path style="opacity:1" fill="#05eda6" d="M 458.5,246.5 C 464.088,250.417 469.088,255.084 473.5,260.5C 469.137,265.697 464.303,270.364 459,274.5C 453.833,270.667 449.333,266.167 445.5,261C 449.657,256.009 453.991,251.176 458.5,246.5 Z"/></g>
<g><path style="opacity:1" fill="#ea9f27" d="M 87.5,250.5 C 97.3071,255.937 107.64,260.103 118.5,263C 95.1726,287.217 85.8393,315.717 90.5,348.5C 86.009,352.491 81.6757,356.657 77.5,361C 74.1653,363.291 71.332,362.791 69,359.5C 66.1989,349.329 64.3655,338.995 63.5,328.5C 61.6731,299.324 69.6731,273.324 87.5,250.5 Z"/></g>
<g><path style="opacity:1" fill="#f5aa31" d="M 419.5,252.5 C 421.728,256.612 424.228,260.612 427,264.5C 438.104,282.979 442.937,302.979 441.5,324.5C 441.053,335.638 439.553,346.638 437,357.5C 435.309,361.213 432.475,362.379 428.5,361C 417.494,349.494 404.494,340.994 389.5,335.5C 383.623,333.065 377.623,330.898 371.5,329C 357.566,326.384 343.9,323.217 330.5,319.5C 341.461,307.37 352.628,295.37 364,283.5C 364.635,281.365 364.301,279.365 363,277.5C 358.963,273.631 355.13,269.631 351.5,265.5C 375.047,266.18 397.713,261.847 419.5,252.5 Z"/></g>
<g><path style="opacity:1" fill="#f6f3f4" d="M 43.5,241.5 C 44.8221,241.33 45.9887,241.663 47,242.5C 47.9888,247.312 50.1555,251.479 53.5,255C 57.3866,256.773 61.0533,258.773 64.5,261C 61.0533,263.227 57.3866,265.227 53.5,267C 50.1555,270.521 47.9888,274.688 47,279.5C 45.6667,280.833 44.3333,280.833 43,279.5C 41.5,270 36,264.5 26.5,263C 25.1667,261.667 25.1667,260.333 26.5,259C 36.3986,257.268 42.0653,251.435 43.5,241.5 Z"/></g>
<g><path style="opacity:1" fill="#f9ad34" d="M 36.5,156.5 C 42.9853,158.659 49.3186,160.992 55.5,163.5C 70.3683,207.12 100.702,232.12 146.5,238.5C 150.248,247.582 155.248,255.915 161.5,263.5C 156.504,268.664 151.671,273.997 147,279.5C 146.333,280.833 146.333,282.167 147,283.5C 158.039,295.036 168.872,306.703 179.5,318.5C 169.994,321.364 160.327,323.698 150.5,325.5C 137.86,359.422 140.86,391.755 159.5,422.5C 156.638,428.39 153.638,434.223 150.5,440C 145.176,440.21 141.51,437.71 139.5,432.5C 130.316,418.935 123.649,404.268 119.5,388.5C 115.012,370.309 115.679,352.309 121.5,334.5C 121.167,334.167 120.833,333.833 120.5,333.5C 109.916,337.459 99.9156,342.459 90.5,348.5C 85.8393,315.717 95.1726,287.217 118.5,263C 107.64,260.103 97.3071,255.937 87.5,250.5C 81.7786,247.616 76.4453,244.116 71.5,240C 49.6056,219.378 36.2723,194.212 31.5,164.5C 30.7606,160.254 32.4273,157.587 36.5,156.5 Z"/></g>
<g><path style="opacity:1" fill="#feefab" d="M 161.5,263.5 C 172.833,279.167 184.167,294.833 195.5,310.5C 193.612,314.606 191.446,318.606 189,322.5C 188.503,325.146 188.336,327.813 188.5,330.5C 187.151,325.455 184.151,321.455 179.5,318.5C 168.872,306.703 158.039,295.036 147,283.5C 146.333,282.167 146.333,280.833 147,279.5C 151.671,273.997 156.504,268.664 161.5,263.5 Z"/></g>
<g><path style="opacity:1" fill="#fee076" d="M 349.5,263.5 C 349.833,264.5 350.5,265.167 351.5,265.5C 355.13,269.631 358.963,273.631 363,277.5C 364.301,279.365 364.635,281.365 364,283.5C 352.628,295.37 341.461,307.37 330.5,319.5C 326.172,322.133 323.505,325.799 322.5,330.5C 322.663,328.143 322.497,325.81 322,323.5C 320.006,319.357 317.839,315.357 315.5,311.5C 326.477,295.199 337.81,279.199 349.5,263.5 Z"/></g>
<g><path style="opacity:1" fill="#f9f2f0" d="M 223.5,265.5 C 225.502,272.003 228.002,278.336 231,284.5C 233.99,287.411 237.49,289.411 241.5,290.5C 235.609,301.275 229.443,311.942 223,322.5C 222.19,327.257 222.524,331.924 224,336.5C 234.833,348.667 245.667,360.833 256.5,373C 258.167,374 259.833,375 261.5,376C 267.491,376.499 273.491,376.666 279.5,376.5C 263.339,377.662 247.005,377.828 230.5,377C 226.472,375.788 223.138,373.621 220.5,370.5C 211.206,360.037 201.706,349.703 192,339.5C 189.95,336.852 188.784,333.852 188.5,330.5C 188.336,327.813 188.503,325.146 189,322.5C 191.446,318.606 193.612,314.606 195.5,310.5C 200.89,302.434 205.89,294.1 210.5,285.5C 214.833,278.833 219.167,272.167 223.5,265.5 Z"/></g>
<g><path style="opacity:1" fill="#fefefe" d="M 287.5,264.5 C 296.596,280.368 305.93,296.034 315.5,311.5C 317.839,315.357 320.006,319.357 322,323.5C 322.497,325.81 322.663,328.143 322.5,330.5C 321.818,334.198 320.318,337.531 318,340.5C 308.627,350.37 299.46,360.37 290.5,370.5C 288.704,371.793 287.037,373.293 285.5,375C 283.564,375.813 281.564,376.313 279.5,376.5C 273.491,376.666 267.491,376.499 261.5,376C 259.833,375 258.167,374 256.5,373C 245.667,360.833 234.833,348.667 224,336.5C 222.524,331.924 222.19,327.257 223,322.5C 229.443,311.942 235.609,301.275 241.5,290.5C 251.348,290.827 261.014,290.494 270.5,289.5C 274.894,288.623 278.394,286.29 281,282.5C 283.183,276.391 285.349,270.391 287.5,264.5 Z"/></g>
<g><path style="opacity:1" fill="#fec344" d="M 179.5,318.5 C 184.151,321.455 187.151,325.455 188.5,330.5C 188.784,333.852 189.95,336.852 192,339.5C 201.706,349.703 211.206,360.037 220.5,370.5C 215.728,372.72 211.062,375.22 206.5,378C 204.76,379.517 203.094,381.017 201.5,382.5C 184.584,392.748 170.584,406.082 159.5,422.5C 140.86,391.755 137.86,359.422 150.5,325.5C 160.327,323.698 169.994,321.364 179.5,318.5 Z"/></g>
<g><path style="opacity:1" fill="#fec344" d="M 330.5,319.5 C 343.9,323.217 357.566,326.384 371.5,329C 377.623,330.898 383.623,333.065 389.5,335.5C 391.128,339.678 392.295,344.011 393,348.5C 393.934,361.576 393.434,374.576 391.5,387.5C 386.668,405.501 378.835,422.168 368,437.5C 365.294,440.978 362.294,441.311 359,438.5C 348.67,414.339 332.17,395.672 309.5,382.5C 303.706,377.717 297.372,373.717 290.5,370.5C 299.46,360.37 308.627,350.37 318,340.5C 320.318,337.531 321.818,334.198 322.5,330.5C 323.505,325.799 326.172,322.133 330.5,319.5 Z"/></g>
<g><path style="opacity:1" fill="#334dc8" d="M 475.5,374.5 C 462.796,401.54 445.463,425.207 423.5,445.5C 413.197,428.336 403.03,411.003 393,393.5C 391.872,391.655 391.372,389.655 391.5,387.5C 393.434,374.576 393.934,361.576 393,348.5C 392.295,344.011 391.128,339.678 389.5,335.5C 404.494,340.994 417.494,349.494 428.5,361C 432.475,362.379 435.309,361.213 437,357.5C 439.553,346.638 441.053,335.638 441.5,324.5C 442.222,324.082 442.722,323.416 443,322.5C 456.125,338.42 466.958,355.754 475.5,374.5 Z"/></g>
<g><path style="opacity:1" fill="#324dc8" d="M 63.5,328.5 C 64.3655,338.995 66.1989,349.329 69,359.5C 71.332,362.791 74.1653,363.291 77.5,361C 81.6757,356.657 86.009,352.491 90.5,348.5C 99.9156,342.459 109.916,337.459 120.5,333.5C 120.833,333.833 121.167,334.167 121.5,334.5C 115.679,352.309 115.012,370.309 119.5,388.5C 109.625,407.915 98.9579,426.915 87.5,445.5C 65.5375,425.207 48.2041,401.54 35.5,374.5C 42.8099,357.87 52.1433,342.537 63.5,328.5 Z"/></g>
<g><path style="opacity:1" fill="#fbaf35" d="M 220.5,370.5 C 223.138,373.621 226.472,375.788 230.5,377C 247.005,377.828 263.339,377.662 279.5,376.5C 281.564,376.313 283.564,375.813 285.5,375C 287.037,373.293 288.704,371.793 290.5,370.5C 297.372,373.717 303.706,377.717 309.5,382.5C 303.343,414.134 287.009,438.967 260.5,457C 257.167,459 253.833,459 250.5,457C 223.772,439.053 207.438,414.22 201.5,382.5C 203.094,381.017 204.76,379.517 206.5,378C 211.062,375.22 215.728,372.72 220.5,370.5 Z"/></g>
<g><path style="opacity:1" fill="#0eeaa7" d="M 89.5,371.5 C 95.6756,374.996 101.009,379.663 105.5,385.5C 101.137,390.697 96.3034,395.364 91,399.5C 85.6286,395.629 81.1286,390.963 77.5,385.5C 81.1173,380.546 85.1173,375.879 89.5,371.5 Z"/></g>
<g><path style="opacity:0.996" fill="#fee076" d="M 201.5,382.5 C 207.438,414.22 223.772,439.053 250.5,457C 253.833,459 257.167,459 260.5,457C 287.009,438.967 303.343,414.134 309.5,382.5C 332.17,395.672 348.67,414.339 359,438.5C 362.294,441.311 365.294,440.978 368,437.5C 378.835,422.168 386.668,405.501 391.5,387.5C 391.372,389.655 391.872,391.655 393,393.5C 403.03,411.003 413.197,428.336 423.5,445.5C 382.336,483.743 333.669,505.743 277.5,511.5C 262.833,511.5 248.167,511.5 233.5,511.5C 190.736,507.247 151.736,492.914 116.5,468.5C 117.376,468.631 118.043,468.298 118.5,467.5C 124.771,455.273 131.771,443.606 139.5,432.5C 141.51,437.71 145.176,440.21 150.5,440C 153.638,434.223 156.638,428.39 159.5,422.5C 170.584,406.082 184.584,392.748 201.5,382.5 Z"/></g>
<g><path style="opacity:1" fill="#f6f3f5" d="M 423.5,369.5 C 424.822,369.33 425.989,369.663 427,370.5C 427.989,375.312 430.156,379.479 433.5,383C 437.387,384.773 441.053,386.773 444.5,389C 441.053,391.227 437.387,393.227 433.5,395C 430.156,398.521 427.989,402.688 427,407.5C 425.667,408.833 424.333,408.833 423,407.5C 421.5,398 416,392.5 406.5,391C 405.167,389.667 405.167,388.333 406.5,387C 416.399,385.268 422.065,379.435 423.5,369.5 Z"/></g>
<g><path style="opacity:1" fill="#fed05b" d="M 119.5,388.5 C 123.649,404.268 130.316,418.935 139.5,432.5C 131.771,443.606 124.771,455.273 118.5,467.5C 118.043,468.298 117.376,468.631 116.5,468.5C 105.945,461.945 96.2788,454.278 87.5,445.5C 98.9579,426.915 109.625,407.915 119.5,388.5 Z"/></g>
</svg>
