<?xml version="1.0" encoding="UTF-8"?>
<!DOCTYPE svg PUBLIC "-//W3C//DTD SVG 1.1//EN" "http://www.w3.org/Graphics/SVG/1.1/DTD/svg11.dtd">
<svg xmlns="http://www.w3.org/2000/svg" version="1.1" width="128px" height="128px" style="shape-rendering:geometricPrecision; text-rendering:geometricPrecision; image-rendering:optimizeQuality; fill-rule:evenodd; clip-rule:evenodd" xmlns:xlink="http://www.w3.org/1999/xlink">
<g><path style="opacity:0.958" fill="#01bff9" d="M 88.5,-0.5 C 92.8333,-0.5 97.1667,-0.5 101.5,-0.5C 109.108,3.10576 113.108,9.10576 113.5,17.5C 113.675,19.6208 113.341,21.6208 112.5,23.5C 111.262,24.4124 109.928,24.5791 108.5,24C 103.212,10.3455 93.7123,6.17886 80,11.5C 78.9701,11.1639 78.4701,10.4972 78.5,9.5C 79.1098,8.60895 79.4431,7.60895 79.5,6.5C 81.9573,3.44159 84.9573,1.10826 88.5,-0.5 Z"/></g>
<g><path style="opacity:0.992" fill="#02bdf8" d="M 40.5,1.5 C 43.6743,2.01019 46.0077,3.67686 47.5,6.5C 49.3357,9.18257 50.3357,12.1826 50.5,15.5C 42.9421,12.5309 35.6087,12.8642 28.5,16.5C 24.8051,18.8694 22.3051,22.2027 21,26.5C 17.09,15.4586 20.59,7.2919 31.5,2C 34.4816,1.50204 37.4816,1.33537 40.5,1.5 Z"/></g>
<g><path style="opacity:0.987" fill="#2743b1" d="M 79.5,6.5 C 79.4431,7.60895 79.1098,8.60895 78.5,9.5C 76.9261,11.1016 76.2594,13.1016 76.5,15.5C 81.6853,13.7483 87.0187,13.2483 92.5,14C 95.5433,14.3318 97.5433,15.8318 98.5,18.5C 93.3947,22.4069 87.7281,23.4069 81.5,21.5C 83.0244,28.3499 87.3578,32.0166 94.5,32.5C 96.9498,32.2389 99.2831,31.5723 101.5,30.5C 103.071,31.9754 104.405,33.642 105.5,35.5C 103.714,36.722 101.714,37.3887 99.5,37.5C 94.845,36.6023 90.1783,35.769 85.5,35C 83.867,34.5204 82.5336,33.6871 81.5,32.5C 81.1075,30.7162 80.4408,29.0495 79.5,27.5C 80.8155,22.164 78.8155,19.4974 73.5,19.5C 72.5815,17.1795 71.2482,15.0129 69.5,13C 67.3927,12.1458 66.0593,12.8125 65.5,15C 67.1109,17.2097 67.7776,19.7097 67.5,22.5C 65.1667,22.5 62.8333,22.5 60.5,22.5C 60.1667,22.5 59.8333,22.5 59.5,22.5C 59.2224,19.7097 59.8891,17.2097 61.5,15C 60.9407,12.8125 59.6073,12.1458 57.5,13C 55.372,14.7918 54.0387,16.9584 53.5,19.5C 48.1845,19.4974 46.1845,22.164 47.5,27.5C 46.2271,29.7128 45.2271,32.0462 44.5,34.5C 38.3989,34.8502 32.3989,35.8502 26.5,37.5C 24.3076,37.2427 22.6409,36.2427 21.5,34.5C 22.853,33.4739 23.853,32.1405 24.5,30.5C 31.3166,33.7399 37.4833,32.7399 43,27.5C 44.5588,25.7834 45.3921,23.7834 45.5,21.5C 40.2485,23.2966 35.2485,22.7966 30.5,20C 29.1772,19.1841 28.5106,18.0174 28.5,16.5C 35.6087,12.8642 42.9421,12.5309 50.5,15.5C 50.3357,12.1826 49.3357,9.18257 47.5,6.5C 58.1667,3.83333 68.8333,3.83333 79.5,6.5 Z"/></g>
<g><path style="opacity:1" fill="#08a8f0" d="M 78.5,9.5 C 78.4701,10.4972 78.9701,11.1639 80,11.5C 93.7123,6.17886 103.212,10.3455 108.5,24C 109.928,24.5791 111.262,24.4124 112.5,23.5C 112.309,27.5332 110.309,29.0332 106.5,28C 105.206,25.913 104.039,23.7463 103,21.5C 101.871,19.8588 100.371,18.8588 98.5,18.5C 97.5433,15.8318 95.5433,14.3318 92.5,14C 87.0187,13.2483 81.6853,13.7483 76.5,15.5C 76.2594,13.1016 76.9261,11.1016 78.5,9.5 Z"/></g>
<g><path style="opacity:1" fill="#15a2ec" d="M 59.5,22.5 C 57.8333,22.5 56.1667,22.5 54.5,22.5C 54.4431,21.391 54.1098,20.391 53.5,19.5C 54.0387,16.9584 55.372,14.7918 57.5,13C 59.6073,12.1458 60.9407,12.8125 61.5,15C 59.8891,17.2097 59.2224,19.7097 59.5,22.5 Z"/></g>
<g><path style="opacity:1" fill="#1aa5ed" d="M 73.5,19.5 C 72.8902,20.391 72.5569,21.391 72.5,22.5C 68.3989,23.7908 64.3989,23.7908 60.5,22.5C 62.8333,22.5 65.1667,22.5 67.5,22.5C 67.7776,19.7097 67.1109,17.2097 65.5,15C 66.0593,12.8125 67.3927,12.1458 69.5,13C 71.2482,15.0129 72.5815,17.1795 73.5,19.5 Z"/></g>
<g><path style="opacity:1" fill="#02c5fa" d="M 13.5,17.5 C 13.4081,21.059 14.2415,24.3924 16,27.5C 17.7959,28.767 19.6293,28.767 21.5,27.5C 22.8549,28.1882 23.8549,29.1882 24.5,30.5C 23.853,32.1405 22.853,33.4739 21.5,34.5C 17.9796,36.5383 14.3129,36.8716 10.5,35.5C 10.1667,35.5 9.83333,35.5 9.5,35.5C 4.64059,30.4741 4.30726,25.1408 8.5,19.5C 9.84983,18.0499 11.5165,17.3832 13.5,17.5 Z"/></g>
<g><path style="opacity:1" fill="#09a7ef" d="M 25.5,-0.5 C 29.8333,-0.5 34.1667,-0.5 38.5,-0.5C 39.1667,0.166667 39.8333,0.833333 40.5,1.5C 37.4816,1.33537 34.4816,1.50204 31.5,2C 20.59,7.2919 17.09,15.4586 21,26.5C 22.3051,22.2027 24.8051,18.8694 28.5,16.5C 28.5106,18.0174 29.1772,19.1841 30.5,20C 35.2485,22.7966 40.2485,23.2966 45.5,21.5C 45.3921,23.7834 44.5588,25.7834 43,27.5C 37.4833,32.7399 31.3166,33.7399 24.5,30.5C 23.8549,29.1882 22.8549,28.1882 21.5,27.5C 19.6293,28.767 17.7959,28.767 16,27.5C 14.2415,24.3924 13.4081,21.059 13.5,17.5C 13.8921,9.10576 17.8921,3.10576 25.5,-0.5 Z"/></g>
<g><path style="opacity:1" fill="#03c9f9" d="M 113.5,17.5 C 120.089,19.3333 122.589,23.6666 121,30.5C 120.003,32.3231 118.836,33.9897 117.5,35.5C 116.508,35.3284 115.842,35.6618 115.5,36.5C 112.098,36.6576 108.764,36.3242 105.5,35.5C 104.405,33.642 103.071,31.9754 101.5,30.5C 99.2831,31.5723 96.9498,32.2389 94.5,32.5C 87.3578,32.0166 83.0244,28.3499 81.5,21.5C 87.7281,23.4069 93.3947,22.4069 98.5,18.5C 100.371,18.8588 101.871,19.8588 103,21.5C 104.039,23.7463 105.206,25.913 106.5,28C 110.309,29.0332 112.309,27.5332 112.5,23.5C 113.341,21.6208 113.675,19.6208 113.5,17.5 Z"/></g>
<g><path style="opacity:1" fill="#fbfdfe" d="M 53.5,19.5 C 54.1098,20.391 54.4431,21.391 54.5,22.5C 52.0283,23.9089 49.695,25.5756 47.5,27.5C 46.1845,22.164 48.1845,19.4974 53.5,19.5 Z"/></g>
<g><path style="opacity:1" fill="#f9fcfe" d="M 73.5,19.5 C 78.8155,19.4974 80.8155,22.164 79.5,27.5C 76.9528,26.0664 74.6195,24.3998 72.5,22.5C 72.5569,21.391 72.8902,20.391 73.5,19.5 Z"/></g>
<g><path style="opacity:1" fill="#56d8fa" d="M 54.5,22.5 C 56.1667,22.5 57.8333,22.5 59.5,22.5C 59.8333,22.5 60.1667,22.5 60.5,22.5C 64.3989,23.7908 68.3989,23.7908 72.5,22.5C 74.6195,24.3998 76.9528,26.0664 79.5,27.5C 80.4408,29.0495 81.1075,30.7162 81.5,32.5C 81.5,36.5 81.5,40.5 81.5,44.5C 69.5803,45.4786 57.5803,45.8119 45.5,45.5C 45.5,45.1667 45.5,44.8333 45.5,44.5C 44.7929,41.2139 44.4595,37.8806 44.5,34.5C 45.2271,32.0462 46.2271,29.7128 47.5,27.5C 49.695,25.5756 52.0283,23.9089 54.5,22.5 Z"/></g>
<g><path style="opacity:0.981" fill="#2743b1" d="M 9.5,35.5 C 9.83333,35.5 10.1667,35.5 10.5,35.5C 12.7032,41.2031 16.7032,45.0365 22.5,47C 30.2223,46.8909 37.889,46.0576 45.5,44.5C 45.5,44.8333 45.5,45.1667 45.5,45.5C 45.3253,47.6208 45.6586,49.6208 46.5,51.5C 43.3389,50.5302 40.5056,48.8635 38,46.5C 37.9636,50.0648 38.9636,53.3981 41,56.5C 42.5843,57.8613 44.4176,58.528 46.5,58.5C 47.404,59.209 47.7373,60.209 47.5,61.5C 45.4727,61.6621 43.4727,61.4955 41.5,61C 39.5952,59.5787 37.5952,58.412 35.5,57.5C 35.1583,56.6618 34.4916,56.3284 33.5,56.5C 36.188,54.7754 35.8547,53.442 32.5,52.5C 31.6143,51.675 31.281,50.675 31.5,49.5C 30.5,49.5 29.5,49.5 28.5,49.5C 28.7148,51.1788 28.0481,52.1788 26.5,52.5C 19.472,50.2359 12.472,48.2359 5.5,46.5C 6.55095,42.7313 7.88428,39.0646 9.5,35.5 Z"/></g>
<g><path style="opacity:1" fill="#0697da" d="M 21.5,34.5 C 22.6409,36.2427 24.3076,37.2427 26.5,37.5C 32.3989,35.8502 38.3989,34.8502 44.5,34.5C 44.4595,37.8806 44.7929,41.2139 45.5,44.5C 37.889,46.0576 30.2223,46.8909 22.5,47C 16.7032,45.0365 12.7032,41.2031 10.5,35.5C 14.3129,36.8716 17.9796,36.5383 21.5,34.5 Z"/></g>
<g><path style="opacity:1" fill="#0897db" d="M 81.5,32.5 C 82.5336,33.6871 83.867,34.5204 85.5,35C 90.1783,35.769 94.845,36.6023 99.5,37.5C 101.714,37.3887 103.714,36.722 105.5,35.5C 108.764,36.3242 112.098,36.6576 115.5,36.5C 113.65,41.8487 109.984,45.3487 104.5,47C 96.7446,47.1505 89.0779,46.3172 81.5,44.5C 81.5,40.5 81.5,36.5 81.5,32.5 Z"/></g>
<g><path style="opacity:0.985" fill="#2741b1" d="M 117.5,35.5 C 124.831,49.4829 126.831,64.1496 123.5,79.5C 119.424,77.3637 115.09,76.0303 110.5,75.5C 112.1,74.3556 113.767,73.1889 115.5,72C 111,70.8333 108.167,68 107,63.5C 105.312,67.6852 102.479,70.6852 98.5,72.5C 95.5,72.5 92.5,72.5 89.5,72.5C 90.8499,71.1765 90.6833,70.1765 89,69.5C 85.7789,71.5302 82.2789,72.5302 78.5,72.5C 78.5,71.1667 78.5,69.8333 78.5,68.5C 87.1029,69.5578 91.1029,65.8911 90.5,57.5C 87.3755,61.1737 83.7089,62.1737 79.5,60.5C 79.5,59.8333 79.5,59.1667 79.5,58.5C 79.8333,58.5 80.1667,58.5 80.5,58.5C 82.5824,58.528 84.4157,57.8613 86,56.5C 88.0364,53.3981 89.0364,50.0648 89,46.5C 86.4944,48.8635 83.6611,50.5302 80.5,51.5C 81.3686,49.283 81.702,46.9496 81.5,44.5C 89.0779,46.3172 96.7446,47.1505 104.5,47C 109.984,45.3487 113.65,41.8487 115.5,36.5C 115.842,35.6618 116.508,35.3284 117.5,35.5 Z"/></g>
<g><path style="opacity:1" fill="#06cafa" d="M 81.5,44.5 C 81.702,46.9496 81.3686,49.283 80.5,51.5C 80.5,53.8333 80.5,56.1667 80.5,58.5C 80.1667,58.5 79.8333,58.5 79.5,58.5C 71.8333,58.5 64.1667,58.5 56.5,58.5C 56.7293,66.5406 57.396,74.5406 58.5,82.5C 55.8333,82.5 53.1667,82.5 50.5,82.5C 50.6716,81.5084 50.3382,80.8417 49.5,80.5C 49.5,80.1667 49.5,79.8333 49.5,79.5C 49.552,77.0971 49.2186,74.7638 48.5,72.5C 48.5,71.1667 48.5,69.8333 48.5,68.5C 48.0074,66.1944 47.6741,63.861 47.5,61.5C 47.7373,60.209 47.404,59.209 46.5,58.5C 46.5,56.1667 46.5,53.8333 46.5,51.5C 45.6586,49.6208 45.3253,47.6208 45.5,45.5C 57.5803,45.8119 69.5803,45.4786 81.5,44.5 Z"/></g>
<g><path style="opacity:1" fill="#314ec9" d="M 5.5,46.5 C 12.472,48.2359 19.472,50.2359 26.5,52.5C 25.9094,53.1515 25.2427,53.8182 24.5,54.5C 26.8292,55.9979 28.6625,57.9979 30,60.5C 30.9487,58.9069 32.1154,57.5736 33.5,56.5C 34.4916,56.3284 35.1583,56.6618 35.5,57.5C 35.9161,65.9223 40.2494,69.589 48.5,68.5C 48.5,69.8333 48.5,71.1667 48.5,72.5C 46.4727,72.6621 44.4727,72.4955 42.5,72C 40.7567,69.9362 38.7567,69.4362 36.5,70.5C 38.4067,77.0816 42.74,80.0816 49.5,79.5C 49.5,79.8333 49.5,80.1667 49.5,80.5C 49.2089,81.6491 48.3756,82.3158 47,82.5C 37.838,79.4826 37.0047,81.3159 44.5,88C 46.6775,89.2022 49.0108,89.7022 51.5,89.5C 52.075,91.4113 53.075,93.078 54.5,94.5C 54.5,96.8333 54.5,99.1667 54.5,101.5C 52.7162,101.893 51.0495,102.559 49.5,103.5C 47.7354,102.539 45.7354,102.205 43.5,102.5C 43.5,102.167 43.5,101.833 43.5,101.5C 41.5468,98.0219 38.5468,96.3552 34.5,96.5C 34.7947,94.2646 34.4614,92.2646 33.5,90.5C 32.06,88.0514 30.06,86.3847 27.5,85.5C 27.7214,82.7212 27.388,80.0545 26.5,77.5C 25.5244,76.1851 24.5244,74.8518 23.5,73.5C 27.3067,65.8383 25.6401,59.8383 18.5,55.5C 16.2346,53.358 13.568,51.6913 10.5,50.5C 10.1667,50.8333 9.83333,51.1667 9.5,51.5C 10.5,53.5 11.5,55.5 12.5,57.5C 6.29416,63.2444 5.96082,69.2444 11.5,75.5C 9.61224,78.9312 9.11224,82.5979 10,86.5C 10.7589,88.0629 11.9256,89.0629 13.5,89.5C 13.8417,90.3382 14.5084,90.6716 15.5,90.5C 16.2276,93.0795 16.7276,95.7462 17,98.5C 17.66,100.324 18.8267,101.657 20.5,102.5C 21.6354,104.213 23.302,104.88 25.5,104.5C 25.4025,108.652 27.0692,111.652 30.5,113.5C 30.8417,114.338 31.5084,114.672 32.5,114.5C 36.263,114.937 39.263,116.771 41.5,120C 45.7047,122.386 49.3714,121.886 52.5,118.5C 61.0768,120.55 65.7434,117.217 66.5,108.5C 72.3167,105.399 73.9834,100.733 71.5,94.5C 73.543,93.4206 74.8763,91.754 75.5,89.5C 81.3407,89.6684 85.3407,87.0018 87.5,81.5C 87,81.1667 86.5,80.8333 86,80.5C 83.2764,81.6868 80.4431,82.3535 77.5,82.5C 77.5,81.5 77.5,80.5 77.5,79.5C 83.3563,80.2416 87.3563,77.9082 89.5,72.5C 92.5,72.5 95.5,72.5 98.5,72.5C 102.922,73.2598 105.256,75.9265 105.5,80.5C 106.5,80.5 107.5,80.5 108.5,80.5C 108.402,78.4471 109.069,76.7804 110.5,75.5C 115.09,76.0303 119.424,77.3637 123.5,79.5C 117.032,105.635 100.699,121.635 74.5,127.5C 67.1667,127.5 59.8333,127.5 52.5,127.5C 21.0632,119.197 4.06323,98.6968 1.5,66C 1.68749,59.1321 3.02082,52.6321 5.5,46.5 Z"/></g>
<g><path style="opacity:1" fill="#0ba3ed" d="M 46.5,51.5 C 46.5,53.8333 46.5,56.1667 46.5,58.5C 44.4176,58.528 42.5843,57.8613 41,56.5C 38.9636,53.3981 37.9636,50.0648 38,46.5C 40.5056,48.8635 43.3389,50.5302 46.5,51.5 Z"/></g>
<g><path style="opacity:1" fill="#0ba3ed" d="M 80.5,58.5 C 80.5,56.1667 80.5,53.8333 80.5,51.5C 83.6611,50.5302 86.4944,48.8635 89,46.5C 89.0364,50.0648 88.0364,53.3981 86,56.5C 84.4157,57.8613 82.5824,58.528 80.5,58.5 Z"/></g>
<g><path style="opacity:1" fill="#10e1a4" d="M 33.5,56.5 C 32.1154,57.5736 30.9487,58.9069 30,60.5C 28.6625,57.9979 26.8292,55.9979 24.5,54.5C 25.2427,53.8182 25.9094,53.1515 26.5,52.5C 28.0481,52.1788 28.7148,51.1788 28.5,49.5C 29.5,49.5 30.5,49.5 31.5,49.5C 31.281,50.675 31.6143,51.675 32.5,52.5C 35.8547,53.442 36.188,54.7754 33.5,56.5 Z"/></g>
<g><path style="opacity:1" fill="#0aa7f0" d="M 18.5,55.5 C 17.3473,56.3132 17.3473,57.3132 18.5,58.5C 13.7805,62.2137 12.4472,66.8803 14.5,72.5C 13.8118,73.8549 12.8118,74.8549 11.5,75.5C 5.96082,69.2444 6.29416,63.2444 12.5,57.5C 11.5,55.5 10.5,53.5 9.5,51.5C 9.83333,51.1667 10.1667,50.8333 10.5,50.5C 13.568,51.6913 16.2346,53.358 18.5,55.5 Z"/></g>
<g><path style="opacity:1" fill="#07e6a6" d="M 113.5,52.5 C 119.354,54.2964 119.687,56.6297 114.5,59.5C 113.019,58.5197 111.685,57.353 110.5,56C 111.71,54.9609 112.71,53.7942 113.5,52.5 Z"/></g>
<g><path style="opacity:1" fill="#0ca3ee" d="M 35.5,57.5 C 37.5952,58.412 39.5952,59.5787 41.5,61C 43.4727,61.4955 45.4727,61.6621 47.5,61.5C 47.6741,63.861 48.0074,66.1944 48.5,68.5C 40.2494,69.589 35.9161,65.9223 35.5,57.5 Z"/></g>
<g><path style="opacity:1" fill="#929fe0" d="M 110.5,75.5 C 109.069,76.7804 108.402,78.4471 108.5,80.5C 107.5,80.5 106.5,80.5 105.5,80.5C 105.256,75.9265 102.922,73.2598 98.5,72.5C 102.479,70.6852 105.312,67.6852 107,63.5C 108.167,68 111,70.8333 115.5,72C 113.767,73.1889 112.1,74.3556 110.5,75.5 Z"/></g>
<g><path style="opacity:1" fill="#3ed4fa" d="M 79.5,58.5 C 79.5,59.1667 79.5,59.8333 79.5,60.5C 77.9331,70.0008 76.5998,79.6675 75.5,89.5C 74.8763,91.754 73.543,93.4206 71.5,94.5C 65.7899,97.0278 60.1232,97.0278 54.5,94.5C 53.075,93.078 52.075,91.4113 51.5,89.5C 50.6314,87.283 50.298,84.9496 50.5,82.5C 53.1667,82.5 55.8333,82.5 58.5,82.5C 57.396,74.5406 56.7293,66.5406 56.5,58.5C 64.1667,58.5 71.8333,58.5 79.5,58.5 Z"/></g>
<g><path style="opacity:1" fill="#0ea3ee" d="M 48.5,72.5 C 49.2186,74.7638 49.552,77.0971 49.5,79.5C 42.74,80.0816 38.4067,77.0816 36.5,70.5C 38.7567,69.4362 40.7567,69.9362 42.5,72C 44.4727,72.4955 46.4727,72.6621 48.5,72.5 Z"/></g>
<g><path style="opacity:1" fill="#12a4ee" d="M 89.5,72.5 C 87.3563,77.9082 83.3563,80.2416 77.5,79.5C 77.5,80.5 77.5,81.5 77.5,82.5C 80.4431,82.3535 83.2764,81.6868 86,80.5C 86.5,80.8333 87,81.1667 87.5,81.5C 85.3407,87.0018 81.3407,89.6684 75.5,89.5C 76.5998,79.6675 77.9331,70.0008 79.5,60.5C 83.7089,62.1737 87.3755,61.1737 90.5,57.5C 91.1029,65.8911 87.1029,69.5578 78.5,68.5C 78.5,69.8333 78.5,71.1667 78.5,72.5C 82.2789,72.5302 85.7789,71.5302 89,69.5C 90.6833,70.1765 90.8499,71.1765 89.5,72.5 Z"/></g>
<g><path style="opacity:1" fill="#0ac8f9" d="M 18.5,55.5 C 25.6401,59.8383 27.3067,65.8383 23.5,73.5C 24.5244,74.8518 25.5244,76.1851 26.5,77.5C 16.9978,76.0043 12.6644,80.0043 13.5,89.5C 11.9256,89.0629 10.7589,88.0629 10,86.5C 9.11224,82.5979 9.61224,78.9312 11.5,75.5C 12.8118,74.8549 13.8118,73.8549 14.5,72.5C 12.4472,66.8803 13.7805,62.2137 18.5,58.5C 17.3473,57.3132 17.3473,56.3132 18.5,55.5 Z"/></g>
<g><path style="opacity:1" fill="#5fd9fa" d="M 26.5,77.5 C 27.388,80.0545 27.7214,82.7212 27.5,85.5C 23.0866,86.2649 19.0866,87.9316 15.5,90.5C 14.5084,90.6716 13.8417,90.3382 13.5,89.5C 12.6644,80.0043 16.9978,76.0043 26.5,77.5 Z"/></g>
<g><path style="opacity:1" fill="#0da3ee" d="M 49.5,80.5 C 50.3382,80.8417 50.6716,81.5084 50.5,82.5C 50.298,84.9496 50.6314,87.283 51.5,89.5C 49.0108,89.7022 46.6775,89.2022 44.5,88C 37.0047,81.3159 37.838,79.4826 47,82.5C 48.3756,82.3158 49.2089,81.6491 49.5,80.5 Z"/></g>
<g><path style="opacity:1" fill="#ebedf9" d="M 92.5,85.5 C 97.1453,86.2801 97.6453,88.2801 94,91.5C 91.5213,89.9116 91.0213,87.9116 92.5,85.5 Z"/></g>
<g><path style="opacity:1" fill="#0fa8f0" d="M 27.5,85.5 C 30.06,86.3847 32.06,88.0514 33.5,90.5C 24.6556,89.6793 20.3223,93.6793 20.5,102.5C 18.8267,101.657 17.66,100.324 17,98.5C 16.7276,95.7462 16.2276,93.0795 15.5,90.5C 19.0866,87.9316 23.0866,86.2649 27.5,85.5 Z"/></g>
<g><path style="opacity:1" fill="#08b8f6" d="M 54.5,94.5 C 60.1232,97.0278 65.7899,97.0278 71.5,94.5C 73.9834,100.733 72.3167,105.399 66.5,108.5C 60.257,109.72 56.257,107.387 54.5,101.5C 54.5,99.1667 54.5,96.8333 54.5,94.5 Z"/></g>
<g><path style="opacity:1" fill="#0dc7f9" d="M 33.5,90.5 C 34.4614,92.2646 34.7947,94.2646 34.5,96.5C 38.5468,96.3552 41.5468,98.0219 43.5,101.5C 34.1247,99.8715 29.7913,103.872 30.5,113.5C 27.0692,111.652 25.4025,108.652 25.5,104.5C 23.302,104.88 21.6354,104.213 20.5,102.5C 20.3223,93.6793 24.6556,89.6793 33.5,90.5 Z"/></g>
<g><path style="opacity:1" fill="#5fdafa" d="M 43.5,101.5 C 43.5,101.833 43.5,102.167 43.5,102.5C 38.8709,105.091 36.8709,109.091 37.5,114.5C 35.8333,114.5 34.1667,114.5 32.5,114.5C 31.5084,114.672 30.8417,114.338 30.5,113.5C 29.7913,103.872 34.1247,99.8715 43.5,101.5 Z"/></g>
<g><path style="opacity:1" fill="#efeef7" d="M 87.5,101.5 C 89.4366,103.091 91.4366,104.758 93.5,106.5C 91.1323,107.872 89.4656,109.872 88.5,112.5C 86.8333,110.167 84.8333,108.167 82.5,106.5C 85.1818,105.818 86.8485,104.152 87.5,101.5 Z"/></g>
<g><path style="opacity:1" fill="#4fd4fa" d="M 54.5,101.5 C 56.257,107.387 60.257,109.72 66.5,108.5C 65.7434,117.217 61.0768,120.55 52.5,118.5C 47.2691,114.345 46.2691,109.345 49.5,103.5C 51.0495,102.559 52.7162,101.893 54.5,101.5 Z"/></g>
<g><path style="opacity:1" fill="#0cb5f5" d="M 43.5,102.5 C 45.7354,102.205 47.7354,102.539 49.5,103.5C 46.2691,109.345 47.2691,114.345 52.5,118.5C 49.3714,121.886 45.7047,122.386 41.5,120C 39.263,116.771 36.263,114.937 32.5,114.5C 34.1667,114.5 35.8333,114.5 37.5,114.5C 36.8709,109.091 38.8709,105.091 43.5,102.5 Z"/></g>
</svg>
