<?xml version="1.0" encoding="UTF-8"?>
<!DOCTYPE svg PUBLIC "-//W3C//DTD SVG 1.1//EN" "http://www.w3.org/Graphics/SVG/1.1/DTD/svg11.dtd">
<svg xmlns="http://www.w3.org/2000/svg" version="1.1" width="512px" height="512px" style="shape-rendering:geometricPrecision; text-rendering:geometricPrecision; image-rendering:optimizeQuality; fill-rule:evenodd; clip-rule:evenodd" xmlns:xlink="http://www.w3.org/1999/xlink">
<g><path style="opacity:0.996" fill="#04cffa" d="M 511.5,172.5 C 511.5,182.5 511.5,192.5 511.5,202.5C 508.734,221.283 501.567,238.283 490,253.5C 491.218,342.73 456.051,413.396 384.5,465.5C 397.221,443.431 401.388,419.764 397,394.5C 390.915,374.495 386.249,354.161 383,333.5C 382.091,325.861 381.591,318.194 381.5,310.5C 382.114,299.817 382.614,289.15 383,278.5C 382.215,276.714 381.049,275.214 379.5,274C 369.666,268.251 359.999,262.251 350.5,256C 349.552,255.517 348.552,255.351 347.5,255.5C 348.676,248.991 352.009,243.824 357.5,240C 365.69,235.481 373.023,229.814 379.5,223C 406.953,228.381 422.62,217.214 426.5,189.5C 425.751,177.276 420.251,167.942 410,161.5C 404.984,165.686 400.15,170.019 395.5,174.5C 394.167,175.167 393.167,176.167 392.5,177.5C 384.483,186.683 375.65,195.017 366,202.5C 363.541,202.11 361.874,200.776 361,198.5C 360.5,188.172 360.334,177.839 360.5,167.5C 387.399,158.071 402.066,139.071 404.5,110.5C 406.747,101.248 403.247,97.9152 394,100.5C 382.682,100.774 372.182,103.774 362.5,109.5C 361.021,101.545 357.688,94.5455 352.5,88.5C 350.246,84.3694 346.912,82.2027 342.5,82C 322.008,102.588 319.008,125.421 333.5,150.5C 334.369,152.717 334.702,155.05 334.5,157.5C 325.491,154.828 317.158,150.828 309.5,145.5C 301.167,139.167 293.833,131.833 287.5,123.5C 284.867,118.572 282.534,113.572 280.5,108.5C 279.704,105.444 278.704,102.444 277.5,99.5C 267.196,105.295 259.196,113.295 253.5,123.5C 249.484,122.9 245.984,123.9 243,126.5C 240.77,131.191 238.937,136.024 237.5,141C 237.748,144.082 239.415,145.582 242.5,145.5C 241.514,149.113 240.681,152.779 240,156.5C 240.047,168.006 239.88,179.339 239.5,190.5C 239.586,189.504 239.252,188.671 238.5,188C 204.055,177.283 183.888,154.117 178,118.5C 175.875,81.7362 190.709,54.4029 222.5,36.5C 235.3,36.3933 247.633,38.7266 259.5,43.5C 266.555,35.4435 274.221,28.1102 282.5,21.5C 311.279,1.81361 342.612,-3.35305 376.5,6C 416.768,19.5995 441.601,47.0995 451,88.5C 484.643,106.784 504.81,134.784 511.5,172.5 Z"/></g>
<g><path style="opacity:0.994" fill="#314dc9" d="M 282.5,21.5 C 274.221,28.1102 266.555,35.4435 259.5,43.5C 247.633,38.7266 235.3,36.3933 222.5,36.5C 187.784,39.7137 163.617,57.3804 150,89.5C 147.146,97.6002 145.646,105.934 145.5,114.5C 139.5,118.833 133.5,123.167 127.5,127.5C 125.704,126.207 124.037,124.707 122.5,123C 121.167,122.333 119.833,122.333 118.5,123C 115.333,126.167 112.167,129.333 109,132.5C 108.333,133.833 108.333,135.167 109,136.5C 110.376,137.705 111.542,139.038 112.5,140.5C 109.626,145.554 106.126,150.22 102,154.5C 81.4275,181.331 69.4275,211.664 66,245.5C 65.6174,246.056 65.1174,246.389 64.5,246.5C 62.9902,245.272 61.4902,245.272 60,246.5C 57.8726,254.922 54.0393,262.422 48.5,269C 42.6081,272.633 36.2748,275.3 29.5,277C 27.4732,278.396 27.1398,280.062 28.5,282C 36.9223,284.127 44.4223,287.961 51,293.5C 54.9367,299.977 58.1033,306.81 60.5,314C 62.3668,314.711 63.8668,314.211 65,312.5C 66.0175,308.756 67.1841,305.089 68.5,301.5C 72.3369,315.342 77.0036,329.008 82.5,342.5C 63.6861,364.599 54.3527,390.266 54.5,419.5C 23.1144,380.704 4.78102,336.371 -0.5,286.5C -0.5,271.5 -0.5,256.5 -0.5,241.5C 3.35357,203.939 15.0202,168.939 34.5,136.5C 37.7636,137.927 40.2636,140.261 42,143.5C 44.3672,148.938 46.5339,154.438 48.5,160C 50.1124,160.72 51.6124,160.554 53,159.5C 54.487,153.868 56.6537,148.535 59.5,143.5C 62.7275,138.035 67.3941,134.202 73.5,132C 76.7735,130.798 80.1069,129.798 83.5,129C 84.8333,127.333 84.8333,125.667 83.5,124C 74.1871,121.931 66.3538,117.431 60,110.5C 58.878,108.593 58.0447,106.593 57.5,104.5C 117.818,37.8723 192.818,10.2056 282.5,21.5 Z"/></g>
<g><path style="opacity:0.999" fill="#05bff9" d="M 222.5,36.5 C 190.709,54.4029 175.875,81.7362 178,118.5C 183.888,154.117 204.055,177.283 238.5,188C 239.252,188.671 239.586,189.504 239.5,190.5C 239.174,193.311 238.341,195.978 237,198.5C 232,207.167 227,215.833 222,224.5C 221.285,229.072 223.118,232.072 227.5,233.5C 236.068,234.193 244.734,234.86 253.5,235.5C 254.122,236.627 254.955,237.627 256,238.5C 258.108,248.813 260.108,259.146 262,269.5C 264.601,276.937 269.767,281.27 277.5,282.5C 285.65,283.493 293.983,283.826 302.5,283.5C 302.881,292.568 302.381,301.568 301,310.5C 299.006,314.993 295.84,318.326 291.5,320.5C 289.641,321.594 287.641,322.427 285.5,323C 279.509,323.499 273.509,323.666 267.5,323.5C 222.156,323.079 191.656,344.079 176,386.5C 174.683,391.1 173.683,395.766 173,400.5C 172.5,433.165 172.333,465.832 172.5,498.5C 133.459,486.737 99.7926,466.404 71.5,437.5C 79.0823,383.411 108.416,346.577 159.5,327C 172.81,322.59 186.476,320.59 200.5,321C 202.325,319.534 202.825,317.701 202,315.5C 187.63,283.632 185.63,250.965 196,217.5C 199.086,210.055 202.253,202.722 205.5,195.5C 195.805,193.651 187.138,189.651 179.5,183.5C 156.194,166.554 144.861,143.554 145.5,114.5C 145.646,105.934 147.146,97.6002 150,89.5C 163.617,57.3804 187.784,39.7137 222.5,36.5 Z"/></g>
<g><path style="opacity:1" fill="#f5ab32" d="M 352.5,88.5 C 347.666,95.8419 344.166,103.842 342,112.5C 341.26,118.218 341.427,123.885 342.5,129.5C 339.582,135.584 337.249,141.918 335.5,148.5C 335.253,149.713 334.586,150.38 333.5,150.5C 319.008,125.421 322.008,102.588 342.5,82C 346.912,82.2027 350.246,84.3694 352.5,88.5 Z"/></g>
<g><path style="opacity:1" fill="#fec244" d="M 352.5,88.5 C 357.688,94.5455 361.021,101.545 362.5,109.5C 354.833,115.167 348.167,121.833 342.5,129.5C 341.427,123.885 341.26,118.218 342,112.5C 344.166,103.842 347.666,95.8419 352.5,88.5 Z"/></g>
<g><path style="opacity:0.986" fill="#a1ade5" d="M 57.5,104.5 C 58.0447,106.593 58.878,108.593 60,110.5C 66.3538,117.431 74.1871,121.931 83.5,124C 84.8333,125.667 84.8333,127.333 83.5,129C 80.1069,129.798 76.7735,130.798 73.5,132C 67.3941,134.202 62.7275,138.035 59.5,143.5C 56.5233,137.413 52.8566,131.579 48.5,126C 43.3013,122.4 37.6347,119.9 31.5,118.5C 35.7621,116.074 39.2621,112.74 42,108.5C 44.2763,103.162 46.443,97.8284 48.5,92.5C 50.6439,91.0465 52.4773,91.3799 54,93.5C 54.8757,97.2924 56.0424,100.959 57.5,104.5 Z"/></g>
<g><path style="opacity:1" fill="#fdb09f" d="M 280.5,108.5 C 280.649,109.552 280.483,110.552 280,111.5C 275.833,114.819 272.667,118.819 270.5,123.5C 268.167,123.5 265.833,123.5 263.5,123.5C 260.167,123.5 256.833,123.5 253.5,123.5C 259.196,113.295 267.196,105.295 277.5,99.5C 278.704,102.444 279.704,105.444 280.5,108.5 Z"/></g>
<g><path style="opacity:1" fill="#fed15b" d="M 404.5,110.5 C 374.49,113.003 354.99,128.67 346,157.5C 344.925,161.77 344.425,166.103 344.5,170.5C 341.223,170.784 338.057,170.451 335,169.5C 334.501,165.514 334.334,161.514 334.5,157.5C 334.702,155.05 334.369,152.717 333.5,150.5C 334.586,150.38 335.253,149.713 335.5,148.5C 337.249,141.918 339.582,135.584 342.5,129.5C 348.167,121.833 354.833,115.167 362.5,109.5C 372.182,103.774 382.682,100.774 394,100.5C 403.247,97.9152 406.747,101.248 404.5,110.5 Z"/></g>
<g><path style="opacity:1" fill="#fdcdbe" d="M 280.5,108.5 C 282.534,113.572 284.867,118.572 287.5,123.5C 281.833,123.5 276.167,123.5 270.5,123.5C 272.667,118.819 275.833,114.819 280,111.5C 280.483,110.552 280.649,109.552 280.5,108.5 Z"/></g>
<g><path style="opacity:1" fill="#fee077" d="M 404.5,110.5 C 402.066,139.071 387.399,158.071 360.5,167.5C 355.365,169.357 350.031,170.357 344.5,170.5C 344.425,166.103 344.925,161.77 346,157.5C 354.99,128.67 374.49,113.003 404.5,110.5 Z"/></g>
<g><path style="opacity:1" fill="#2740b0" d="M 145.5,114.5 C 144.861,143.554 156.194,166.554 179.5,183.5C 155.485,221.846 153.152,261.513 172.5,302.5C 136.746,303.387 106.746,316.72 82.5,342.5C 77.0036,329.008 72.3369,315.342 68.5,301.5C 70.8874,294.945 75.2207,290.111 81.5,287C 86.0907,285.136 90.7574,283.47 95.5,282C 96.8602,280.062 96.5268,278.396 94.5,277C 77.6032,273.603 67.6032,263.437 64.5,246.5C 65.1174,246.389 65.6174,246.056 66,245.5C 69.4275,211.664 81.4275,181.331 102,154.5C 106.126,150.22 109.626,145.554 112.5,140.5C 114.63,142.127 116.63,143.96 118.5,146C 119.833,146.667 121.167,146.667 122.5,146C 126.216,142.621 129.549,138.954 132.5,135C 131.411,132.084 129.744,129.584 127.5,127.5C 133.5,123.167 139.5,118.833 145.5,114.5 Z"/></g>
<g><path style="opacity:1" fill="#8795de" d="M 31.5,118.5 C 37.6347,119.9 43.3013,122.4 48.5,126C 52.8566,131.579 56.5233,137.413 59.5,143.5C 56.6537,148.535 54.487,153.868 53,159.5C 51.6124,160.554 50.1124,160.72 48.5,160C 46.5339,154.438 44.3672,148.938 42,143.5C 40.2636,140.261 37.7636,137.927 34.5,136.5C 28.9994,132.998 22.9994,130.664 16.5,129.5C 16.2011,127.396 16.5344,125.396 17.5,123.5C 22.1902,121.826 26.8568,120.159 31.5,118.5 Z"/></g>
<g><path style="opacity:1" fill="#05eda6" d="M 127.5,127.5 C 129.744,129.584 131.411,132.084 132.5,135C 129.549,138.954 126.216,142.621 122.5,146C 121.167,146.667 119.833,146.667 118.5,146C 116.63,143.96 114.63,142.127 112.5,140.5C 111.542,139.038 110.376,137.705 109,136.5C 108.333,135.167 108.333,133.833 109,132.5C 112.167,129.333 115.333,126.167 118.5,123C 119.833,122.333 121.167,122.333 122.5,123C 124.037,124.707 125.704,126.207 127.5,127.5 Z"/></g>
<g><path style="opacity:1" fill="#fde178" d="M 253.5,123.5 C 256.833,123.5 260.167,123.5 263.5,123.5C 258.9,127.725 256.067,133.058 255,139.5C 254.252,141.84 254.752,143.84 256.5,145.5C 251.833,145.5 247.167,145.5 242.5,145.5C 239.415,145.582 237.748,144.082 237.5,141C 238.937,136.024 240.77,131.191 243,126.5C 245.984,123.9 249.484,122.9 253.5,123.5 Z"/></g>
<g><path style="opacity:1" fill="#feefac" d="M 263.5,123.5 C 265.833,123.5 268.167,123.5 270.5,123.5C 276.167,123.5 281.833,123.5 287.5,123.5C 293.833,131.833 301.167,139.167 309.5,145.5C 292.833,145.5 276.167,145.5 259.5,145.5C 258.5,145.5 257.5,145.5 256.5,145.5C 254.752,143.84 254.252,141.84 255,139.5C 256.067,133.058 258.9,127.725 263.5,123.5 Z"/></g>
<g><path style="opacity:1" fill="#feb09e" d="M 242.5,145.5 C 247.167,145.5 251.833,145.5 256.5,145.5C 257.5,145.5 258.5,145.5 259.5,145.5C 258.514,149.113 257.681,152.779 257,156.5C 256.834,168.172 256.834,179.838 257,191.5C 251.602,201.962 245.935,212.295 240,222.5C 238.773,226.591 239.606,230.091 242.5,233C 237.511,233.499 232.511,233.666 227.5,233.5C 223.118,232.072 221.285,229.072 222,224.5C 227,215.833 232,207.167 237,198.5C 238.341,195.978 239.174,193.311 239.5,190.5C 239.88,179.339 240.047,168.006 240,156.5C 240.681,152.779 241.514,149.113 242.5,145.5 Z"/></g>
<g><path style="opacity:1" fill="#fecdbe" d="M 259.5,145.5 C 276.167,145.5 292.833,145.5 309.5,145.5C 317.158,150.828 325.491,154.828 334.5,157.5C 334.334,161.514 334.501,165.514 335,169.5C 338.057,170.451 341.223,170.784 344.5,170.5C 350.031,170.357 355.365,169.357 360.5,167.5C 360.334,177.839 360.5,188.172 361,198.5C 361.874,200.776 363.541,202.11 366,202.5C 375.65,195.017 384.483,186.683 392.5,177.5C 392.334,187.172 392.5,196.839 393,206.5C 400.991,207.142 406.325,203.476 409,195.5C 410.701,186.74 407.867,179.907 400.5,175C 398.866,174.506 397.199,174.34 395.5,174.5C 400.15,170.019 404.984,165.686 410,161.5C 420.251,167.942 425.751,177.276 426.5,189.5C 422.62,217.214 406.953,228.381 379.5,223C 373.023,229.814 365.69,235.481 357.5,240C 352.009,243.824 348.676,248.991 347.5,255.5C 345.188,262.83 341.188,269.163 335.5,274.5C 332.797,276.181 330.131,277.847 327.5,279.5C 319.529,282.86 311.196,284.193 302.5,283.5C 293.983,283.826 285.65,283.493 277.5,282.5C 282.179,282.666 286.845,282.499 291.5,282C 286.065,280.231 282.232,276.731 280,271.5C 277.413,260.566 275.08,249.566 273,238.5C 272.167,237 271,235.833 269.5,235C 263.984,234.183 258.65,234.349 253.5,235.5C 244.734,234.86 236.068,234.193 227.5,233.5C 232.511,233.666 237.511,233.499 242.5,233C 239.606,230.091 238.773,226.591 240,222.5C 245.935,212.295 251.602,201.962 257,191.5C 256.834,179.838 256.834,168.172 257,156.5C 257.681,152.779 258.514,149.113 259.5,145.5 Z"/></g>
<g><path style="opacity:1" fill="#ec816c" d="M 258.5,167.5 C 262.555,167.176 266.555,167.509 270.5,168.5C 273.759,177.64 279.759,179.974 288.5,175.5C 290.578,173.61 291.911,171.276 292.5,168.5C 296.445,167.509 300.445,167.176 304.5,167.5C 301.672,184.477 291.672,191.644 274.5,189C 264.717,185.062 259.383,177.895 258.5,167.5 Z"/></g>
<g><path style="opacity:1" fill="#feb09e" d="M 395.5,174.5 C 397.199,174.34 398.866,174.506 400.5,175C 407.867,179.907 410.701,186.74 409,195.5C 406.325,203.476 400.991,207.142 393,206.5C 392.5,196.839 392.334,187.172 392.5,177.5C 393.167,176.167 394.167,175.167 395.5,174.5 Z"/></g>
<g><path style="opacity:1" fill="#08a8f0" d="M 179.5,183.5 C 187.138,189.651 195.805,193.651 205.5,195.5C 202.253,202.722 199.086,210.055 196,217.5C 185.63,250.965 187.63,283.632 202,315.5C 202.825,317.701 202.325,319.534 200.5,321C 186.476,320.59 172.81,322.59 159.5,327C 108.416,346.577 79.0823,383.411 71.5,437.5C 65.1295,432.131 59.4629,426.131 54.5,419.5C 54.3527,390.266 63.6861,364.599 82.5,342.5C 106.746,316.72 136.746,303.387 172.5,302.5C 153.152,261.513 155.485,221.846 179.5,183.5 Z"/></g>
<g><path style="opacity:1" fill="#f8f8fc" d="M 119.5,206.5 C 120.552,206.351 121.552,206.517 122.5,207C 127.42,211.414 131.753,216.247 135.5,221.5C 131.5,227.5 126.5,232.5 120.5,236.5C 114.703,232.538 109.703,227.704 105.5,222C 109.991,216.676 114.658,211.509 119.5,206.5 Z"/></g>
<g><path style="opacity:1" fill="#ec816c" d="M 319.5,209.5 C 324.777,208.785 327.777,210.952 328.5,216C 325.538,240.299 311.871,252.633 287.5,253C 283.607,249.254 283.607,245.588 287.5,242C 306.027,240.807 315.86,230.973 317,212.5C 318.045,211.627 318.878,210.627 319.5,209.5 Z"/></g>
<g><path style="opacity:1" fill="#feb09e" d="M 277.5,282.5 C 269.767,281.27 264.601,276.937 262,269.5C 260.108,259.146 258.108,248.813 256,238.5C 254.955,237.627 254.122,236.627 253.5,235.5C 258.65,234.349 263.984,234.183 269.5,235C 271,235.833 272.167,237 273,238.5C 275.08,249.566 277.413,260.566 280,271.5C 282.232,276.731 286.065,280.231 291.5,282C 286.845,282.499 282.179,282.666 277.5,282.5 Z"/></g>
<g><path style="opacity:1" fill="#07c0f9" d="M 347.5,255.5 C 348.552,255.351 349.552,255.517 350.5,256C 359.999,262.251 369.666,268.251 379.5,274C 381.049,275.214 382.215,276.714 383,278.5C 382.614,289.15 382.114,299.817 381.5,310.5C 381.591,318.194 382.091,325.861 383,333.5C 386.249,354.161 390.915,374.495 397,394.5C 401.388,419.764 397.221,443.431 384.5,465.5C 370.422,475.877 355.089,484.21 338.5,490.5C 364.59,461.806 372.256,428.806 361.5,391.5C 356.085,373.172 352.252,354.505 350,335.5C 349.333,323.833 349.333,312.167 350,300.5C 350.463,295.928 351.296,291.428 352.5,287C 352.355,286.228 352.022,285.561 351.5,285C 345.588,282.222 340.255,278.722 335.5,274.5C 341.188,269.163 345.188,262.83 347.5,255.5 Z"/></g>
<g><path style="opacity:1" fill="#08e5a0" d="M 64.5,246.5 C 67.6032,263.437 77.6032,273.603 94.5,277C 96.5268,278.396 96.8602,280.062 95.5,282C 90.7574,283.47 86.0907,285.136 81.5,287C 75.2207,290.111 70.8874,294.945 68.5,301.5C 67.1841,305.089 66.0175,308.756 65,312.5C 63.8668,314.211 62.3668,314.711 60.5,314C 58.1033,306.81 54.9367,299.977 51,293.5C 44.4223,287.961 36.9223,284.127 28.5,282C 27.1398,280.062 27.4732,278.396 29.5,277C 36.2748,275.3 42.6081,272.633 48.5,269C 54.0393,262.422 57.8726,254.922 60,246.5C 61.4902,245.272 62.9902,245.272 64.5,246.5 Z"/></g>
<g><path style="opacity:0.999" fill="#feaf9d" d="M 335.5,274.5 C 340.255,278.722 345.588,282.222 351.5,285C 352.022,285.561 352.355,286.228 352.5,287C 351.296,291.428 350.463,295.928 350,300.5C 349.333,312.167 349.333,323.833 350,335.5C 352.252,354.505 356.085,373.172 361.5,391.5C 342.5,391.5 323.5,391.5 304.5,391.5C 290.163,391.333 275.829,391.5 261.5,392C 255,394.5 250.5,399 248,405.5C 247.5,440.165 247.333,474.832 247.5,509.5C 231.056,509.435 214.723,508.102 198.5,505.5C 198.333,469.832 198.5,434.165 199,398.5C 206.746,359.593 229.579,334.593 267.5,323.5C 273.509,323.666 279.509,323.499 285.5,323C 287.641,322.427 289.641,321.594 291.5,320.5C 298.989,321.656 306.655,321.822 314.5,321C 321.428,318.406 325.928,313.573 328,306.5C 328.824,297.324 328.657,288.324 327.5,279.5C 330.131,277.847 332.797,276.181 335.5,274.5 Z"/></g>
<g><path style="opacity:1" fill="#f79580" d="M 327.5,279.5 C 328.657,288.324 328.824,297.324 328,306.5C 325.928,313.573 321.428,318.406 314.5,321C 306.655,321.822 298.989,321.656 291.5,320.5C 295.84,318.326 299.006,314.993 301,310.5C 302.381,301.568 302.881,292.568 302.5,283.5C 311.196,284.193 319.529,282.86 327.5,279.5 Z"/></g>
<g><path style="opacity:1" fill="#f79580" d="M 267.5,323.5 C 229.579,334.593 206.746,359.593 199,398.5C 198.5,434.165 198.333,469.832 198.5,505.5C 189.698,503.673 181.031,501.34 172.5,498.5C 172.333,465.832 172.5,433.165 173,400.5C 173.683,395.766 174.683,391.1 176,386.5C 191.656,344.079 222.156,323.079 267.5,323.5 Z"/></g>
<g><path style="opacity:1" fill="#f8f6f5" d="M 129.5,348.5 C 130.822,348.33 131.989,348.663 133,349.5C 135.5,362.667 143.333,370.5 156.5,373C 157.357,373.689 158.023,374.522 158.5,375.5C 154.068,377.934 149.402,380.1 144.5,382C 138.257,387.044 134.424,393.544 133,401.5C 131.667,402.833 130.333,402.833 129,401.5C 126.194,388.027 118.027,379.86 104.5,377C 103.167,375.667 103.167,374.333 104.5,373C 118.648,370.684 126.982,362.518 129.5,348.5 Z"/></g>
<g><path style="opacity:1" fill="#ffd15b" d="M 304.5,391.5 C 298.187,394.314 293.687,398.981 291,405.5C 290.5,438.832 290.333,472.165 290.5,505.5C 276.26,507.77 261.927,509.103 247.5,509.5C 247.333,474.832 247.5,440.165 248,405.5C 250.5,399 255,394.5 261.5,392C 275.829,391.5 290.163,391.333 304.5,391.5 Z"/></g>
<g><path style="opacity:0.998" fill="#fee077" d="M 304.5,391.5 C 323.5,391.5 342.5,391.5 361.5,391.5C 372.256,428.806 364.59,461.806 338.5,490.5C 323.08,497.083 307.08,502.083 290.5,505.5C 290.333,472.165 290.5,438.832 291,405.5C 293.687,398.981 298.187,394.314 304.5,391.5 Z"/></g>
</svg>
