<svg width="38" height="38" viewBox="0 0 38 38" fill="none" xmlns="http://www.w3.org/2000/svg">
<mask id="path-1-outside-1_28_78" maskUnits="userSpaceOnUse" x="0" y="0" width="38" height="38" fill="black">
<rect fill="white" width="38" height="38"/>
<path d="M1 19C1 28.9411 8.83502 37 18.5 37C28.165 37 36 28.9411 36 19C36 9.05887 28.165 1 18.5 1C8.83502 1 1 9.05887 1 19Z"/>
<path d="M11 17.5C11 24.4036 16.5964 30 23.5 30C30.4036 30 36 24.4036 36 17.5C36 10.5964 30.4036 5 23.5 5C16.5964 5 11 10.5964 11 17.5Z"/>
<path d="M16 29C16 30.1046 15.1046 31 14 31C12.8954 31 12 30.1046 12 29C12 27.8954 12.8954 27 14 27C15.1046 27 16 27.8954 16 29Z"/>
<path d="M10 29.5C10 30.8807 8.88071 32 7.5 32C6.11929 32 5 30.8807 5 29.5C5 28.1193 6.11929 27 7.5 27C8.88071 27 10 28.1193 10 29.5Z"/>
<path d="M29 30C29 31.1046 28.1046 32 27 32C25.8954 32 25 31.1046 25 30C25 28.8954 25.8954 28 27 28C28.1046 28 29 28.8954 29 30Z"/>
<path d="M7 24.5C7 25.3284 6.32843 26 5.5 26C4.67157 26 4 25.3284 4 24.5C4 23.6716 4.67157 23 5.5 23C6.32843 23 7 23.6716 7 24.5Z"/>
<path d="M15 33.5C15 34.3284 14.3284 35 13.5 35C12.6716 35 12 34.3284 12 33.5C12 32.6716 12.6716 32 13.5 32C14.3284 32 15 32.6716 15 33.5Z"/>
<path d="M18 32C18 32.5523 17.5523 33 17 33C16.4477 33 16 32.5523 16 32C16 31.4477 16.4477 31 17 31C17.5523 31 18 31.4477 18 32Z"/>
<path d="M9 16C9 16.5523 8.55228 17 8 17C7.44772 17 7 16.5523 7 16C7 15.4477 7.44772 15 8 15C8.55228 15 9 15.4477 9 16Z"/>
<path d="M14 12C14 13.6569 12.6569 15 11 15C9.34315 15 8 13.6569 8 12C8 10.3431 9.34315 9 11 9C12.6569 9 14 10.3431 14 12Z"/>
<path d="M6 14.5C6 15.3284 5.32843 16 4.5 16C3.67157 16 3 15.3284 3 14.5C3 13.6716 3.67157 13 4.5 13C5.32843 13 6 13.6716 6 14.5Z"/>
<path d="M20 2.5C20 3.32843 19.3284 4 18.5 4C17.6716 4 17 3.32843 17 2.5C17 1.67157 17.6716 1 18.5 1C19.3284 1 20 1.67157 20 2.5Z"/>
<path d="M17 4C17 4.55228 16.5523 5 16 5C15.4477 5 15 4.55228 15 4C15 3.44772 15.4477 3 16 3C16.5523 3 17 3.44772 17 4Z"/>
<path d="M31 26C31 26.5523 30.5523 27 30 27C29.4477 27 29 26.5523 29 26C29 25.4477 29.4477 25 30 25C30.5523 25 31 25.4477 31 26Z"/>
<path d="M24 27.5C24 27.7761 23.7761 28 23.5 28C23.2239 28 23 27.7761 23 27.5C23 27.2239 23.2239 27 23.5 27C23.7761 27 24 27.2239 24 27.5Z"/>
<path d="M23 29C23 29.5523 22.5523 30 22 30C21.4477 30 21 29.5523 21 29C21 28.4477 21.4477 28 22 28C22.5523 28 23 28.4477 23 29Z"/>
<path d="M30 23.5C30 23.7761 29.7761 24 29.5 24C29.2239 24 29 23.7761 29 23.5C29 23.2239 29.2239 23 29.5 23C29.7761 23 30 23.2239 30 23.5Z"/>
<path d="M27 6.5C27 6.77614 26.7761 7 26.5 7C26.2239 7 26 6.77614 26 6.5C26 6.22386 26.2239 6 26.5 6C26.7761 6 27 6.22386 27 6.5Z"/>
<path d="M17 23.5C17 24.3284 16.3284 25 15.5 25C14.6716 25 14 24.3284 14 23.5C14 22.6716 14.6716 22 15.5 22C16.3284 22 17 22.6716 17 23.5Z"/>
<path d="M14 21C14 21.5523 13.5523 22 13 22C12.4477 22 12 21.5523 12 21C12 20.4477 12.4477 20 13 20C13.5523 20 14 20.4477 14 21Z"/>
<path d="M21 10.5C21 11.3284 20.3284 12 19.5 12C18.6716 12 18 11.3284 18 10.5C18 9.67157 18.6716 9 19.5 9C20.3284 9 21 9.67157 21 10.5Z"/>
<path d="M22 7C22 7.55228 21.5523 8 21 8C20.4477 8 20 7.55228 20 7C20 6.44772 20.4477 6 21 6C21.5523 6 22 6.44772 22 7Z"/>
<path d="M27 10.5C27 11.8807 25.8807 13 24.5 13C23.1193 13 22 11.8807 22 10.5C22 9.11929 23.1193 8 24.5 8C25.8807 8 27 9.11929 27 10.5Z"/>
<path d="M35 23C35 24.1046 34.1046 25 33 25C31.8954 25 31 24.1046 31 23C31 21.8954 31.8954 21 33 21C34.1046 21 35 21.8954 35 23Z"/>
</mask>
<path d="M1 19C1 28.9411 8.83502 37 18.5 37C28.165 37 36 28.9411 36 19C36 9.05887 28.165 1 18.5 1C8.83502 1 1 9.05887 1 19Z" fill="#DAD9FF"/>
<path d="M11 17.5C11 24.4036 16.5964 30 23.5 30C30.4036 30 36 24.4036 36 17.5C36 10.5964 30.4036 5 23.5 5C16.5964 5 11 10.5964 11 17.5Z" fill="#B7A2D8"/>
<path d="M16 29C16 30.1046 15.1046 31 14 31C12.8954 31 12 30.1046 12 29C12 27.8954 12.8954 27 14 27C15.1046 27 16 27.8954 16 29Z" fill="#B7A2D8"/>
<path d="M10 29.5C10 30.8807 8.88071 32 7.5 32C6.11929 32 5 30.8807 5 29.5C5 28.1193 6.11929 27 7.5 27C8.88071 27 10 28.1193 10 29.5Z" fill="#B7A2D8"/>
<path d="M29 30C29 31.1046 28.1046 32 27 32C25.8954 32 25 31.1046 25 30C25 28.8954 25.8954 28 27 28C28.1046 28 29 28.8954 29 30Z" fill="#B7A2D8"/>
<path d="M7 24.5C7 25.3284 6.32843 26 5.5 26C4.67157 26 4 25.3284 4 24.5C4 23.6716 4.67157 23 5.5 23C6.32843 23 7 23.6716 7 24.5Z" fill="#B7A2D8"/>
<path d="M15 33.5C15 34.3284 14.3284 35 13.5 35C12.6716 35 12 34.3284 12 33.5C12 32.6716 12.6716 32 13.5 32C14.3284 32 15 32.6716 15 33.5Z" fill="#B7A2D8"/>
<path d="M18 32C18 32.5523 17.5523 33 17 33C16.4477 33 16 32.5523 16 32C16 31.4477 16.4477 31 17 31C17.5523 31 18 31.4477 18 32Z" fill="#B7A2D8"/>
<path d="M9 16C9 16.5523 8.55228 17 8 17C7.44772 17 7 16.5523 7 16C7 15.4477 7.44772 15 8 15C8.55228 15 9 15.4477 9 16Z" fill="#B7A2D8"/>
<path d="M14 12C14 13.6569 12.6569 15 11 15C9.34315 15 8 13.6569 8 12C8 10.3431 9.34315 9 11 9C12.6569 9 14 10.3431 14 12Z" fill="#B7A2D8"/>
<path d="M6 14.5C6 15.3284 5.32843 16 4.5 16C3.67157 16 3 15.3284 3 14.5C3 13.6716 3.67157 13 4.5 13C5.32843 13 6 13.6716 6 14.5Z" fill="#B7A2D8"/>
<path d="M20 2.5C20 3.32843 19.3284 4 18.5 4C17.6716 4 17 3.32843 17 2.5C17 1.67157 17.6716 1 18.5 1C19.3284 1 20 1.67157 20 2.5Z" fill="#B6A0D8"/>
<path d="M17 4C17 4.55228 16.5523 5 16 5C15.4477 5 15 4.55228 15 4C15 3.44772 15.4477 3 16 3C16.5523 3 17 3.44772 17 4Z" fill="#B7A2D8"/>
<path d="M31 26C31 26.5523 30.5523 27 30 27C29.4477 27 29 26.5523 29 26C29 25.4477 29.4477 25 30 25C30.5523 25 31 25.4477 31 26Z" fill="#DAD9FF"/>
<path d="M24 27.5C24 27.7761 23.7761 28 23.5 28C23.2239 28 23 27.7761 23 27.5C23 27.2239 23.2239 27 23.5 27C23.7761 27 24 27.2239 24 27.5Z" fill="#DAD9FF"/>
<path d="M23 29C23 29.5523 22.5523 30 22 30C21.4477 30 21 29.5523 21 29C21 28.4477 21.4477 28 22 28C22.5523 28 23 28.4477 23 29Z" fill="#DAD9FF"/>
<path d="M30 23.5C30 23.7761 29.7761 24 29.5 24C29.2239 24 29 23.7761 29 23.5C29 23.2239 29.2239 23 29.5 23C29.7761 23 30 23.2239 30 23.5Z" fill="#DAD9FF"/>
<path d="M27 6.5C27 6.77614 26.7761 7 26.5 7C26.2239 7 26 6.77614 26 6.5C26 6.22386 26.2239 6 26.5 6C26.7761 6 27 6.22386 27 6.5Z" fill="#DAD9FF"/>
<path d="M17 23.5C17 24.3284 16.3284 25 15.5 25C14.6716 25 14 24.3284 14 23.5C14 22.6716 14.6716 22 15.5 22C16.3284 22 17 22.6716 17 23.5Z" fill="#DAD9FF"/>
<path d="M14 21C14 21.5523 13.5523 22 13 22C12.4477 22 12 21.5523 12 21C12 20.4477 12.4477 20 13 20C13.5523 20 14 20.4477 14 21Z" fill="#DAD9FF"/>
<path d="M21 10.5C21 11.3284 20.3284 12 19.5 12C18.6716 12 18 11.3284 18 10.5C18 9.67157 18.6716 9 19.5 9C20.3284 9 21 9.67157 21 10.5Z" fill="#DAD9FF"/>
<path d="M22 7C22 7.55228 21.5523 8 21 8C20.4477 8 20 7.55228 20 7C20 6.44772 20.4477 6 21 6C21.5523 6 22 6.44772 22 7Z" fill="#DAD9FF"/>
<path d="M27 10.5C27 11.8807 25.8807 13 24.5 13C23.1193 13 22 11.8807 22 10.5C22 9.11929 23.1193 8 24.5 8C25.8807 8 27 9.11929 27 10.5Z" fill="#DAD9FF"/>
<path d="M35 23C35 24.1046 34.1046 25 33 25C31.8954 25 31 24.1046 31 23C31 21.8954 31.8954 21 33 21C34.1046 21 35 21.8954 35 23Z" fill="#DAD9FF"/>
<path d="M1 19H0.5C0.5 29.2173 8.78273 37.5 19 37.5V37V36.5C9.33502 36.5 1.5 28.665 1.5 19H1ZM19 37V37.5C29.2173 37.5 37.5 29.2173 37.5 19H37H36.5C36.5 28.665 28.665 36.5 19 36.5V37ZM37 19H37.5C37.5 8.78273 29.2173 0.5 19 0.5V1V1.5C28.665 1.5 36.5 9.33502 36.5 19H37ZM19 1V0.5C8.78273 0.5 0.5 8.78273 0.5 19H1H1.5C1.5 9.33502 9.33502 1.5 19 1.5V1ZM1 19H0C0 29.4667 8.25636 38 18.5 38V37V36C9.41367 36 2 28.4156 2 19H1ZM18.5 37V38C28.7436 38 37 29.4667 37 19H36H35C35 28.4156 27.5863 36 18.5 36V37ZM36 19H37C37 8.53333 28.7436 0 18.5 0V1V2C27.5863 2 35 9.58442 35 19H36ZM18.5 1V0C8.25636 0 0 8.53333 0 19H1H2C2 9.58442 9.41367 2 18.5 2V1ZM11 17.5H10C10 24.9558 16.0442 31 23.5 31V30V29C17.1487 29 12 23.8513 12 17.5H11ZM23.5 30V31C30.9558 31 37 24.9558 37 17.5H36H35C35 23.8513 29.8513 29 23.5 29V30ZM36 17.5H37C37 10.0442 30.9558 4 23.5 4V5V6C29.8513 6 35 11.1487 35 17.5H36ZM23.5 5V4C16.0442 4 10 10.0442 10 17.5H11H12C12 11.1487 17.1487 6 23.5 6V5ZM16 29H15C15 29.5523 14.5523 30 14 30V31V32C15.6569 32 17 30.6569 17 29H16ZM14 31V30C13.4477 30 13 29.5523 13 29H12H11C11 30.6569 12.3431 32 14 32V31ZM12 29H13C13 28.4477 13.4477 28 14 28V27V26C12.3431 26 11 27.3431 11 29H12ZM14 27V28C14.5523 28 15 28.4477 15 29H16H17C17 27.3431 15.6569 26 14 26V27ZM10 29.5H9C9 30.3284 8.32843 31 7.5 31V32V33C9.433 33 11 31.433 11 29.5H10ZM7.5 32V31C6.67157 31 6 30.3284 6 29.5H5H4C4 31.433 5.567 33 7.5 33V32ZM5 29.5H6C6 28.6716 6.67157 28 7.5 28V27V26C5.567 26 4 27.567 4 29.5H5ZM7.5 27V28C8.32843 28 9 28.6716 9 29.5H10H11C11 27.567 9.433 26 7.5 26V27ZM29 30H28C28 30.5523 27.5523 31 27 31V32V33C28.6569 33 30 31.6569 30 30H29ZM27 32V31C26.4477 31 26 30.5523 26 30H25H24C24 31.6569 25.3431 33 27 33V32ZM25 30H26C26 29.4477 26.4477 29 27 29V28V27C25.3431 27 24 28.3431 24 30H25ZM27 28V29C27.5523 29 28 29.4477 28 30H29H30C30 28.3431 28.6569 27 27 27V28ZM7 24.5H6C6 24.7761 5.77614 25 5.5 25V26V27C6.88071 27 8 25.8807 8 24.5H7ZM5.5 26V25C5.22386 25 5 24.7761 5 24.5H4H3C3 25.8807 4.11929 27 5.5 27V26ZM4 24.5H5C5 24.2239 5.22386 24 5.5 24V23V22C4.11929 22 3 23.1193 3 24.5H4ZM5.5 23V24C5.77614 24 6 24.2239 6 24.5H7H8C8 23.1193 6.88071 22 5.5 22V23ZM15 33.5H14C14 33.7761 13.7761 34 13.5 34V35V36C14.8807 36 16 34.8807 16 33.5H15ZM13.5 35V34C13.2239 34 13 33.7761 13 33.5H12H11C11 34.8807 12.1193 36 13.5 36V35ZM12 33.5H13C13 33.2239 13.2239 33 13.5 33V32V31C12.1193 31 11 32.1193 11 33.5H12ZM13.5 32V33C13.7761 33 14 33.2239 14 33.5H15H16C16 32.1193 14.8807 31 13.5 31V32ZM18 32H17V33V34C18.1046 34 19 33.1046 19 32H18ZM17 33V32H16H15C15 33.1046 15.8954 34 17 34V33ZM16 32H17V31V30C15.8954 30 15 30.8954 15 32H16ZM17 31V32H18H19C19 30.8954 18.1046 30 17 30V31ZM9 16H8V17V18C9.10457 18 10 17.1046 10 16H9ZM8 17V16H7H6C6 17.1046 6.89543 18 8 18V17ZM7 16H8V15V14C6.89543 14 6 14.8954 6 16H7ZM8 15V16H9H10C10 14.8954 9.10457 14 8 14V15ZM14 12H13C13 13.1046 12.1046 14 11 14V15V16C13.2091 16 15 14.2091 15 12H14ZM11 15V14C9.89543 14 9 13.1046 9 12H8H7C7 14.2091 8.79086 16 11 16V15ZM8 12H9C9 10.8954 9.89543 10 11 10V9V8C8.79086 8 7 9.79086 7 12H8ZM11 9V10C12.1046 10 13 10.8954 13 12H14H15C15 9.79086 13.2091 8 11 8V9ZM6 14.5H5C5 14.7761 4.77614 15 4.5 15V16V17C5.88071 17 7 15.8807 7 14.5H6ZM4.5 16V15C4.22386 15 4 14.7761 4 14.5H3H2C2 15.8807 3.11929 17 4.5 17V16ZM3 14.5H4C4 14.2239 4.22386 14 4.5 14V13V12C3.11929 12 2 13.1193 2 14.5H3ZM4.5 13V14C4.77614 14 5 14.2239 5 14.5H6H7C7 13.1193 5.88071 12 4.5 12V13ZM20 2.5H19C19 2.77614 18.7761 3 18.5 3V4V5C19.8807 5 21 3.88071 21 2.5H20ZM18.5 4V3C18.2239 3 18 2.77614 18 2.5H17H16C16 3.88071 17.1193 5 18.5 5V4ZM17 2.5H18C18 2.22386 18.2239 2 18.5 2V1V0C17.1193 0 16 1.11929 16 2.5H17ZM18.5 1V2C18.7761 2 19 2.22386 19 2.5H20H21C21 1.11929 19.8807 0 18.5 0V1ZM17 4H16V5V6C17.1046 6 18 5.10457 18 4H17ZM16 5V4H15H14C14 5.10457 14.8954 6 16 6V5ZM15 4H16V3V2C14.8954 2 14 2.89543 14 4H15ZM16 3V4H17H18C18 2.89543 17.1046 2 16 2V3ZM31 26H30V27V28C31.1046 28 32 27.1046 32 26H31ZM30 27V26H29H28C28 27.1046 28.8954 28 30 28V27ZM29 26H30V25V24C28.8954 24 28 24.8954 28 26H29ZM30 25V26H31H32C32 24.8954 31.1046 24 30 24V25ZM24 27.5H23C23 27.2239 23.2239 27 23.5 27V28V29C24.3284 29 25 28.3284 25 27.5H24ZM23.5 28V27C23.7761 27 24 27.2239 24 27.5H23H22C22 28.3284 22.6716 29 23.5 29V28ZM23 27.5H24C24 27.7761 23.7761 28 23.5 28V27V26C22.6716 26 22 26.6716 22 27.5H23ZM23.5 27V28C23.2239 28 23 27.7761 23 27.5H24H25C25 26.6716 24.3284 26 23.5 26V27ZM23 29H22V30V31C23.1046 31 24 30.1046 24 29H23ZM22 30V29H21H20C20 30.1046 20.8954 31 22 31V30ZM21 29H22V28V27C20.8954 27 20 27.8954 20 29H21ZM22 28V29H23H24C24 27.8954 23.1046 27 22 27V28ZM30 23.5H29C29 23.2239 29.2239 23 29.5 23V24V25C30.3284 25 31 24.3284 31 23.5H30ZM29.5 24V23C29.7761 23 30 23.2239 30 23.5H29H28C28 24.3284 28.6716 25 29.5 25V24ZM29 23.5H30C30 23.7761 29.7761 24 29.5 24V23V22C28.6716 22 28 22.6716 28 23.5H29ZM29.5 23V24C29.2239 24 29 23.7761 29 23.5H30H31C31 22.6716 30.3284 22 29.5 22V23ZM27 6.5H26C26 6.22386 26.2239 6 26.5 6V7V8C27.3284 8 28 7.32843 28 6.5H27ZM26.5 7V6C26.7761 6 27 6.22386 27 6.5H26H25C25 7.32843 25.6716 8 26.5 8V7ZM26 6.5H27C27 6.77614 26.7761 7 26.5 7V6V5C25.6716 5 25 5.67157 25 6.5H26ZM26.5 6V7C26.2239 7 26 6.77614 26 6.5H27H28C28 5.67157 27.3284 5 26.5 5V6ZM17 23.5H16C16 23.7761 15.7761 24 15.5 24V25V26C16.8807 26 18 24.8807 18 23.5H17ZM15.5 25V24C15.2239 24 15 23.7761 15 23.5H14H13C13 24.8807 14.1193 26 15.5 26V25ZM14 23.5H15C15 23.2239 15.2239 23 15.5 23V22V21C14.1193 21 13 22.1193 13 23.5H14ZM15.5 22V23C15.7761 23 16 23.2239 16 23.5H17H18C18 22.1193 16.8807 21 15.5 21V22ZM14 21H13V22V23C14.1046 23 15 22.1046 15 21H14ZM13 22V21H12H11C11 22.1046 11.8954 23 13 23V22ZM12 21H13V20V19C11.8954 19 11 19.8954 11 21H12ZM13 20V21H14H15C15 19.8954 14.1046 19 13 19V20ZM21 10.5H20C20 10.7761 19.7761 11 19.5 11V12V13C20.8807 13 22 11.8807 22 10.5H21ZM19.5 12V11C19.2239 11 19 10.7761 19 10.5H18H17C17 11.8807 18.1193 13 19.5 13V12ZM18 10.5H19C19 10.2239 19.2239 10 19.5 10V9V8C18.1193 8 17 9.11929 17 10.5H18ZM19.5 9V10C19.7761 10 20 10.2239 20 10.5H21H22C22 9.11929 20.8807 8 19.5 8V9ZM22 7H21V8V9C22.1046 9 23 8.10457 23 7H22ZM21 8V7H20H19C19 8.10457 19.8954 9 21 9V8ZM20 7H21V6V5C19.8954 5 19 5.89543 19 7H20ZM21 6V7H22H23C23 5.89543 22.1046 5 21 5V6ZM27 10.5H26C26 11.3284 25.3284 12 24.5 12V13V14C26.433 14 28 12.433 28 10.5H27ZM24.5 13V12C23.6716 12 23 11.3284 23 10.5H22H21C21 12.433 22.567 14 24.5 14V13ZM22 10.5H23C23 9.67157 23.6716 9 24.5 9V8V7C22.567 7 21 8.567 21 10.5H22ZM24.5 8V9C25.3284 9 26 9.67157 26 10.5H27H28C28 8.567 26.433 7 24.5 7V8ZM35 23H34C34 23.5523 33.5523 24 33 24V25V26C34.6569 26 36 24.6569 36 23H35ZM33 25V24C32.4477 24 32 23.5523 32 23H31H30C30 24.6569 31.3431 26 33 26V25ZM31 23H32C32 22.4477 32.4477 22 33 22V21V20C31.3431 20 30 21.3431 30 23H31ZM33 21V22C33.5523 22 34 22.4477 34 23H35H36C36 21.3431 34.6569 20 33 20V21Z" fill="#B7A2D8" mask="url(#path-1-outside-1_28_78)"/>
</svg>
